<svg width="112" height="36" viewBox="0 0 112 36" fill="none" xmlns="http://www.w3.org/2000/svg">
<path d="M38.1702 10.7627H45.5091C46.4056 10.7627 47.1849 10.8594 47.847 11.0527C48.515 11.2402 49.0687 11.501 49.5081 11.835C49.9476 12.1689 50.2728 12.5674 50.4837 13.0303C50.7005 13.4873 50.8089 13.9824 50.8089 14.5156C50.8089 15.3887 50.5335 16.1533 49.9827 16.8096C50.6155 17.1846 51.0872 17.6709 51.3978 18.2686C51.7083 18.8662 51.8636 19.5459 51.8636 20.3076C51.8636 20.9463 51.7552 21.5234 51.5384 22.0391C51.3275 22.5547 51.0023 22.9971 50.5628 23.3662C50.1292 23.7295 49.5784 24.0107 48.9105 24.21C48.2484 24.4033 47.4661 24.5 46.5638 24.5H38.1702V10.7627ZM46.5814 16.0361C46.8216 16.0361 47.056 16.0449 47.2845 16.0625C47.6771 15.6875 47.8734 15.2598 47.8734 14.7793C47.8734 14.2812 47.6771 13.8975 47.2845 13.6279C46.8978 13.3525 46.3294 13.2148 45.5794 13.2148H40.9564V16.0361H46.5814ZM46.6341 22.0742C47.3841 22.0742 47.9525 21.9131 48.3392 21.5908C48.7318 21.2686 48.928 20.8145 48.928 20.2285C48.928 19.6426 48.7318 19.1855 48.3392 18.8574C47.9525 18.5293 47.3841 18.3652 46.6341 18.3652H40.9564V22.0742H46.6341ZM53.7444 19.3145C53.7444 18.5703 53.8939 17.873 54.1927 17.2227C54.4974 16.5723 54.928 16.0039 55.4847 15.5176C56.0472 15.0312 56.7239 14.6475 57.515 14.3662C58.3118 14.085 59.2054 13.9443 60.1956 13.9443C61.1859 13.9443 62.0765 14.085 62.8675 14.3662C63.6644 14.6475 64.3411 15.0312 64.8978 15.5176C65.4603 16.0039 65.8909 16.5723 66.1898 17.2227C66.4944 17.873 66.6468 18.5703 66.6468 19.3145C66.6468 20.0586 66.4944 20.7559 66.1898 21.4062C65.8909 22.0566 65.4603 22.625 64.8978 23.1113C64.3411 23.5977 63.6644 23.9814 62.8675 24.2627C62.0765 24.5439 61.1859 24.6846 60.1956 24.6846C59.2054 24.6846 58.3118 24.5439 57.515 24.2627C56.7239 23.9814 56.0472 23.5977 55.4847 23.1113C54.928 22.625 54.4974 22.0566 54.1927 21.4062C53.8939 20.7559 53.7444 20.0586 53.7444 19.3145ZM56.4778 19.3145C56.4778 19.7305 56.5599 20.126 56.7239 20.501C56.8939 20.8701 57.137 21.1982 57.4534 21.4854C57.7757 21.7666 58.1653 21.9922 58.6224 22.1621C59.0853 22.3262 59.6097 22.4082 60.1956 22.4082C60.7816 22.4082 61.303 22.3262 61.7601 22.1621C62.223 21.9922 62.6126 21.7666 62.929 21.4854C63.2513 21.1982 63.4944 20.8701 63.6585 20.501C63.8284 20.126 63.9134 19.7305 63.9134 19.3145C63.9134 18.8984 63.8284 18.5029 63.6585 18.1279C63.4944 17.7529 63.2513 17.4248 62.929 17.1436C62.6126 16.8564 62.223 16.6309 61.7601 16.4668C61.303 16.2969 60.7816 16.2119 60.1956 16.2119C59.6097 16.2119 59.0853 16.2969 58.6224 16.4668C58.1653 16.6309 57.7757 16.8564 57.4534 17.1436C57.137 17.4248 56.8939 17.7529 56.7239 18.1279C56.5599 18.5029 56.4778 18.8984 56.4778 19.3145ZM69.345 9.91895H71.9466V24.5H69.345V9.91895ZM74.4866 19.3584C74.4866 18.5322 74.6419 17.7881 74.9525 17.126C75.263 16.458 75.6907 15.8896 76.2357 15.4209C76.7864 14.9463 77.4368 14.583 78.1868 14.3311C78.9427 14.0732 79.7601 13.9443 80.639 13.9443C81.014 13.9443 81.3831 13.9678 81.7464 14.0146C82.1155 14.0615 82.4671 14.126 82.8011 14.208C83.1409 14.29 83.4573 14.3896 83.7503 14.5068C84.0491 14.6182 84.3128 14.7412 84.5413 14.876V9.91895H87.1429V24.5H84.5413V23.5244C84.3128 23.6826 84.0433 23.832 83.7327 23.9727C83.4222 24.1133 83.0882 24.2363 82.7308 24.3418C82.3734 24.4473 82.0013 24.5293 81.6146 24.5879C81.2337 24.6523 80.8558 24.6846 80.4808 24.6846C79.6019 24.6846 78.7933 24.5557 78.055 24.2979C77.3226 24.04 76.6927 23.6768 76.1653 23.208C75.638 22.7393 75.2249 22.1797 74.9261 21.5293C74.6331 20.873 74.4866 20.1494 74.4866 19.3584ZM77.22 19.3584C77.22 19.7744 77.3021 20.167 77.4661 20.5361C77.636 20.9053 77.8763 21.2305 78.1868 21.5117C78.5032 21.7871 78.8812 22.0068 79.3206 22.1709C79.7659 22.3291 80.264 22.4082 80.8148 22.4082C81.1663 22.4082 81.5179 22.376 81.8694 22.3115C82.221 22.2412 82.5579 22.1445 82.8802 22.0215C83.2083 21.8984 83.513 21.749 83.7943 21.5732C84.0814 21.3975 84.3304 21.2012 84.5413 20.9844V17.3896C84.2776 17.1787 83.9993 17 83.7064 16.8535C83.4134 16.707 83.1146 16.5869 82.8099 16.4932C82.5052 16.3994 82.1976 16.332 81.887 16.291C81.5765 16.2441 81.2747 16.2207 80.9818 16.2207C80.3841 16.2207 79.8509 16.3027 79.3821 16.4668C78.9193 16.625 78.5267 16.8447 78.2044 17.126C77.888 17.4072 77.6448 17.7383 77.4749 18.1191C77.305 18.5 77.22 18.9131 77.22 19.3584ZM90.14 10.7627H92.9261V18.3301C92.9261 18.9512 93.011 19.5049 93.181 19.9912C93.3509 20.4717 93.6028 20.8789 93.9368 21.2129C94.2767 21.5469 94.6956 21.8018 95.1937 21.9775C95.6917 22.1475 96.2718 22.2324 96.9339 22.2324C97.5901 22.2324 98.1673 22.1475 98.6653 21.9775C99.1693 21.8018 99.5882 21.5469 99.9222 21.2129C100.262 20.8789 100.517 20.4717 100.687 19.9912C100.857 19.5049 100.942 18.9512 100.942 18.3301V10.7627H103.728V18.6641C103.728 19.5664 103.576 20.3867 103.271 21.125C102.966 21.8633 102.524 22.4961 101.944 23.0234C101.364 23.5508 100.652 23.958 99.8079 24.2451C98.97 24.5322 98.012 24.6758 96.9339 24.6758C95.8558 24.6758 94.8948 24.5322 94.0511 24.2451C93.2132 23.958 92.5042 23.5508 91.9241 23.0234C91.3441 22.4961 90.9017 21.8633 90.597 21.125C90.2923 20.3867 90.14 19.5664 90.14 18.6641V10.7627ZM106.778 10.7627H109.581V24.5H106.778V10.7627Z" fill="white"/>
<circle cx="12.4037" cy="12.2079" r="11.5842" fill="#2F7AF9"/>
<g style="mix-blend-mode:hard-light">
<circle cx="12.4038" cy="23.7921" r="11.5842" fill="#FFEC3E"/>
</g>
</svg>
