<svg width="658" height="201" viewBox="0 0 658 201" fill="none" xmlns="http://www.w3.org/2000/svg">
<path d="M1.17041 121.793L0.809914 121.446L0.671856 121.59L0.670422 121.789L1.17041 121.793ZM114.082 4.31091V3.81091H113.869L113.721 3.96444L114.082 4.31091ZM153.242 4.31091H153.742V3.81091H153.242V4.31091ZM153.242 121.793H152.742V122.293H153.242V121.793ZM194.874 121.793H195.374V121.293H194.874V121.793ZM194.874 156.136V156.636H195.374V156.136H194.874ZM153.242 156.136V155.636H152.742V156.136H153.242ZM153.242 197.396V197.896H153.742V197.396H153.242ZM114.082 197.396H113.582V197.896H114.082V197.396ZM114.082 156.136H114.582V155.636H114.082V156.136ZM0.92334 156.136L0.423351 156.132L0.419731 156.636H0.92334V156.136ZM114.082 121.793V122.293H114.582V121.793H114.082ZM114.082 53.8485H114.582V52.6158L113.723 53.5002L114.082 53.8485ZM48.1138 121.793L47.755 121.445L46.9314 122.293H48.1138V121.793ZM1.53091 122.139L114.442 4.65738L113.721 3.96444L0.809914 121.446L1.53091 122.139ZM114.082 4.81091H153.242V3.81091H114.082V4.81091ZM152.742 4.31091V121.793H153.742V4.31091H152.742ZM153.242 122.293H194.874V121.293H153.242V122.293ZM194.374 121.793V156.136H195.374V121.793H194.374ZM194.874 155.636H153.242V156.636H194.874V155.636ZM152.742 156.136V197.396H153.742V156.136H152.742ZM153.242 196.896H114.082V197.896H153.242V196.896ZM114.582 197.396V156.136H113.582V197.396H114.582ZM114.082 155.636H0.92334V156.636H114.082V155.636ZM1.42333 156.139L1.6704 121.796L0.670422 121.789L0.423351 156.132L1.42333 156.139ZM114.582 121.793V53.8485H113.582V121.793H114.582ZM113.723 53.5002L47.755 121.445L48.4725 122.141L114.44 54.1968L113.723 53.5002ZM48.1138 122.293H114.082V121.293H48.1138V122.293ZM251.07 27.1649L251.422 27.5202L251.424 27.5185L251.07 27.1649ZM397.089 27.1649L396.735 27.5185L396.737 27.5202L397.089 27.1649ZM397.089 173.678L396.737 173.322L397.089 173.678ZM267.377 128.217L266.905 128.381L266.906 128.385L267.377 128.217ZM279.607 148.6L279.245 148.945L279.248 148.948L279.607 148.6ZM298.755 161.077L298.575 161.544L298.58 161.545L298.755 161.077ZM349.404 161.077L349.579 161.545L349.584 161.544L349.404 161.077ZM368.552 148.6L368.911 148.948L368.914 148.945L368.552 148.6ZM380.659 128.217L380.188 128.048L380.186 128.053L380.659 128.217ZM380.659 72.6259L380.186 72.7898L380.188 72.7956L380.659 72.6259ZM349.404 39.7655L349.225 40.2322L349.229 40.2339L349.404 39.7655ZM298.755 39.7655L298.93 40.2339L298.934 40.2322L298.755 39.7655ZM267.377 72.6259L266.906 72.4577L266.905 72.4605L267.377 72.6259ZM224.516 100.421C224.516 84.9059 226.856 71.0081 231.525 58.7205L230.59 58.3652C225.871 70.7846 223.516 84.8057 223.516 100.421H224.516ZM231.525 58.7205C236.196 46.4279 242.83 36.0308 251.422 27.5202L250.718 26.8097C242.016 35.4293 235.308 45.9507 230.59 58.3652L231.525 58.7205ZM251.424 27.5185C260.016 18.9262 270.453 12.3753 282.744 7.86873L282.4 6.92986C269.983 11.4825 259.419 18.1087 250.717 26.8114L251.424 27.5185ZM282.744 7.86873C295.034 3.36235 308.81 1.10486 324.08 1.10486V0.104858C308.712 0.104858 294.817 2.377 282.4 6.92986L282.744 7.86873ZM324.08 1.10486C339.349 1.10486 353.125 3.36235 365.415 7.86873L365.76 6.92986C353.343 2.377 339.447 0.104858 324.08 0.104858V1.10486ZM365.415 7.86873C377.706 12.3753 388.143 18.9262 396.735 27.5185L397.442 26.8114C388.74 18.1087 378.176 11.4825 365.76 6.92986L365.415 7.86873ZM396.737 27.5202C405.329 36.0308 411.963 46.4279 416.634 58.7205L417.569 58.3652C412.851 45.9507 406.143 35.4293 397.441 26.8097L396.737 27.5202ZM416.634 58.7205C421.303 71.0081 423.643 84.9059 423.643 100.421H424.643C424.643 84.8057 422.288 70.7846 417.569 58.3652L416.634 58.7205ZM423.643 100.421C423.643 115.937 421.303 129.834 416.634 142.122L417.569 142.477C422.288 130.058 424.643 116.037 424.643 100.421H423.643ZM416.634 142.122C411.963 154.415 405.329 164.812 396.737 173.322L397.441 174.033C406.143 165.413 412.851 154.892 417.569 142.477L416.634 142.122ZM396.737 173.322C388.145 181.833 377.707 188.343 365.415 192.85L365.76 193.789C378.175 189.237 388.738 182.652 397.441 174.033L396.737 173.322ZM365.415 192.85C353.125 197.357 339.349 199.614 324.08 199.614V200.614C339.447 200.614 353.343 198.342 365.76 193.789L365.415 192.85ZM324.08 199.614C308.81 199.614 295.034 197.357 282.744 192.85L282.4 193.789C294.817 198.342 308.712 200.614 324.08 200.614V199.614ZM282.744 192.85C270.452 188.343 260.015 181.833 251.422 173.322L250.718 174.033C259.421 182.652 269.984 189.237 282.4 193.789L282.744 192.85ZM251.422 173.322C242.83 164.812 236.196 154.415 231.525 142.122L230.59 142.477C235.308 154.892 242.016 165.413 250.718 174.033L251.422 173.322ZM231.525 142.122C226.856 129.834 224.516 115.937 224.516 100.421H223.516C223.516 116.037 225.871 130.058 230.59 142.477L231.525 142.122ZM262.677 100.298C262.677 110.883 264.082 120.246 266.905 128.381L267.849 128.053C265.071 120.045 263.677 110.796 263.677 100.298H262.677ZM266.906 128.385C269.809 136.514 273.92 143.371 279.245 148.945L279.968 148.255C274.752 142.793 270.71 136.062 267.848 128.049L266.906 128.385ZM279.248 148.948C284.572 154.439 291.017 158.637 298.575 161.544L298.934 160.61C291.503 157.752 285.183 153.632 279.966 148.252L279.248 148.948ZM298.58 161.545C306.139 164.37 314.641 165.777 324.08 165.777V164.777C314.741 164.777 306.36 163.385 298.93 160.609L298.58 161.545ZM324.08 165.777C333.518 165.777 342.02 164.37 349.579 161.545L349.229 160.609C341.8 163.385 333.419 164.777 324.08 164.777V165.777ZM349.584 161.544C357.142 158.637 363.587 154.439 368.911 148.948L368.193 148.252C362.976 153.632 356.656 157.752 349.225 160.61L349.584 161.544ZM368.914 148.945C374.24 143.37 378.31 136.511 381.131 128.381L380.186 128.053C377.407 136.064 373.406 142.794 368.191 148.255L368.914 148.945ZM381.13 128.385C384.035 120.249 385.482 110.884 385.482 100.298H384.482C384.482 110.795 383.047 120.042 380.188 128.049L381.13 128.385ZM385.482 100.298C385.482 89.7935 384.035 80.5101 381.129 72.4562L380.188 72.7956C383.047 80.7188 384.482 89.8834 384.482 100.298H385.482ZM381.131 72.462C378.31 64.3314 374.24 57.4728 368.914 51.8972L368.191 52.5879C373.406 58.0481 377.407 64.7784 380.186 72.7897L381.131 72.462ZM368.914 51.8972C363.588 46.3221 357.141 42.1223 349.579 39.2971L349.229 40.2339C356.657 43.0089 362.974 47.1272 368.191 52.5879L368.914 51.8972ZM349.584 39.2988C342.023 36.3909 333.519 34.9418 324.08 34.9418V35.9418C333.417 35.9418 341.796 37.3751 349.225 40.2322L349.584 39.2988ZM324.08 34.9418C314.64 34.9418 306.136 36.3909 298.575 39.2988L298.934 40.2322C306.363 37.3751 314.742 35.9418 324.08 35.9418V34.9418ZM298.58 39.2971C291.018 42.1223 284.571 46.3221 279.245 51.8972L279.968 52.5879C285.185 47.1272 291.503 43.0089 298.93 40.2339L298.58 39.2971ZM279.245 51.8972C273.92 57.4717 269.809 64.3288 266.906 72.4577L267.848 72.794C270.71 64.781 274.752 58.0492 279.968 52.5879L279.245 51.8972ZM266.905 72.4605C264.083 80.5131 262.677 89.7949 262.677 100.298H263.677C263.677 89.882 265.071 80.7159 267.849 72.7912L266.905 72.4605ZM462.921 121.793L462.561 121.446L462.423 121.59L462.421 121.789L462.921 121.793ZM575.833 4.31091V3.81091H575.62L575.472 3.96444L575.833 4.31091ZM614.993 4.31091H615.493V3.81091H614.993V4.31091ZM614.993 121.793H614.493V122.293H614.993V121.793ZM656.625 121.793H657.125V121.293H656.625V121.793ZM656.625 156.136V156.636H657.125V156.136H656.625ZM614.993 156.136V155.636H614.493V156.136H614.993ZM614.993 197.396V197.896H615.493V197.396H614.993ZM575.833 197.396H575.333V197.896H575.833V197.396ZM575.833 156.136H576.333V155.636H575.833V156.136ZM462.674 156.136L462.174 156.132L462.171 156.636H462.674V156.136ZM575.833 121.793V122.293H576.333V121.793H575.833ZM575.833 53.8485H576.333V52.6158L575.474 53.5002L575.833 53.8485ZM509.865 121.793L509.506 121.445L508.682 122.293H509.865V121.793ZM463.282 122.139L576.193 4.65738L575.472 3.96444L462.561 121.446L463.282 122.139ZM575.833 4.81091H614.993V3.81091H575.833V4.81091ZM614.493 4.31091V121.793H615.493V4.31091H614.493ZM614.993 122.293H656.625V121.293H614.993V122.293ZM656.125 121.793V156.136H657.125V121.793H656.125ZM656.625 155.636H614.993V156.636H656.625V155.636ZM614.493 156.136V197.396H615.493V156.136H614.493ZM614.993 196.896H575.833V197.896H614.993V196.896ZM576.333 197.396V156.136H575.333V197.396H576.333ZM575.833 155.636H462.674V156.636H575.833V155.636ZM463.174 156.139L463.421 121.796L462.421 121.789L462.174 156.132L463.174 156.139ZM576.333 121.793V53.8485H575.333V121.793H576.333ZM575.474 53.5002L509.506 121.445L510.223 122.141L576.191 54.1968L575.474 53.5002ZM509.865 122.293H575.833V121.293H509.865V122.293Z" fill="white" fill-opacity="0.13"/>
</svg>
