<svg width="115" height="116" viewBox="0 0 115 116" fill="none" xmlns="http://www.w3.org/2000/svg">
<path d="M106.562 59.4706L106.076 63.5187C106.017 64.0132 105.912 64.4367 105.761 64.7891C105.614 65.1451 105.433 65.4333 105.22 65.6536C105.007 65.8739 104.765 66.0268 104.496 66.1125C104.23 66.2019 103.949 66.2289 103.655 66.1936C103.174 66.1358 102.77 65.9332 102.445 65.586C102.196 65.9102 101.896 66.1382 101.546 66.2699C101.196 66.4016 100.811 66.4422 100.391 66.3918C100.038 66.3495 99.7271 66.2515 99.4571 66.0978C99.1866 65.9473 98.9641 65.7386 98.7896 65.4718C98.6179 65.2085 98.4993 64.8861 98.4336 64.5045C98.3708 64.1265 98.3693 63.6886 98.429 63.1908L98.9848 58.561L106.562 59.4706ZM103.096 63.761C103.081 63.8935 103.06 64.0222 103.035 64.1471C103.216 64.3885 103.439 64.5251 103.704 64.5569C103.979 64.5899 104.204 64.507 104.378 64.3083C104.556 64.1132 104.669 63.8088 104.719 63.3951L105.025 60.8451L103.469 60.6583L103.096 63.761ZM99.7624 63.3903C99.7127 63.804 99.764 64.1281 99.9161 64.3628C100.068 64.6007 100.305 64.739 100.629 64.7778C100.952 64.8166 101.217 64.7386 101.424 64.5438C101.63 64.3522 101.759 64.0496 101.808 63.6359L102.184 60.504L100.138 60.2584L99.7624 63.3903Z" fill="#7E7E7E"/>
<path d="M104.749 71.1461L102.512 77.2479L101.237 76.7806L102.942 72.132L101.512 71.6076L100.002 75.7243L98.8055 75.2856L100.315 71.1688L98.3209 70.4376L96.5811 75.1824L95.3112 74.7167L97.5839 68.5187L104.749 71.1461Z" fill="#7E7E7E"/>
<path d="M96.0865 78.6159C95.8019 78.7571 95.5275 78.9093 95.2635 79.0725C95.0003 79.2401 94.7465 79.4259 94.502 79.6298C94.2602 79.8355 94.0263 80.0643 93.8004 80.3162C93.5727 80.5708 93.3519 80.8557 93.1381 81.1709C92.8805 81.5507 92.6855 81.8905 92.5531 82.1901C92.4233 82.4915 92.345 82.755 92.3179 82.9805C92.2917 83.2105 92.3136 83.4043 92.3837 83.562C92.4519 83.7223 92.5574 83.8509 92.7002 83.9478C92.9292 84.1031 93.1745 84.1299 93.4363 84.0281C93.7007 83.9282 93.9681 83.6789 94.2386 83.2802C94.3573 83.1051 94.4704 82.9123 94.5777 82.7019C94.6877 82.4933 94.7969 82.2802 94.9051 82.0626C95.0116 81.8476 95.1185 81.635 95.2258 81.4246C95.3339 81.2187 95.4456 81.0309 95.5607 80.8611C95.7526 80.5783 95.9735 80.3308 96.2235 80.1189C96.4716 79.9096 96.737 79.7532 97.0195 79.6499C97.3002 79.5492 97.5898 79.5136 97.8884 79.543C98.187 79.5725 98.4818 79.6859 98.7728 79.8832C98.9452 80.0002 99.1007 80.1391 99.2394 80.3C99.3762 80.4636 99.4867 80.6487 99.5708 80.8552C99.6558 81.0663 99.7086 81.2987 99.7291 81.5526C99.7524 81.8083 99.7339 82.0849 99.6737 82.3823C99.6118 82.6825 99.5045 83.003 99.3519 83.344C99.2001 83.6895 98.9918 84.0576 98.7269 84.4482C98.535 84.7311 98.3261 85.0043 98.1001 85.2679C97.8767 85.5334 97.6454 85.7817 97.4061 86.0127C97.165 86.2464 96.9191 86.4611 96.6683 86.6569C96.4203 86.8544 96.1746 87.0281 95.9315 87.1778L95.278 85.9144C95.4767 85.7896 95.6778 85.6468 95.8813 85.4859C96.0876 85.3268 96.2907 85.1519 96.4909 84.9612C96.691 84.7705 96.8859 84.5644 97.0755 84.3429C97.2659 84.1259 97.4452 83.8935 97.6133 83.6457C97.8526 83.2928 98.0244 82.9845 98.1285 82.7208C98.2308 82.4597 98.2872 82.2345 98.2978 82.045C98.311 81.8573 98.2861 81.7027 98.2229 81.5812C98.1607 81.4642 98.081 81.3729 97.984 81.3071C97.7955 81.1792 97.583 81.159 97.3467 81.2465C97.113 81.3358 96.8783 81.5542 96.6426 81.9017C96.5476 82.0418 96.4483 82.2085 96.3447 82.4018C96.242 82.5996 96.1352 82.8064 96.0242 83.0222C95.9114 83.2407 95.7941 83.4601 95.6723 83.6803C95.5513 83.9051 95.4241 84.1158 95.2907 84.3124C95.0386 84.6842 94.7739 84.9845 94.4967 85.2135C94.2177 85.4451 93.9343 85.6049 93.6465 85.6929C93.3613 85.7827 93.0745 85.8025 92.786 85.7524C92.5002 85.704 92.2212 85.5876 91.9491 85.403C91.5854 85.1564 91.3184 84.8513 91.1479 84.4879C90.9783 84.129 90.9012 83.7266 90.9165 83.2808C90.9327 82.8394 91.0385 82.3644 91.2339 81.8559C91.4321 81.3491 91.7139 80.8264 92.0793 80.2876C92.3205 79.932 92.5791 79.6 92.8552 79.2916C93.1285 78.9814 93.4116 78.6974 93.7043 78.4397C93.998 78.1866 94.2973 77.9569 94.6023 77.7508C94.9082 77.5492 95.2111 77.3751 95.5112 77.2285L96.0865 78.6159Z" fill="#7E7E7E"/>
<path d="M90.4302 92.2627L92.528 90.382L93.4341 91.3927L88.0861 96.1874L87.1799 95.1766L89.2777 93.296L85.0893 88.6241L86.2418 87.5909L90.4302 92.2627Z" fill="#7E7E7E"/>
<path d="M79.9788 97.3706C80.1962 97.8689 80.3046 98.3739 80.304 98.8855C80.3048 99.4002 80.1966 99.893 79.9795 100.364C79.7608 100.84 79.4345 101.28 79.0007 101.686C78.5639 102.093 78.0203 102.439 77.3699 102.723C76.8 102.971 76.2524 103.141 75.7273 103.231C75.2004 103.326 74.6812 103.345 74.1696 103.288L74.3545 101.928C74.512 101.956 74.6849 101.965 74.8734 101.958C75.0588 101.951 75.2517 101.929 75.4519 101.892C75.6505 101.858 75.8519 101.811 76.0563 101.751C76.2576 101.691 76.4523 101.621 76.6403 101.539C77.0938 101.341 77.4733 101.108 77.7789 100.839C78.0858 100.574 78.3174 100.287 78.4735 99.977C78.628 99.6717 78.7082 99.3508 78.7142 99.0144C78.7184 98.6822 78.6477 98.3491 78.5019 98.0149C78.3509 97.6688 78.1467 97.3797 77.8891 97.1475C77.6316 96.9154 77.3328 96.7474 76.9928 96.6436C76.651 96.5441 76.2751 96.5127 75.865 96.5496C75.4532 96.5907 75.0206 96.7102 74.567 96.908C74.3612 96.9978 74.1633 97.1019 73.9734 97.2202C73.7835 97.3386 73.6057 97.4641 73.4398 97.5968C73.2723 97.7338 73.1161 97.8765 72.9713 98.0249C72.8278 98.1763 72.6989 98.3285 72.5845 98.4814L71.4625 97.6923C71.7377 97.281 72.0953 96.8959 72.5354 96.5371C72.9768 96.1811 73.4794 95.8802 74.0433 95.6342C74.7624 95.3205 75.4338 95.1377 76.0575 95.0858C76.6825 95.0369 77.248 95.0957 77.7539 95.2621C78.2611 95.4315 78.7035 95.6967 79.0811 96.0576C79.457 96.4227 79.7563 96.8604 79.9788 97.3706Z" fill="#7E7E7E"/>
<path d="M69.9742 105.454L68.4455 105.698L68.1324 103.73L63.4453 104.476L63.7585 106.444L62.225 106.688L61.0253 99.151L62.5587 98.9069L63.2373 103.17L67.9244 102.424L67.2458 98.1608L68.7744 97.9175L69.9742 105.454Z" fill="#7E7E7E"/>
<path d="M57.7518 103.327C57.6875 103.899 57.5235 104.412 57.2599 104.864C56.9962 105.316 56.6561 105.69 56.2395 105.987C55.8193 106.287 55.3334 106.501 54.7818 106.629C54.227 106.757 53.6261 106.785 52.9791 106.712C52.3354 106.64 51.7571 106.48 51.2444 106.232C50.7317 105.985 50.3054 105.668 49.9654 105.283C49.6218 104.9 49.3716 104.46 49.2147 103.961C49.0578 103.461 49.0115 102.926 49.0758 102.353C49.1404 101.777 49.3049 101.26 49.5693 100.802C49.8333 100.346 50.1756 99.9673 50.5962 99.664C51.0135 99.3603 51.4999 99.1414 52.0555 99.0073C52.6107 98.8763 53.2101 98.847 53.8539 98.9192C54.5009 98.9919 55.0805 99.1536 55.5928 99.4043C56.1016 99.658 56.5274 99.9793 56.8702 100.368C57.2099 100.757 57.4579 101.202 57.6145 101.705C57.7706 102.21 57.8164 102.751 57.7518 103.327ZM56.2136 103.154C56.2575 102.763 56.2275 102.402 56.1237 102.073C56.0165 101.743 55.851 101.453 55.6269 101.202C55.3993 100.953 55.1224 100.75 54.7962 100.592C54.4667 100.434 54.1014 100.333 53.7003 100.288C53.2991 100.243 52.922 100.261 52.5689 100.342C52.2126 100.424 51.8975 100.56 51.6238 100.752C51.3496 100.947 51.1238 101.194 50.9462 101.492C50.7687 101.79 50.6579 102.134 50.614 102.526C50.57 102.917 50.6018 103.276 50.7093 103.603C50.8167 103.929 50.983 104.213 51.2082 104.455C51.4329 104.699 51.7104 104.897 52.0406 105.049C52.3675 105.201 52.7316 105.299 53.1327 105.344C53.5338 105.389 53.9122 105.374 54.2678 105.299C54.6202 105.224 54.9347 105.092 55.2113 104.904C55.4844 104.718 55.7095 104.478 55.8867 104.184C56.0607 103.889 56.1696 103.546 56.2136 103.154Z" fill="#7E7E7E"/>
<path d="M44.5727 105.091L43.084 104.632L45.33 97.3386L46.8186 97.797L44.5727 105.091Z" fill="#7E7E7E"/>
<path d="M41.1119 100.227C40.8617 100.71 40.5377 101.112 40.1399 101.434C39.7406 101.758 39.2896 101.985 38.7869 102.113C38.2798 102.242 37.7321 102.266 37.1436 102.185C36.5522 102.102 35.9416 101.897 35.3115 101.571C34.7595 101.285 34.283 100.966 33.8819 100.615C33.4764 100.266 33.1349 99.8742 32.8573 99.4407L34.0295 98.7283C34.1076 98.8678 34.2089 99.0083 34.3335 99.1499C34.4552 99.29 34.5937 99.4259 34.749 99.5578C34.9 99.691 35.0634 99.8179 35.2392 99.9384C35.4122 100.057 35.5897 100.164 35.7718 100.258C36.2111 100.486 36.6311 100.634 37.032 100.703C37.4313 100.774 37.8004 100.773 38.1393 100.699C38.4737 100.627 38.7735 100.487 39.0386 100.28C39.2993 100.074 39.5135 99.8092 39.6813 99.4855C39.8551 99.1503 39.951 98.8095 39.9692 98.4633C39.9873 98.117 39.9297 97.7791 39.7961 97.4496C39.6582 97.1215 39.4459 96.8097 39.159 96.5144C38.8677 96.2204 38.5024 95.9595 38.0631 95.7318C37.8637 95.6285 37.6583 95.5403 37.4468 95.4673C37.2353 95.3944 37.0258 95.3353 36.8182 95.29C36.6063 95.2462 36.3971 95.2147 36.1906 95.1957C35.9827 95.1796 35.7833 95.1752 35.5924 95.1826L35.4988 93.8141C35.9916 93.7689 36.5159 93.8042 37.0719 93.92C37.6263 94.0388 38.1766 94.2397 38.7228 94.5228C39.4193 94.8839 39.9841 95.2903 40.4172 95.7421C40.8488 96.1968 41.1593 96.6731 41.3486 97.1709C41.5364 97.6715 41.609 98.1821 41.5665 98.7028C41.5196 99.2247 41.368 99.7328 41.1119 100.227Z" fill="#7E7E7E"/>
<path d="M28.6672 97.5446L23.7347 93.3129L24.6185 92.2827L28.3763 95.5065L29.3683 94.3503L26.0404 91.4953L26.8702 90.528L30.1981 93.3831L31.5811 91.771L27.7455 88.4804L28.6261 87.4539L33.6365 91.7523L28.6672 97.5446Z" fill="#7E7E7E"/>
<path d="M14.9474 83.912L14.3252 82.8223L23.8741 77.3695L24.4963 78.4592L14.9474 83.912Z" fill="#7E7E7E"/>
<path d="M10.0595 70.248L9.40319 66.224C9.32302 65.7325 9.30633 65.2965 9.35314 64.9162C9.39621 64.5332 9.48965 64.2063 9.63348 63.9354C9.7773 63.6646 9.96668 63.4507 10.2016 63.2936C10.4328 63.1339 10.6946 63.0302 10.987 62.9825C11.4657 62.9044 11.9096 62.987 12.3187 63.2303C12.4677 62.8498 12.6922 62.5477 12.9921 62.3239C13.292 62.1002 13.6508 61.9543 14.0685 61.8862C14.4186 61.829 14.7448 61.8369 15.0469 61.9096C15.3485 61.9792 15.6201 62.1179 15.8618 62.3259C16.0998 62.5311 16.3033 62.808 16.4723 63.1564C16.6375 63.5021 16.7605 63.9224 16.8412 64.4172L17.5918 69.0194L10.0595 70.248ZM12.1988 65.1645C12.1773 65.0328 12.1611 64.9035 12.1503 64.7766C11.9096 64.5949 11.6575 64.5255 11.3941 64.5685C11.121 64.613 10.9281 64.755 10.8154 64.9943C10.699 65.231 10.6744 65.5549 10.7414 65.9662L11.1549 68.501L12.7018 68.2487L12.1988 65.1645ZM15.5048 64.5956C15.4377 64.1843 15.2985 63.8871 15.0873 63.7039C14.8754 63.5174 14.6089 63.4504 14.2876 63.5028C13.9663 63.5552 13.7333 63.7037 13.5885 63.9483C13.4432 64.1897 13.404 64.516 13.4711 64.9273L13.9789 68.0404L16.0126 67.7087L15.5048 64.5956Z" fill="#7E7E7E"/>
<path d="M8.5563 58.4532L9.00723 51.9698L10.3614 52.064L10.0178 57.0032L11.5376 57.1089L11.8418 52.7347L13.1132 52.8232L12.809 57.1974L14.9279 57.3447L15.2785 52.3032L16.6278 52.397L16.1697 58.9827L8.5563 58.4532Z" fill="#7E7E7E"/>
<path d="M14.7668 48.91C15.0008 48.6951 15.2219 48.4725 15.4301 48.2423C15.6362 48.008 15.8282 47.7589 16.0063 47.495C16.1813 47.2301 16.3422 46.9452 16.489 46.6404C16.6369 46.3324 16.7696 45.9973 16.8871 45.6351C17.0288 45.1985 17.1215 44.8179 17.1653 44.4933C17.2059 44.1677 17.2079 43.8928 17.1711 43.6687C17.1322 43.4405 17.0572 43.2604 16.946 43.1285C16.8358 42.9935 16.6987 42.8993 16.5346 42.8461C16.2714 42.7607 16.0283 42.8033 15.8052 42.9739C15.579 43.1435 15.3916 43.4574 15.2429 43.9156C15.1776 44.1169 15.1227 44.3335 15.0782 44.5655C15.0306 44.7964 14.9851 45.0315 14.9417 45.2707C14.8993 45.5067 14.8559 45.7408 14.8114 45.9727C14.7648 46.2006 14.7099 46.4121 14.6466 46.6071C14.5411 46.9322 14.3978 47.2314 14.2167 47.5046C14.0367 47.7747 13.8253 47.9987 13.5828 48.1767C13.3412 48.3515 13.073 48.4664 12.7779 48.5212C12.4829 48.5761 12.1682 48.5492 11.8338 48.4407C11.6357 48.3764 11.4476 48.2863 11.2696 48.1703C11.0927 48.0513 10.935 47.9043 10.7967 47.7294C10.6563 47.5503 10.5409 47.3418 10.4505 47.1037C10.357 46.8645 10.2977 46.5938 10.2727 46.2913C10.2486 45.9858 10.2624 45.648 10.314 45.278C10.3636 44.904 10.4612 44.4925 10.6069 44.0435C10.7124 43.7184 10.837 43.3978 10.9807 43.0816C11.1212 42.7645 11.2743 42.4616 11.4398 42.1731C11.6063 41.8815 11.7827 41.6068 11.969 41.349C12.1523 41.0902 12.3398 40.855 12.5317 40.6435L13.5111 41.6749C13.355 41.8501 13.2016 42.0433 13.0509 42.2545C12.8972 42.4647 12.7507 42.6893 12.6116 42.9282C12.4724 43.1671 12.3427 43.4193 12.2223 43.6848C12.0998 43.9462 11.9923 44.2193 11.8999 44.5042C11.7683 44.9098 11.6891 45.2537 11.6626 45.536C11.637 45.8152 11.6455 46.0473 11.6882 46.2322C11.7277 46.4162 11.7947 46.5577 11.8892 46.6568C11.9815 46.7518 12.0835 46.8174 12.1949 46.8536C12.4117 46.9239 12.6213 46.8842 12.824 46.7343C13.0235 46.5835 13.1881 46.3083 13.3177 45.9089C13.37 45.7479 13.4189 45.5602 13.4646 45.3457C13.5082 45.1271 13.5532 44.8987 13.5997 44.6606C13.6472 44.4193 13.6988 44.176 13.7545 43.9305C13.8081 43.681 13.8716 43.4432 13.9449 43.2172C14.0836 42.7899 14.2542 42.4277 14.4567 42.1307C14.6602 41.8305 14.8879 41.5981 15.1398 41.4335C15.3886 41.2678 15.6586 41.1689 15.9497 41.1367C16.2376 41.1036 16.538 41.1377 16.8507 41.2392C17.2687 41.3749 17.6101 41.5935 17.875 41.8951C18.1378 42.1926 18.324 42.5576 18.4334 42.9901C18.5408 43.4185 18.5714 43.9041 18.5253 44.447C18.4761 44.9889 18.351 45.5694 18.15 46.1887C18.0174 46.5974 17.8614 46.9882 17.6822 47.3613C17.506 47.7353 17.3132 48.0869 17.1038 48.4159C16.8922 48.7408 16.6687 49.0447 16.4331 49.3276C16.1955 49.6064 15.953 49.858 15.7056 50.0823L14.7668 48.91Z" fill="#7E7E7E"/>
<path d="M16.3976 34.2123L14.9027 36.6003L13.7521 35.8801L17.5632 29.7919L18.7138 30.5122L17.2189 32.9003L22.5372 36.2295L21.7159 37.5415L16.3976 34.2123Z" fill="#7E7E7E"/>
<path d="M25.0837 26.3337C24.7373 25.9147 24.4938 25.4593 24.3531 24.9674C24.2104 24.4729 24.1784 23.9693 24.257 23.4565C24.3362 22.9392 24.5282 22.4256 24.8332 21.9158C25.1407 21.4039 25.5679 20.9219 26.1148 20.4697C26.5939 20.0735 27.0734 19.7595 27.5532 19.5275C28.0334 19.2909 28.5273 19.1297 29.0349 19.0437L29.2322 20.4011C29.0733 20.4184 28.9044 20.4567 28.7254 20.5161C28.5488 20.5733 28.3695 20.6476 28.1875 20.739C28.0058 20.8259 27.8252 20.9267 27.6455 21.0414C27.4683 21.1541 27.3007 21.2758 27.1427 21.4065C26.7614 21.7217 26.4608 22.0505 26.2411 22.3926C26.0193 22.7323 25.8761 23.0725 25.8114 23.4132C25.7472 23.7493 25.7586 24.0798 25.8457 24.4048C25.9333 24.7253 26.0932 25.026 26.3255 25.307C26.5661 25.598 26.8422 25.8195 27.1538 25.9716C27.4654 26.1237 27.7989 26.2027 28.1544 26.2087C28.5104 26.21 28.8803 26.1364 29.2644 25.9879C29.6488 25.8347 30.0317 25.6005 30.413 25.2852C30.5862 25.1421 30.7476 24.9875 30.8975 24.8214C31.0473 24.6552 31.1837 24.4855 31.3064 24.3122C31.4297 24.1342 31.5404 23.954 31.6386 23.7714C31.7348 23.5863 31.8168 23.4045 31.8846 23.2259L33.1807 23.6748C33.0297 24.1461 32.7922 24.6149 32.4682 25.0813C32.1421 25.5451 31.742 25.9731 31.2679 26.3651C30.6633 26.865 30.0684 27.2259 29.4832 27.4479C28.8959 27.6674 28.3362 27.7669 27.804 27.7465C27.2698 27.7236 26.7714 27.5908 26.3089 27.3481C25.8468 27.1008 25.4384 26.7627 25.0837 26.3337Z" fill="#7E7E7E"/>
<path d="M32.3907 15.81L33.7928 15.1543L34.6367 16.959L38.936 14.9485L38.0921 13.1439L39.4986 12.4862L42.7314 19.3995L41.3249 20.0572L39.4965 16.1472L35.1972 18.1576L37.0256 22.0676L35.6235 22.7233L32.3907 15.81Z" fill="#7E7E7E"/>
<path d="M44.6096 14.4789C44.5125 13.9109 44.5279 13.3733 44.6558 12.866C44.7837 12.3586 45.0065 11.9044 45.3244 11.5033C45.6448 11.0985 46.0523 10.758 46.5466 10.4819C47.0443 10.2053 47.6139 10.0121 48.2557 9.90242C48.8942 9.79325 49.4941 9.78645 50.0553 9.88203C50.6165 9.9776 51.114 10.1634 51.5475 10.4393C51.9837 10.7115 52.3465 11.0655 52.6357 11.5016C52.9249 11.9376 53.118 12.4395 53.2151 13.0075C53.3128 13.5786 53.2982 14.121 53.1714 14.6348C53.044 15.1453 52.8204 15.6046 52.5005 16.0127C52.1838 16.4202 51.7772 16.7655 51.2806 17.0485C50.7836 17.3284 50.2158 17.5229 49.5773 17.632C48.9356 17.7418 48.3338 17.7472 47.772 17.6485C47.2129 17.5459 46.7146 17.3553 46.2773 17.0768C45.8432 16.7976 45.4813 16.4384 45.1915 15.9992C44.9012 15.5568 44.7072 15.05 44.6096 14.4789ZM46.1353 14.218C46.2017 14.6062 46.3304 14.9442 46.5216 15.2318C46.716 15.5189 46.9557 15.7521 47.2406 15.9312C47.5282 16.1066 47.8506 16.2249 48.2078 16.286C48.5682 16.3465 48.9473 16.3428 49.3452 16.2748C49.7431 16.2068 50.1003 16.0846 50.4169 15.9083C50.7368 15.7314 51.0015 15.5127 51.2113 15.2523C51.4205 14.9887 51.5691 14.6891 51.6571 14.3538C51.745 14.0184 51.7558 13.6566 51.6894 13.2683C51.623 12.8801 51.4929 12.544 51.2991 12.2601C51.1052 11.9762 50.8667 11.7495 50.5834 11.58C50.2996 11.4073 49.978 11.2938 49.6187 11.2397C49.2626 11.185 48.8856 11.1916 48.4877 11.2597C48.0898 11.3277 47.7305 11.4469 47.4095 11.6174C47.0918 11.7873 46.8262 12.0012 46.6127 12.2589C46.4018 12.5129 46.2522 12.806 46.1637 13.1382C46.0783 13.4698 46.0689 13.8298 46.1353 14.218Z" fill="#7E7E7E"/>
<path d="M56.814 9.11007L58.3713 9.14013L58.224 16.7705L56.6667 16.7405L56.814 9.11007Z" fill="#7E7E7E"/>
<path d="M61.5378 12.806C61.6437 12.2728 61.8429 11.7963 62.1354 11.3765C62.4285 10.9535 62.7987 10.6105 63.2459 10.3476C63.6969 10.0821 64.2163 9.90649 64.8042 9.82083C65.3952 9.7358 66.0388 9.76243 66.7348 9.90071C67.3446 10.0219 67.891 10.1951 68.3739 10.4205C68.8606 10.6433 69.2977 10.9243 69.685 11.2634L68.7574 12.2739C68.6436 12.1617 68.5072 12.055 68.3481 11.9537C68.1922 11.853 68.0213 11.761 67.8354 11.6776C67.6534 11.5916 67.4611 11.5152 67.2587 11.4485C67.0594 11.3823 66.8592 11.3293 66.658 11.2893C66.1727 11.1929 65.7281 11.1676 65.324 11.2135C64.9206 11.2561 64.5664 11.36 64.2615 11.5251C63.9604 11.6876 63.7113 11.9053 63.5144 12.1782C63.3213 12.4485 63.1893 12.7624 63.1182 13.12C63.0446 13.4904 63.0473 13.8444 63.1263 14.182C63.2052 14.5196 63.3547 14.8281 63.5747 15.1074C63.7985 15.3842 64.0892 15.6245 64.447 15.8283C64.8086 16.0296 65.232 16.1784 65.7174 16.2748C65.9377 16.3186 66.1595 16.3461 66.383 16.3573C66.6064 16.3685 66.8241 16.3669 67.0361 16.3526C67.2518 16.3358 67.4615 16.3077 67.6651 16.2685C67.8693 16.2261 68.0621 16.1748 68.2433 16.1146L68.7142 17.4029C68.2535 17.5835 67.74 17.6956 67.1738 17.7391C66.6083 17.7794 66.0237 17.7396 65.4203 17.6197C64.6508 17.4668 63.9952 17.2337 63.4535 16.9203C62.9123 16.6037 62.4816 16.2327 62.1612 15.8073C61.8414 15.3787 61.6295 14.9085 61.5255 14.3966C61.4252 13.8822 61.4293 13.352 61.5378 12.806Z" fill="#7E7E7E"/>
<path d="M74.2766 11.9023L80.184 14.6114L79.6182 15.8453L75.1177 13.7814L74.4827 15.1662L78.4683 16.9939L77.9371 18.1524L73.9514 16.3246L73.066 18.2553L77.6598 20.3619L77.096 21.5913L71.0953 18.8395L74.2766 11.9023Z" fill="#7E7E7E"/>
<path d="M91.1606 21.1262L92.0607 22.0005L84.3991 29.8881L83.499 29.0138L91.1606 21.1262Z" fill="#7E7E7E"/>
<path d="M99.7503 32.9806L101.505 36.6609C101.719 37.1105 101.857 37.5244 101.918 37.9027C101.984 38.2825 101.986 38.6225 101.923 38.9227C101.861 39.2229 101.739 39.4813 101.557 39.6977C101.379 39.9157 101.157 40.0884 100.89 40.2159C100.452 40.4246 100.003 40.4693 99.5418 40.35C99.5051 40.757 99.3739 41.1098 99.1485 41.4084C98.923 41.707 98.6192 41.9474 98.2372 42.1295C97.917 42.2822 97.6016 42.3658 97.2912 42.3803C96.9822 42.3978 96.6826 42.3405 96.3924 42.2084C96.1066 42.0778 95.8339 41.8688 95.5743 41.5814C95.319 41.2956 95.0835 40.9265 94.8678 40.4739L92.8612 36.2647L99.7503 32.9806ZM99.1166 38.4593C99.174 38.5798 99.2256 38.6995 99.2714 38.8183C99.5533 38.9255 99.8148 38.9217 100.056 38.8068C100.305 38.6877 100.451 38.4975 100.492 38.2362C100.538 37.9765 100.471 37.6585 100.292 37.2824L99.1867 34.964L97.7718 35.6385L99.1166 38.4593ZM96.1011 39.9293C96.2804 40.3054 96.4971 40.5519 96.7512 40.6688C97.0066 40.7886 97.2813 40.7785 97.5751 40.6384C97.869 40.4983 98.0512 40.2907 98.1219 40.0153C98.194 39.743 98.1404 39.4187 97.9611 39.0426L96.6038 36.1953L94.7438 37.082L96.1011 39.9293Z" fill="#7E7E7E"/>
<path d="M104.476 43.8401L105.839 50.1945L104.512 50.4793L103.473 45.6383L101.984 45.958L102.904 50.2451L101.658 50.5125L100.738 46.2254L98.661 46.671L99.7213 51.6122L98.3989 51.896L97.0138 45.4414L104.476 43.8401Z" fill="#7E7E7E"/>
</svg>
