<svg width="244" height="244" viewBox="0 0 244 244" fill="none" xmlns="http://www.w3.org/2000/svg">
<path d="M39.6169 90.5077L38.2439 93.9032L36.6079 93.2417L40.1082 84.5852L41.7442 85.2467L40.3712 88.6422L47.9331 91.6999L47.1788 93.5653L39.6169 90.5077Z" fill="#7E7E7E"/>
<path d="M41.8259 80.9182L44.3771 76.5642C44.7622 75.907 45.1653 75.3781 45.5864 74.9774C46.0039 74.5746 46.4353 74.2903 46.8807 74.1246C47.326 73.9588 47.7799 73.9083 48.2421 73.9732C48.7065 74.0344 49.1742 74.203 49.6452 74.479C49.9629 74.6651 50.2435 74.881 50.487 75.1267C50.7269 75.3702 50.9202 75.6429 51.0671 75.9448C51.2161 76.243 51.3149 76.5682 51.3636 76.9204C51.4086 77.2705 51.3979 77.6444 51.3317 78.0421L55.1611 77.7845L53.916 79.9095L50.5409 80.0948L50.512 80.1441L48.9662 82.7698L51.4034 84.1978L50.3861 85.9339L41.8259 80.9182ZM49.0252 79.2288C49.2177 78.9002 49.3473 78.5911 49.414 78.3015C49.4828 78.0083 49.4959 77.7389 49.4535 77.4933C49.4131 77.2441 49.3179 77.0215 49.1678 76.8257C49.0162 76.624 48.8181 76.4516 48.5734 76.3082C48.0951 76.028 47.6301 75.9762 47.1783 76.1529C46.7229 76.3275 46.3016 76.7452 45.9144 77.4061L44.3548 80.0678L47.4656 81.8905L49.0252 79.2288Z" fill="#7E7E7E"/>
<path d="M56.8794 71.3758L48.3505 70.0422L49.7857 68.2721L56.0919 69.4544L53.6075 63.5584L55.0426 61.7883L58.1368 69.8048L60.0548 71.3599L58.7875 72.9229L56.8794 71.3758Z" fill="#7E7E7E"/>
<path d="M60.9686 55.8261L67.7958 50.157L68.9231 51.5146L63.644 55.8982L65.3026 57.8955L69.7856 54.1729L70.844 55.4475L66.361 59.1701L68.8549 62.1735L67.3068 63.459L60.9686 55.8261Z" fill="#7E7E7E"/>
<path d="M71.1115 47.7365L75.4313 45.1278C76.0834 44.7341 76.69 44.4616 77.2513 44.3105C77.8105 44.1558 78.3252 44.1119 78.7957 44.1787C79.2662 44.2456 79.6891 44.4179 80.0643 44.6955C80.4432 44.9709 80.7738 45.3423 81.056 45.8096C81.2463 46.1247 81.3899 46.4483 81.4866 46.7805C81.5812 47.109 81.6209 47.4409 81.6059 47.7762C81.5945 48.1094 81.5262 48.4423 81.4009 48.7751C81.2733 49.1042 81.0856 49.4277 80.8375 49.7455L84.3257 51.3467L82.2174 52.6199L79.163 51.1721L79.1141 51.2016L76.5026 52.7712L77.9628 55.1892L76.2403 56.2294L71.1115 47.7365ZM78.2443 49.6876C78.5703 49.4907 78.8317 49.281 79.0285 49.0583C79.2289 48.8335 79.369 48.6031 79.4489 48.367C79.5324 48.1287 79.5549 47.8877 79.5165 47.6439C79.4795 47.3944 79.3877 47.1482 79.2411 46.9055C78.9546 46.431 78.5706 46.1636 78.0893 46.1033C77.6057 46.0393 77.0361 46.2053 76.3805 46.6013L73.7397 48.196L75.6035 51.2824L78.2443 49.6876Z" fill="#7E7E7E"/>
<path d="M83.0436 40.8913L90.8323 37.6177L91.516 39.2444L85.5823 41.7385L86.3497 43.5642L91.6046 41.3555L92.2466 42.8828L86.9917 45.0915L88.0616 47.637L94.1182 45.0914L94.7995 46.7123L86.8879 50.0377L83.0436 40.8913Z" fill="#7E7E7E"/>
<path d="M95.0084 36.1664L103.183 34.0311L103.629 35.7384L97.4013 37.3652L97.9019 39.2814L103.417 37.8407L103.836 39.4436L98.3206 40.8843L99.0185 43.5559L105.375 41.8954L105.819 43.5966L97.516 45.7657L95.0084 36.1664Z" fill="#7E7E7E"/>
<path d="M112.451 32.4987L116.084 32.3109C117.144 32.2561 118.072 32.3226 118.865 32.5103C119.659 32.6981 120.322 32.9922 120.856 33.3926C121.393 33.7886 121.802 34.2844 122.083 34.8801C122.368 35.4713 122.53 36.1451 122.569 36.9016C122.606 37.6201 122.516 38.2921 122.298 38.9178C122.081 39.5393 121.727 40.0872 121.239 40.5616C120.751 41.0318 120.122 41.4139 119.354 41.7078C118.585 41.9976 117.67 42.1699 116.609 42.2248L112.964 42.4069L112.451 32.4987ZM117.001 40.4566C117.601 40.4255 118.123 40.3223 118.567 40.1468C119.011 39.967 119.376 39.7278 119.662 39.4291C119.951 39.1303 120.162 38.7761 120.293 38.3668C120.425 37.9574 120.477 37.5055 120.452 37.0111C120.427 36.5251 120.328 36.0916 120.156 35.7107C119.983 35.3255 119.738 35.0056 119.42 34.7508C119.105 34.4916 118.718 34.2998 118.259 34.1752C117.799 34.0507 117.269 34.0039 116.669 34.035L114.551 34.1444L114.883 40.566L117.001 40.4566Z" fill="#7E7E7E"/>
<path d="M126.276 32.1109L134.683 32.9511L134.508 34.707L128.103 34.0669L127.906 36.0375L133.578 36.6044L133.413 38.2529L127.741 37.6861L127.467 40.4336L134.004 41.087L133.829 42.8366L125.29 41.9831L126.276 32.1109Z" fill="#7E7E7E"/>
<path d="M139.125 33.595L141.071 34.1063L143.639 38.5219L148.046 35.9388L149.992 36.4501L147.47 46.0458L145.524 45.5345L147.337 38.6339L142.968 41.0759L140.363 36.8015L138.55 43.702L136.604 43.1907L139.125 33.595Z" fill="#7E7E7E"/>
<path d="M152.024 42.3266C152.337 41.6459 152.748 41.0803 153.257 40.6298C153.767 40.1792 154.339 39.8553 154.975 39.6581C155.616 39.4589 156.303 39.3925 157.036 39.459C157.773 39.5273 158.526 39.7381 159.295 40.0912C160.06 40.4426 160.709 40.8755 161.241 41.3899C161.773 41.9043 162.171 42.4687 162.433 43.0829C162.702 43.6951 162.831 44.3412 162.822 45.0213C162.812 45.7014 162.651 46.3818 162.338 47.0625C162.024 47.7471 161.61 48.3185 161.097 48.7767C160.586 49.2311 160.009 49.5599 159.366 49.763C158.727 49.9679 158.038 50.04 157.297 49.9794C156.558 49.915 155.806 49.707 155.041 49.3556C154.272 49.0025 153.622 48.5668 153.092 48.0485C152.567 47.5282 152.172 46.9581 151.907 46.3382C151.646 45.7201 151.522 45.0691 151.533 44.3851C151.546 43.6974 151.71 43.0112 152.024 42.3266ZM153.853 43.1663C153.639 43.6316 153.529 44.0888 153.523 44.5377C153.521 44.9885 153.607 45.4145 153.782 45.8158C153.962 46.2151 154.221 46.5785 154.559 46.9062C154.902 47.2357 155.311 47.5099 155.788 47.7289C156.265 47.9478 156.738 48.0789 157.207 48.122C157.68 48.1669 158.125 48.1265 158.541 48.001C158.959 47.8716 159.338 47.6592 159.679 47.3639C160.019 47.0686 160.296 46.6882 160.51 46.2229C160.723 45.7576 160.83 45.3014 160.831 44.8546C160.831 44.4077 160.741 43.9893 160.562 43.5995C160.384 43.2059 160.122 42.8482 159.776 42.5264C159.434 42.2064 159.025 41.9369 158.548 41.718C158.071 41.499 157.598 41.3632 157.128 41.3107C156.663 41.2599 156.221 41.2944 155.803 41.4144C155.39 41.5322 155.014 41.7369 154.676 42.0284C154.341 42.3216 154.066 42.7009 153.853 43.1663Z" fill="#7E7E7E"/>
<path d="M176.602 48.9327L177.896 49.9265L169.188 61.2631L167.894 60.2693L176.602 48.9327Z" fill="#7E7E7E"/>
<path d="M188.407 64.0337L186.046 61.2332L187.396 60.096L193.414 67.2356L192.064 68.3728L189.704 65.5723L183.467 70.8291L182.17 69.2906L188.407 64.0337Z" fill="#7E7E7E"/>
<path d="M195.899 70.5711L198.555 74.8621C198.956 75.5098 199.235 76.1135 199.392 76.6731C199.553 77.2305 199.602 77.7448 199.54 78.216C199.479 78.6871 199.311 79.1119 199.038 79.4902C198.766 79.872 198.399 80.2066 197.934 80.4939C197.621 80.6877 197.299 80.8347 196.968 80.9351C196.641 81.0332 196.309 81.0766 195.974 81.0653C195.641 81.0575 195.307 80.9928 194.973 80.8711C194.642 80.7472 194.317 80.563 193.996 80.3184L192.433 83.8239L191.137 81.7296L192.552 78.6595L192.521 78.6109L190.923 76.0168L188.521 77.5033L187.463 75.7923L195.899 70.5711ZM194.026 77.7247C194.226 78.0485 194.439 78.3076 194.664 78.502C194.891 78.6999 195.123 78.8375 195.36 78.9148C195.599 78.9957 195.84 79.0156 196.083 78.9745C196.332 78.9348 196.578 78.8403 196.819 78.6911C197.29 78.3994 197.553 78.0125 197.608 77.5306C197.667 77.0464 197.495 76.4786 197.092 75.8273L195.468 73.2041L192.402 75.1015L194.026 77.7247Z" fill="#7E7E7E"/>
<path d="M197.235 88.2341L202.387 81.3072L203.285 83.4015L199.302 88.4319L205.677 88.9785L206.575 91.0728L198.04 90.0783L195.771 91.0516L194.978 89.2024L197.235 88.2341Z" fill="#7E7E7E"/>
<path d="M209.113 99.1418L210.944 107.825L209.217 108.189L207.802 101.475L205.261 102.01L206.463 107.712L204.842 108.054L203.64 102.352L199.82 103.157L199.405 101.188L209.113 99.1418Z" fill="#7E7E7E"/>
<path d="M211.534 111.765L211.832 116.803C211.877 117.563 211.836 118.227 211.708 118.794C211.585 119.361 211.384 119.837 211.106 120.222C210.828 120.607 210.479 120.902 210.058 121.104C209.638 121.312 209.156 121.431 208.611 121.464C208.243 121.485 207.89 121.462 207.551 121.393C207.216 121.324 206.904 121.204 206.614 121.035C206.324 120.87 206.062 120.654 205.825 120.389C205.593 120.123 205.395 119.806 205.229 119.438L202.188 121.78L202.042 119.322L204.745 117.292L204.742 117.235L204.568 114.193L201.749 114.36L201.63 112.352L211.534 111.765ZM206.487 117.17C206.509 117.55 206.573 117.879 206.679 118.157C206.785 118.439 206.923 118.67 207.095 118.851C207.267 119.036 207.47 119.168 207.704 119.247C207.942 119.331 208.202 119.364 208.485 119.347C209.039 119.314 209.454 119.099 209.732 118.701C210.013 118.303 210.131 117.722 210.086 116.957L209.904 113.877L206.305 114.09L206.487 117.17Z" fill="#7E7E7E"/>
<path d="M212.046 125.411L211.302 133.827L209.544 133.672L210.111 127.26L208.138 127.086L207.636 132.764L205.986 132.618L206.488 126.94L203.737 126.697L203.159 133.241L201.407 133.086L202.163 124.537L212.046 125.411Z" fill="#7E7E7E"/>
<path d="M210.62 138.368L208.663 146.587L206.946 146.178L208.437 139.916L206.511 139.458L205.19 145.003L203.578 144.619L204.899 139.074L202.213 138.434L200.691 144.825L198.98 144.418L200.969 136.069L210.62 138.368Z" fill="#7E7E7E"/>
<path d="M205.602 155.766L204.059 159.059C203.609 160.021 203.114 160.808 202.575 161.42C202.036 162.032 201.464 162.479 200.86 162.762C200.257 163.05 199.627 163.177 198.97 163.145C198.314 163.118 197.643 162.944 196.957 162.623C196.306 162.317 195.755 161.922 195.305 161.435C194.86 160.951 194.542 160.381 194.353 159.727C194.168 159.075 194.127 158.341 194.229 157.524C194.335 156.709 194.613 155.821 195.064 154.859L196.618 151.557L205.602 155.766ZM196.44 156.036C196.185 156.581 196.03 157.09 195.976 157.565C195.926 158.041 195.965 158.476 196.095 158.868C196.222 159.264 196.436 159.616 196.735 159.925C197.034 160.233 197.408 160.493 197.857 160.703C198.297 160.909 198.726 161.026 199.143 161.053C199.565 161.082 199.962 161.016 200.337 160.855C200.713 160.7 201.065 160.449 201.391 160.101C201.717 159.754 202.008 159.309 202.263 158.764L203.162 156.845L197.339 154.117L196.44 156.036Z" fill="#7E7E7E"/>
<path d="M199.477 168.137L194.797 175.171L193.328 174.194L196.893 168.835L195.244 167.738L192.087 172.484L190.707 171.566L193.865 166.82L191.566 165.291L187.927 170.76L186.463 169.787L191.216 162.641L199.477 168.137Z" fill="#7E7E7E"/>
<path d="M192.361 178.572L190.997 180.051L185.893 180.25L186.11 185.353L184.746 186.832L177.451 180.108L178.815 178.628L184.061 183.464L183.952 178.46L188.949 178.162L183.703 173.326L185.067 171.847L192.361 178.572Z" fill="#7E7E7E"/>
<path d="M178.604 185.908C179.059 186.503 179.366 187.131 179.525 187.792C179.684 188.453 179.702 189.111 179.579 189.765C179.454 190.424 179.191 191.062 178.789 191.679C178.383 192.298 177.844 192.864 177.172 193.378C176.503 193.89 175.816 194.26 175.112 194.489C174.409 194.718 173.724 194.805 173.058 194.749C172.391 194.699 171.76 194.511 171.164 194.184C170.567 193.857 170.042 193.396 169.587 192.801C169.129 192.202 168.818 191.569 168.654 190.901C168.492 190.236 168.472 189.572 168.594 188.909C168.712 188.249 168.972 187.606 169.372 186.98C169.775 186.358 170.311 185.791 170.98 185.279C171.653 184.765 172.342 184.396 173.049 184.17C173.754 183.95 174.443 183.868 175.114 183.925C175.783 183.984 176.416 184.179 177.015 184.509C177.617 184.843 178.146 185.309 178.604 185.908ZM177.005 187.13C176.694 186.723 176.342 186.412 175.948 186.196C175.551 185.983 175.134 185.86 174.698 185.825C174.261 185.797 173.818 185.856 173.37 186.001C172.919 186.149 172.484 186.383 172.068 186.702C171.651 187.02 171.313 187.377 171.055 187.771C170.794 188.168 170.621 188.579 170.537 189.006C170.456 189.436 170.466 189.87 170.567 190.309C170.668 190.749 170.875 191.172 171.185 191.578C171.496 191.985 171.849 192.293 172.244 192.503C172.639 192.713 173.05 192.83 173.479 192.854C173.91 192.881 174.348 192.817 174.795 192.663C175.238 192.51 175.668 192.275 176.084 191.956C176.501 191.638 176.843 191.283 177.109 190.893C177.372 190.506 177.549 190.099 177.639 189.673C177.728 189.253 177.724 188.826 177.625 188.39C177.523 187.957 177.316 187.537 177.005 187.13Z" fill="#7E7E7E"/>
<path d="M161.508 204.438L160.026 205.119L154.059 192.129L155.541 191.448L161.508 204.438Z" fill="#7E7E7E"/>
<path d="M142.914 207.857L146.49 207.062L146.873 208.785L137.758 210.811L137.375 209.089L140.95 208.294L139.18 200.332L141.144 199.895L142.914 207.857Z" fill="#7E7E7E"/>
<path d="M133.677 211.529L128.643 211.883C127.883 211.937 127.219 211.903 126.651 211.782C126.082 211.665 125.604 211.47 125.216 211.196C124.827 210.922 124.529 210.576 124.322 210.158C124.11 209.74 123.985 209.259 123.946 208.715C123.92 208.347 123.94 207.994 124.005 207.654C124.071 207.319 124.186 207.005 124.352 206.713C124.514 206.422 124.727 206.157 124.99 205.918C125.253 205.683 125.568 205.48 125.934 205.31L123.557 202.296L126.014 202.123L128.074 204.803L128.131 204.799L131.171 204.591L130.972 201.773L132.979 201.632L133.677 211.529ZM128.216 206.543C127.836 206.57 127.508 206.637 127.231 206.746C126.95 206.855 126.721 206.996 126.542 207.17C126.359 207.344 126.229 207.548 126.152 207.783C126.072 208.022 126.041 208.283 126.061 208.566C126.1 209.119 126.32 209.532 126.721 209.804C127.123 210.082 127.705 210.193 128.469 210.139L131.547 209.922L131.293 206.326L128.216 206.543Z" fill="#7E7E7E"/>
<path d="M117.183 204.542L120.904 212.331L118.632 212.148L116.043 206.277L112.584 211.659L110.312 211.476L115.177 204.392L115.375 201.931L117.381 202.093L117.183 204.542Z" fill="#7E7E7E"/>
<path d="M102.28 210.067L93.7424 207.647L94.2236 205.949L100.825 207.82L101.533 205.323L95.9271 203.733L96.3789 202.139L101.985 203.729L103.05 199.973L104.986 200.522L102.28 210.067Z" fill="#7E7E7E"/>
<path d="M89.5836 206.245L84.9895 204.157C84.296 203.842 83.7283 203.495 83.2863 203.118C82.8426 202.744 82.5153 202.344 82.3044 201.919C82.0936 201.493 81.9966 201.047 82.0134 200.58C82.0263 200.112 82.1457 199.629 82.3716 199.132C82.5239 198.797 82.7097 198.496 82.929 198.228C83.1464 197.964 83.3977 197.744 83.6828 197.567C83.964 197.388 84.2773 197.256 84.6226 197.171C84.9662 197.09 85.3392 197.062 85.7416 197.087L85.09 193.305L87.3322 194.324L87.865 197.662L87.917 197.685L90.6882 198.952L91.857 196.38L93.6889 197.213L89.5836 206.245ZM87.16 199.259C86.8133 199.101 86.4925 199.004 86.1976 198.968C85.8989 198.93 85.6296 198.944 85.3896 199.012C85.1459 199.078 84.9344 199.195 84.7551 199.365C84.5701 199.537 84.419 199.751 84.3017 200.009C84.0723 200.514 84.0688 200.982 84.2912 201.413C84.5119 201.848 84.9709 202.224 85.6682 202.541L88.4767 203.818L89.9685 200.535L87.16 199.259Z" fill="#7E7E7E"/>
<path d="M77.0667 200.267L69.9796 195.667L70.9403 194.187L76.3395 197.691L77.4176 196.03L72.6361 192.927L73.538 191.537L78.3195 194.64L79.8227 192.324L74.3117 188.747L75.2689 187.272L82.4678 191.944L77.0667 200.267Z" fill="#7E7E7E"/>
<path d="M66.0077 192.757L59.6694 187.17L60.8362 185.846L65.6649 190.102L66.9744 188.616L62.6981 184.847L63.7935 183.605L68.0698 187.374L69.8956 185.302L64.9669 180.958L66.1295 179.639L72.5678 185.313L66.0077 192.757Z" fill="#7E7E7E"/>
<path d="M53.2429 180.428L51.0551 177.522C50.4162 176.674 49.9526 175.868 49.6643 175.105C49.3759 174.342 49.2485 173.628 49.282 172.962C49.3095 172.295 49.4916 171.678 49.8282 171.112C50.1589 170.545 50.6269 170.034 51.232 169.578C51.8067 169.146 52.4143 168.845 53.0546 168.675C53.6916 168.508 54.3433 168.494 55.0096 168.633C55.6726 168.775 56.341 169.082 57.0147 169.555C57.685 170.03 58.3397 170.692 58.9785 171.541L61.1689 174.46L53.2429 180.428ZM57.2938 172.205C56.9324 171.725 56.5547 171.35 56.1606 171.08C55.7632 170.812 55.3608 170.644 54.9536 170.574C54.5438 170.502 54.1325 170.525 53.7197 170.645C53.3069 170.765 52.9028 170.974 52.5072 171.272C52.1185 171.565 51.8144 171.889 51.595 172.245C51.3722 172.604 51.2443 172.986 51.2112 173.392C51.1722 173.798 51.2297 174.226 51.3837 174.677C51.5377 175.127 51.7955 175.593 52.1569 176.073L53.4321 177.767L58.5691 173.899L57.2938 172.205Z" fill="#7E7E7E"/>
<path d="M45.3107 169.456L41.2628 162.04L42.8117 161.194L45.8955 166.844L47.6339 165.895L44.9028 160.892L46.357 160.098L49.0881 165.101L51.5118 163.778L48.364 158.012L49.9074 157.169L54.0192 164.702L45.3107 169.456Z" fill="#7E7E7E"/>
<path d="M39.1439 157.763L38.4735 155.866L40.6839 151.261L36.0713 149.067L35.401 147.169L44.7556 143.864L45.426 145.761L38.6988 148.138L43.1737 150.381L41.101 154.937L47.8282 152.56L48.4985 154.458L39.1439 157.763Z" fill="#7E7E7E"/>
<path d="M39.2081 142.651C38.4699 142.778 37.771 142.759 37.1112 142.594C36.4514 142.429 35.8605 142.14 35.3385 141.728C34.8116 141.312 34.3682 140.783 34.0084 140.141C33.6478 139.494 33.3956 138.754 33.2517 137.92C33.1086 137.09 33.0986 136.31 33.2218 135.58C33.345 134.851 33.5855 134.204 33.9434 133.64C34.2964 133.072 34.756 132.6 35.3223 132.223C35.8886 131.846 36.5407 131.594 37.2789 131.467C38.0212 131.339 38.7264 131.357 39.3945 131.52C40.0584 131.685 40.6559 131.975 41.187 132.39C41.7174 132.801 42.167 133.329 42.5359 133.974C42.9007 134.62 43.1546 135.357 43.2977 136.187C43.4416 137.021 43.4498 137.803 43.3225 138.534C43.1902 139.261 42.9435 139.909 42.5821 140.478C42.2201 141.043 41.7538 141.514 41.1834 141.892C40.6088 142.27 39.9503 142.523 39.2081 142.651ZM38.866 140.668C39.3706 140.581 39.8097 140.413 40.1833 140.164C40.5561 139.911 40.8587 139.599 41.0911 139.228C41.3186 138.854 41.4717 138.435 41.5505 137.97C41.6285 137.501 41.6229 137.009 41.5337 136.491C41.4445 135.974 41.285 135.51 41.0552 135.099C40.8247 134.683 40.5399 134.34 40.201 134.067C39.8578 133.796 39.4682 133.603 39.032 133.49C38.5959 133.376 38.1255 133.363 37.6209 133.45C37.1163 133.537 36.6797 133.706 36.311 133.959C35.9423 134.212 35.648 134.522 35.4282 134.891C35.2042 135.26 35.0573 135.678 34.9876 136.145C34.9172 136.609 34.9265 137.099 35.0157 137.616C35.1049 138.133 35.2606 138.6 35.4828 139.017C35.7043 139.429 35.9828 139.774 36.3183 140.051C36.6489 140.325 37.0302 140.519 37.4622 140.633C37.8935 140.744 38.3614 140.755 38.866 140.668Z" fill="#7E7E7E"/>
<path d="M30.7216 118.78L30.8096 117.151L45.0837 117.923L44.9957 119.551L30.7216 118.78Z" fill="#7E7E7E"/>
</svg>
