<svg width="537" height="538" viewBox="0 0 537 538" fill="none" xmlns="http://www.w3.org/2000/svg">
<path d="M28.0814 264.715L27.8272 268.368L26.0669 268.246L26.7147 258.931L28.4751 259.053L28.221 262.707L36.3581 263.273L36.2185 265.28L28.0814 264.715Z" fill="black"/>
<path d="M28.6271 233.522L29.7047 228.592C29.8674 227.848 30.0869 227.22 30.3633 226.709C30.6355 226.197 30.9577 225.793 31.3299 225.497C31.702 225.202 32.1179 225.013 32.5775 224.932C33.0381 224.846 33.535 224.862 34.0683 224.978C34.428 225.057 34.7616 225.175 35.0693 225.334C35.3727 225.491 35.641 225.69 35.8741 225.932C36.1081 226.169 36.3028 226.448 36.4581 226.768C36.6093 227.087 36.715 227.445 36.7751 227.844L40.3366 226.413L39.8107 228.82L36.6588 230.041L36.6466 230.097L35.9898 233.072L38.7494 233.675L38.3197 235.641L28.6271 233.522ZM34.9494 229.687C35.0308 229.315 35.0583 228.981 35.032 228.685C35.0066 228.385 34.9357 228.124 34.8193 227.904C34.7038 227.679 34.5443 227.497 34.341 227.358C34.1344 227.213 33.8926 227.11 33.6156 227.05C33.074 226.931 32.6158 227.026 32.2409 227.334C31.862 227.641 31.5907 228.168 31.4271 228.917L30.7684 231.931L34.2907 232.7L34.9494 229.687Z" fill="black"/>
<path d="M45.1303 196.721L36.6076 198.094L37.4242 195.966L43.7866 195.138L39.5986 190.301L40.4151 188.173L45.8394 194.838L48.1447 195.723L47.4237 197.601L45.1303 196.721Z" fill="black"/>
<path d="M55.7189 153.037L60.4551 145.533L61.9474 146.475L58.2852 152.277L60.4807 153.663L63.5907 148.735L64.9917 149.619L61.8817 154.547L65.183 156.631L64.1091 158.332L55.7189 153.037Z" fill="black"/>
<path d="M74.5162 123.697L77.8159 119.878C78.314 119.302 78.8065 118.855 79.2934 118.538C79.7771 118.218 80.253 118.016 80.7211 117.934C81.1891 117.852 81.6446 117.885 82.0874 118.033C82.5329 118.177 82.9622 118.428 83.3752 118.785C83.6538 119.026 83.8905 119.289 84.0853 119.575C84.2769 119.858 84.4175 120.161 84.5071 120.485C84.5994 120.805 84.6375 121.143 84.6214 121.498C84.602 121.85 84.5237 122.216 84.3863 122.595L88.1988 123.038L86.5883 124.901L83.2357 124.47L83.1983 124.513L81.2012 126.814L83.3384 128.662L82.0226 130.184L74.5162 123.697ZM81.9025 123.343C82.1516 123.055 82.3352 122.775 82.4533 122.502C82.5742 122.226 82.6361 121.964 82.639 121.714C82.6446 121.462 82.5914 121.226 82.4794 121.006C82.3669 120.78 82.2034 120.575 81.9889 120.389C81.5695 120.027 81.1216 119.891 80.6452 119.983C80.1657 120.072 79.6755 120.406 79.1746 120.986L77.1574 123.32L79.8853 125.677L81.9025 123.343Z" fill="black"/>
<path d="M99.0517 95.9167L105.444 90.3922L106.598 91.7273L101.728 95.9361L103.023 97.4345L107.336 93.7072L108.419 94.9607L104.106 98.688L105.912 100.777L110.882 96.4812L112.032 97.8115L105.539 103.423L99.0517 95.9167Z" fill="black"/>
<path d="M125.446 73.543L132.558 68.9815L133.511 70.4668L128.093 73.942L129.162 75.609L133.96 72.5314L134.855 73.9259L130.057 77.0035L131.547 79.3277L137.077 75.7806L138.027 77.2606L130.803 81.8941L125.446 73.543Z" fill="black"/>
<path d="M166.65 49.1334L170.046 47.8301C171.037 47.4495 171.939 47.2256 172.752 47.1584C173.565 47.0913 174.287 47.1655 174.918 47.381C175.552 47.5911 176.094 47.9359 176.546 48.4153C177 48.8893 177.362 49.4799 177.634 50.1871C177.891 50.8587 178.014 51.5257 178.001 52.188C177.986 52.8464 177.82 53.4767 177.502 54.0789C177.184 54.6773 176.704 55.2352 176.064 55.7528C175.423 56.2664 174.606 56.7135 173.615 57.0941L170.205 58.396L166.65 49.1334ZM173.44 55.2915C174.001 55.0762 174.465 54.8163 174.833 54.5118C175.2 54.2034 175.473 53.863 175.652 53.4907C175.835 53.1168 175.925 52.7149 175.923 52.285C175.921 51.8551 175.832 51.409 175.654 50.9467C175.48 50.4924 175.252 50.1108 174.97 49.8019C174.687 49.4891 174.355 49.2608 173.973 49.1171C173.594 48.968 173.167 48.9054 172.691 48.9294C172.215 48.9534 171.697 49.073 171.136 49.2883L169.156 50.048L171.46 56.0512L173.44 55.2915Z" fill="black"/>
<path d="M201.548 36.1962L209.801 34.3921L210.178 36.116L203.89 37.4905L204.313 39.4252L209.882 38.208L210.236 39.8266L204.667 41.0438L205.256 43.7413L211.675 42.3384L212.05 44.0561L203.666 45.8887L201.548 36.1962Z" fill="black"/>
<path d="M235.418 28.8391L237.427 28.7227L241.236 32.1262L244.626 28.3055L246.635 28.1892L247.209 38.0939L245.2 38.2103L244.787 31.0875L241.389 34.7624L237.588 31.5046L238.001 38.6274L235.992 38.7438L235.418 28.8391Z" fill="black"/>
<path d="M277.666 31.7285C277.753 30.9844 277.968 30.3193 278.313 29.7332C278.658 29.147 279.102 28.6618 279.645 28.2775C280.193 27.8895 280.826 27.6137 281.544 27.45C282.266 27.2867 283.047 27.2539 283.888 27.3516C284.724 27.4487 285.475 27.6595 286.14 27.9838C286.805 28.3082 287.358 28.7217 287.798 29.2244C288.243 29.7234 288.566 30.2977 288.767 30.9474C288.969 31.597 289.026 32.2939 288.94 33.0379C288.853 33.7861 288.637 34.4575 288.291 35.0521C287.945 35.6425 287.498 36.1338 286.95 36.5259C286.406 36.9186 285.773 37.2007 285.05 37.3724C284.327 37.5398 283.548 37.575 282.711 37.4778C281.871 37.3802 281.118 37.1671 280.453 36.8385C279.793 36.5062 279.241 36.0864 278.797 35.579C278.358 35.0721 278.038 34.4917 277.837 33.8379C277.636 33.1798 277.579 32.4767 277.666 31.7285ZM279.665 31.9606C279.606 32.4692 279.643 32.9379 279.776 33.3666C279.914 33.7959 280.128 34.1743 280.418 34.5019C280.712 34.8259 281.071 35.0912 281.495 35.298C281.922 35.5053 282.397 35.6392 282.918 35.6997C283.439 35.7603 283.929 35.7384 284.389 35.6342C284.853 35.5304 285.263 35.3544 285.62 35.1061C285.977 34.8537 286.272 34.5343 286.504 34.1481C286.736 33.7618 286.882 33.3144 286.941 32.8057C287 32.2971 286.961 31.8303 286.823 31.4053C286.685 30.9803 286.47 30.6102 286.178 30.2952C285.887 29.976 285.528 29.7169 285.099 29.518C284.675 29.3197 284.202 29.1902 283.681 29.1297C283.16 29.0691 282.668 29.0865 282.205 29.1819C281.747 29.2778 281.337 29.4475 280.977 29.691C280.621 29.9309 280.327 30.2418 280.095 30.6239C279.867 31.0064 279.724 31.452 279.665 31.9606Z" fill="black"/>
<path d="M343.964 37.9119L345.502 38.4562L340.733 51.9319L339.195 51.3876L343.964 37.9119Z" fill="black"/>
<path d="M384.566 58.6649L381.455 56.7329L382.385 55.2337L390.318 60.1591L389.387 61.6583L386.276 59.7263L381.973 66.6559L380.264 65.5945L384.566 58.6649Z" fill="black"/>
<path d="M412.098 73.9542L415.951 77.2121C416.533 77.7038 416.985 78.1914 417.308 78.6748C417.634 79.155 417.84 79.6287 417.927 80.0958C418.014 80.563 417.987 81.0187 417.844 81.4631C417.704 81.9102 417.458 82.3422 417.105 82.7591C416.868 83.0403 416.607 83.2798 416.323 83.4778C416.042 83.6725 415.741 83.8164 415.418 83.9095C415.099 84.0053 414.762 84.0471 414.406 84.0348C414.054 84.0193 413.687 83.9449 413.307 83.8117L412.906 87.6288L411.025 86.0388L411.419 82.6816L411.376 82.6448L409.053 80.6729L407.229 82.8301L405.692 81.531L412.098 73.9542ZM412.532 81.3362C412.822 81.5821 413.105 81.7626 413.379 81.8778C413.656 81.9957 413.919 82.0547 414.168 82.0549C414.421 82.0577 414.656 82.002 414.875 81.8876C415.099 81.7727 415.303 81.6069 415.486 81.3904C415.844 80.967 415.975 80.5177 415.878 80.0424C415.784 79.5638 415.444 79.0773 414.859 78.5828L412.503 76.5912L410.176 79.3446L412.532 81.3362Z" fill="black"/>
<path d="M436.643 105.527L439.397 97.3452L440.899 99.0584L438.67 105.075L444.901 103.621L446.403 105.334L437.979 107.031L436.123 108.659L434.796 107.147L436.643 105.527Z" fill="black"/>
<path d="M470.467 135.34L474.896 143.03L473.367 143.91L469.942 137.964L467.692 139.26L470.601 144.309L469.165 145.136L466.257 140.087L462.874 142.035L461.87 140.291L470.467 135.34Z" fill="black"/>
<path d="M487.537 165.344L489.381 170.041C489.659 170.75 489.825 171.394 489.88 171.973C489.938 172.55 489.895 173.065 489.749 173.517C489.604 173.97 489.363 174.358 489.026 174.681C488.691 175.008 488.269 175.271 487.761 175.471C487.418 175.605 487.075 175.692 486.732 175.731C486.392 175.769 486.058 175.753 485.73 175.681C485.403 175.614 485.087 175.49 484.78 175.311C484.477 175.13 484.19 174.89 483.918 174.592L481.752 177.761L480.852 175.468L482.794 172.701L482.773 172.648L481.666 169.809L479.037 170.841L478.302 168.968L487.537 165.344ZM484.412 172.046C484.551 172.4 484.714 172.693 484.9 172.925C485.088 173.16 485.292 173.337 485.511 173.456C485.732 173.578 485.966 173.641 486.212 173.644C486.465 173.65 486.723 173.601 486.987 173.497C487.503 173.295 487.831 172.961 487.972 172.497C488.116 172.031 488.048 171.442 487.769 170.729L486.642 167.857L483.285 169.174L484.412 172.046Z" fill="black"/>
<path d="M500.638 199.697L502.536 207.93L500.817 208.327L499.37 202.055L497.441 202.5L498.721 208.054L497.107 208.426L495.826 202.872L493.136 203.492L494.612 209.894L492.898 210.289L490.97 201.927L500.638 199.697Z" fill="black"/>
<path d="M508.206 233.921L508.889 242.342L507.131 242.485L506.61 236.07L504.636 236.23L505.097 241.912L503.446 242.046L502.985 236.364L500.232 236.588L500.764 243.136L499.011 243.278L498.317 234.724L508.206 233.921Z" fill="black"/>
<path d="M510.476 282.544L510.028 286.153C509.898 287.207 509.671 288.109 509.348 288.858C509.025 289.607 508.62 290.209 508.133 290.664C507.649 291.125 507.09 291.441 506.454 291.614C505.822 291.792 505.131 291.834 504.379 291.741C503.665 291.652 503.019 291.446 502.441 291.123C501.867 290.8 501.388 290.357 501.006 289.794C500.628 289.231 500.361 288.546 500.206 287.737C500.054 286.93 500.044 285.999 500.175 284.945L500.63 281.323L510.476 282.544ZM501.848 285.638C501.774 286.235 501.784 286.767 501.88 287.235C501.98 287.704 502.152 288.104 502.396 288.437C502.64 288.775 502.952 289.044 503.332 289.244C503.713 289.445 504.148 289.576 504.64 289.637C505.123 289.696 505.567 289.675 505.972 289.571C506.381 289.469 506.739 289.283 507.045 289.014C507.355 288.749 507.611 288.402 507.814 287.97C508.017 287.539 508.155 287.026 508.229 286.429L508.49 284.325L502.108 283.534L501.848 285.638Z" fill="black"/>
<path d="M505.55 319.384L503.278 327.522L501.578 327.047L503.309 320.848L501.401 320.315L499.869 325.806L498.273 325.36L499.806 319.87L497.146 319.128L495.38 325.455L493.686 324.983L495.994 316.717L505.55 319.384Z" fill="black"/>
<path d="M496.564 351.979L495.725 353.808L490.933 355.577L492.719 360.362L491.881 362.191L482.862 358.056L483.701 356.227L490.186 359.201L488.533 354.476L493.192 352.646L486.707 349.672L487.546 347.843L496.564 351.979Z" fill="black"/>
<path d="M474.242 388.034C474.858 388.459 475.345 388.961 475.701 389.541C476.057 390.12 476.278 390.74 476.363 391.4C476.449 392.065 476.396 392.753 476.204 393.464C476.01 394.178 475.673 394.884 475.193 395.581C474.715 396.274 474.177 396.839 473.579 397.275C472.981 397.71 472.356 398.005 471.706 398.158C471.057 398.317 470.398 398.334 469.73 398.207C469.062 398.081 468.419 397.805 467.802 397.38C467.182 396.953 466.69 396.447 466.327 395.863C465.967 395.281 465.743 394.656 465.653 393.988C465.561 393.323 465.609 392.631 465.796 391.912C465.986 391.196 466.321 390.491 466.798 389.797C467.279 389.1 467.82 388.535 468.421 388.102C469.024 387.674 469.654 387.383 470.31 387.229C470.964 387.078 471.626 387.067 472.298 387.196C472.974 387.327 473.621 387.607 474.242 388.034ZM473.1 389.691C472.678 389.4 472.247 389.214 471.806 389.131C471.362 389.051 470.927 389.063 470.502 389.165C470.078 389.274 469.675 389.467 469.294 389.744C468.911 390.024 468.57 390.381 468.272 390.813C467.975 391.245 467.764 391.688 467.641 392.143C467.516 392.601 467.479 393.046 467.531 393.478C467.587 393.912 467.73 394.322 467.963 394.708C468.195 395.094 468.522 395.433 468.944 395.723C469.366 396.014 469.796 396.197 470.237 396.275C470.677 396.352 471.104 396.335 471.519 396.226C471.938 396.118 472.335 395.922 472.711 395.636C473.085 395.354 473.421 394.997 473.719 394.565C474.017 394.133 474.232 393.69 474.364 393.237C474.495 392.787 474.537 392.346 474.49 391.913C474.445 391.486 474.308 391.081 474.079 390.697C473.848 390.317 473.522 389.982 473.1 389.691Z" fill="black"/>
<path d="M438.294 443.269L437.096 444.375L427.4 433.871L428.598 432.765L438.294 443.269Z" fill="black"/>
<path d="M401.7 469.31L404.854 467.447L405.751 468.967L397.712 473.716L396.814 472.196L399.968 470.334L395.819 463.311L397.552 462.287L401.7 469.31Z" fill="black"/>
<path d="M375.542 486.762L370.865 488.658C370.159 488.944 369.517 489.117 368.939 489.178C368.363 489.243 367.847 489.205 367.393 489.065C366.939 488.925 366.549 488.689 366.222 488.355C365.891 488.024 365.623 487.605 365.418 487.099C365.28 486.758 365.189 486.416 365.146 486.072C365.104 485.733 365.117 485.399 365.185 485.07C365.248 484.743 365.368 484.425 365.544 484.116C365.722 483.811 365.958 483.521 366.253 483.247L363.061 481.116L365.343 480.191L368.132 482.101L368.185 482.08L371.011 480.941L369.949 478.323L371.814 477.567L375.542 486.762ZM368.805 483.712C368.452 483.855 368.161 484.021 367.932 484.21C367.698 484.4 367.524 484.606 367.408 484.827C367.288 485.049 367.227 485.283 367.227 485.53C367.224 485.782 367.276 486.04 367.383 486.302C367.591 486.816 367.928 487.141 368.394 487.276C368.861 487.415 369.45 487.341 370.16 487.053L373.019 485.894L371.664 482.553L368.805 483.712Z" fill="black"/>
<path d="M335.584 494.147L341.534 500.401L339.317 500.93L335.037 496.15L333.414 502.339L331.198 502.868L333.63 494.626L333.056 492.224L335.014 491.757L335.584 494.147Z" fill="black"/>
<path d="M294.274 510.187L285.407 510.53L285.339 508.767L292.195 508.502L292.095 505.908L286.272 506.132L286.208 504.477L292.031 504.252L291.881 500.351L293.891 500.273L294.274 510.187Z" fill="black"/>
<path d="M258.659 511.446L253.644 510.883C252.887 510.798 252.24 510.644 251.703 510.422C251.165 510.204 250.73 509.925 250.398 509.586C250.066 509.246 249.835 508.852 249.707 508.403C249.574 507.954 249.538 507.458 249.599 506.915C249.64 506.549 249.724 506.205 249.849 505.883C249.974 505.565 250.145 505.278 250.361 505.021C250.573 504.764 250.83 504.541 251.132 504.354C251.434 504.17 251.78 504.028 252.17 503.927L250.38 500.532L252.827 500.807L254.367 503.816L254.424 503.822L257.451 504.169L257.766 501.362L259.766 501.586L258.659 511.446ZM254.191 505.553C253.813 505.51 253.478 505.518 253.186 505.574C252.89 505.63 252.639 505.728 252.432 505.866C252.22 506.004 252.056 506.182 251.938 506.399C251.815 506.619 251.738 506.87 251.706 507.152C251.644 507.703 251.786 508.149 252.131 508.49C252.475 508.835 253.028 509.05 253.789 509.136L256.855 509.48L257.257 505.897L254.191 505.553Z" fill="black"/>
<path d="M221.568 507.021L213.405 504.842L213.86 503.137L220.079 504.797L220.589 502.884L215.082 501.414L215.509 499.813L221.017 501.283L221.729 498.615L215.381 496.921L215.835 495.222L224.126 497.435L221.568 507.021Z" fill="black"/>
<path d="M186.896 497.443L179.139 494.094L179.839 492.474L185.748 495.025L186.533 493.207L181.3 490.947L181.957 489.426L187.19 491.686L188.284 489.151L182.253 486.547L182.95 484.932L190.829 488.334L186.896 497.443Z" fill="black"/>
<path d="M143.762 477.119L140.782 475.034C139.911 474.425 139.221 473.802 138.711 473.166C138.2 472.53 137.858 471.89 137.684 471.246C137.503 470.603 137.485 469.961 137.63 469.318C137.769 468.677 138.056 468.046 138.49 467.425C138.903 466.836 139.387 466.362 139.944 466.002C140.497 465.646 141.113 465.431 141.79 465.357C142.464 465.287 143.194 465.372 143.981 465.613C144.766 465.857 145.593 466.284 146.464 466.893L149.45 468.991L143.762 477.119ZM145.068 468.046C144.575 467.702 144.1 467.462 143.642 467.327C143.181 467.196 142.746 467.16 142.337 467.22C141.925 467.278 141.541 467.428 141.186 467.67C140.831 467.912 140.511 468.235 140.227 468.641C139.948 469.04 139.759 469.442 139.661 469.849C139.56 470.258 139.557 470.662 139.651 471.058C139.74 471.456 139.927 471.845 140.213 472.226C140.499 472.607 140.888 472.97 141.381 473.314L143.118 474.53L146.805 469.262L145.068 468.046Z" fill="black"/>
<path d="M114.049 455.994L107.904 450.196L109.115 448.913L113.796 453.33L115.155 451.89L111.009 447.978L112.146 446.773L116.292 450.684L118.187 448.676L113.409 444.168L114.615 442.889L120.858 448.778L114.049 455.994Z" fill="black"/>
<path d="M88.282 431.673L87.0571 430.076L87.733 425.013L82.6677 424.355L81.4429 422.759L89.3144 416.719L90.5392 418.316L84.8786 422.659L89.8281 423.406L89.268 428.38L94.9286 424.037L96.1535 425.633L88.282 431.673Z" fill="black"/>
<path d="M67.5755 396.251C66.913 396.601 66.2425 396.799 65.564 396.847C64.8855 396.894 64.2342 396.802 63.6101 396.571C62.9803 396.339 62.3949 395.973 61.8539 395.474C61.311 394.971 60.842 394.346 60.4469 393.597C60.0538 392.852 59.8029 392.114 59.694 391.382C59.5852 390.65 59.6136 389.96 59.7792 389.313C59.9391 388.664 60.2299 388.073 60.6517 387.539C61.0734 387.005 61.6155 386.564 62.278 386.214C62.9441 385.862 63.6202 385.661 64.3062 385.61C64.9885 385.561 65.6464 385.652 66.28 385.882C66.9115 386.108 67.5025 386.471 68.053 386.97C68.5997 387.471 69.0696 388.094 69.4626 388.839C69.8577 389.587 70.1078 390.329 70.2129 391.063C70.3122 391.795 70.2782 392.488 70.1109 393.141C69.9415 393.79 69.6441 394.382 69.2186 394.918C68.7893 395.455 68.2416 395.9 67.5755 396.251ZM66.6362 394.472C67.0891 394.233 67.4546 393.937 67.7326 393.585C68.0088 393.228 68.1999 392.838 68.306 392.414C68.4065 391.987 68.4222 391.541 68.3533 391.075C68.2824 390.605 68.1245 390.138 67.8796 389.674C67.6346 389.21 67.3392 388.818 66.9934 388.498C66.6455 388.175 66.2683 387.936 65.8617 387.782C65.4514 387.63 65.0213 387.568 64.5713 387.595C64.1214 387.622 63.67 387.755 63.2172 387.994C62.7643 388.233 62.4017 388.529 62.1293 388.884C61.857 389.238 61.6733 389.624 61.5784 390.043C61.4797 390.463 61.4696 390.906 61.548 391.372C61.6244 391.834 61.7851 392.298 62.03 392.762C62.2749 393.226 62.5676 393.621 62.9079 393.949C63.2463 394.273 63.6179 394.515 64.0227 394.674C64.4218 394.832 64.8445 394.898 65.2907 394.873C65.7349 394.845 66.1834 394.711 66.6362 394.472Z" fill="black"/>
<path d="M35.205 338.466L34.7843 336.89L48.5957 333.203L49.0164 334.779L35.205 338.466Z" fill="black"/>
</svg>
