<svg width="727" height="728" viewBox="0 0 727 728" fill="none" xmlns="http://www.w3.org/2000/svg">
<g opacity="0.1">
<path d="M39.2372 359.831L38.9831 363.484L37.2227 363.362L37.8706 354.047L39.631 354.17L39.3769 357.823L47.5139 358.389L47.3743 360.397L39.2372 359.831Z" fill="white"/>
<path d="M40.5641 316.831L41.6417 311.901C41.8043 311.157 42.0239 310.529 42.3002 310.018C42.5725 309.505 42.8947 309.101 43.2668 308.806C43.639 308.51 44.0549 308.322 44.5145 308.24C44.975 308.155 45.472 308.17 46.0053 308.287C46.3649 308.366 46.6986 308.484 47.0062 308.642C47.3097 308.799 47.578 308.999 47.8111 309.24C48.0451 309.478 48.2397 309.756 48.3951 310.076C48.5463 310.395 48.652 310.754 48.7121 311.153L52.2736 309.722L51.7477 312.128L48.5958 313.349L48.5836 313.405L47.9268 316.38L50.6863 316.984L50.2566 318.949L40.5641 316.831ZM46.8864 312.995C46.9677 312.623 46.9952 312.289 46.969 311.993C46.9436 311.693 46.8727 311.433 46.7563 311.213C46.6407 310.988 46.4813 310.806 46.2779 310.666C46.0713 310.521 45.8295 310.419 45.5525 310.358C45.011 310.24 44.5528 310.335 44.1779 310.642C43.7989 310.949 43.5276 311.477 43.3641 312.225L42.7053 315.239L46.2276 316.009L46.8864 312.995Z" fill="white"/>
<path d="M59.9074 267.297L51.3848 268.669L52.2013 266.542L58.5637 265.713L54.3757 260.876L55.1923 258.749L60.6166 265.413L62.9219 266.298L62.2009 268.177L59.9074 267.297Z" fill="white"/>
<path d="M76.8527 208.36L81.589 200.856L83.0813 201.798L79.419 207.6L81.6145 208.986L84.7245 204.058L86.1256 204.943L83.0155 209.87L86.3168 211.954L85.2429 213.655L76.8527 208.36Z" fill="white"/>
<path d="M102.086 168.803L105.385 164.985C105.883 164.409 106.376 163.962 106.863 163.644C107.347 163.324 107.822 163.123 108.29 163.041C108.759 162.959 109.214 162.991 109.657 163.139C110.102 163.284 110.532 163.535 110.945 163.891C111.223 164.132 111.46 164.395 111.655 164.681C111.846 164.964 111.987 165.268 112.076 165.591C112.169 165.911 112.207 166.249 112.191 166.604C112.171 166.957 112.093 167.323 111.956 167.702L115.768 168.144L114.158 170.007L110.805 169.577L110.768 169.62L108.771 171.921L110.908 173.768L109.592 175.29L102.086 168.803ZM109.472 168.45C109.721 168.161 109.905 167.881 110.023 167.608C110.144 167.333 110.206 167.07 110.208 166.821C110.214 166.568 110.161 166.332 110.049 166.112C109.936 165.887 109.773 165.681 109.558 165.496C109.139 165.133 108.691 164.998 108.215 165.089C107.735 165.178 107.245 165.512 106.744 166.092L104.727 168.426L107.455 170.784L109.472 168.45Z" fill="white"/>
<path d="M135.072 131.321L141.464 125.797L142.618 127.132L137.748 131.341L139.043 132.839L143.356 129.112L144.439 130.365L140.127 134.093L141.932 136.182L146.903 131.886L148.053 133.216L141.559 138.828L135.072 131.321Z" fill="white"/>
<path d="M170.564 101.123L177.676 96.5611L178.629 98.0465L173.211 101.522L174.28 103.189L179.078 100.111L179.973 101.506L175.175 104.583L176.665 106.907L182.195 103.36L183.145 104.84L175.921 109.474L170.564 101.123Z" fill="white"/>
<path d="M225.984 68.1457L229.38 66.8424C230.372 66.4618 231.274 66.2379 232.087 66.1707C232.9 66.1035 233.622 66.1777 234.253 66.3933C234.886 66.6034 235.429 66.9481 235.88 67.4276C236.334 67.9015 236.697 68.4921 236.968 69.1993C237.226 69.871 237.348 70.5379 237.335 71.2003C237.32 71.8586 237.154 72.4889 236.837 73.0912C236.518 73.6895 236.039 74.2475 235.399 74.765C234.757 75.2786 233.941 75.7257 232.949 76.1063L229.539 77.4083L225.984 68.1457ZM232.774 74.3038C233.335 74.0885 233.8 73.8286 234.168 73.5241C234.535 73.2157 234.807 72.8753 234.986 72.5029C235.169 72.129 235.26 71.7271 235.258 71.2972C235.256 70.8673 235.166 70.4212 234.989 69.959C234.815 69.5047 234.587 69.1231 234.305 68.8142C234.022 68.5013 233.689 68.2731 233.308 68.1294C232.929 67.9803 232.501 67.9177 232.025 67.9416C231.55 67.9656 231.031 68.0853 230.47 68.3006L228.491 69.0603L230.795 75.0635L232.774 74.3038Z" fill="white"/>
<path d="M272.956 50.6338L281.21 48.8296L281.586 50.5536L275.298 51.928L275.721 53.8628L281.29 52.6456L281.644 54.2641L276.075 55.4813L276.665 58.1789L283.083 56.776L283.458 58.4937L275.074 60.3263L272.956 50.6338Z" fill="white"/>
<path d="M318.526 40.6331L320.535 40.5167L324.344 43.9203L327.734 40.0996L329.743 39.9832L330.317 49.888L328.308 50.0044L327.895 42.8816L324.497 46.5565L320.696 43.2987L321.109 50.4215L319.1 50.5379L318.526 40.6331Z" fill="white"/>
<path d="M375.832 42.7396C375.918 41.9956 376.134 41.3305 376.479 40.7443C376.824 40.1581 377.268 39.6729 377.811 39.2886C378.359 38.9007 378.991 38.6248 379.709 38.4611C380.431 38.2979 381.212 38.2651 382.053 38.3627C382.889 38.4599 383.64 38.6706 384.306 38.995C384.971 39.3193 385.524 39.7329 385.964 40.2356C386.408 40.7346 386.731 41.3089 386.933 41.9585C387.134 42.6082 387.192 43.305 387.105 44.049C387.019 44.7973 386.802 45.4687 386.456 46.0633C386.111 46.6536 385.664 47.1449 385.116 47.5371C384.572 47.9297 383.938 48.2119 383.215 48.3835C382.493 48.551 381.713 48.5861 380.877 48.489C380.036 48.3913 379.283 48.1782 378.619 47.8497C377.959 47.5174 377.407 47.0975 376.963 46.5902C376.523 46.0833 376.203 45.5029 376.002 44.849C375.802 44.191 375.745 43.4878 375.832 42.7396ZM377.83 42.9717C377.771 43.4804 377.809 43.9491 377.942 44.3778C378.08 44.807 378.293 45.1854 378.583 45.5131C378.878 45.837 379.237 46.1024 379.66 46.3091C380.088 46.5164 380.562 46.6503 381.083 46.7109C381.605 46.7714 382.095 46.7496 382.554 46.6453C383.018 46.5415 383.428 46.3655 383.785 46.1173C384.142 45.8648 384.437 45.5455 384.67 45.1592C384.902 44.7729 385.048 44.3255 385.107 43.8169C385.166 43.3083 385.126 42.8414 384.988 42.4164C384.85 41.9914 384.635 41.6214 384.344 41.3063C384.053 40.9871 383.693 40.7281 383.265 40.5292C382.84 40.3308 382.368 40.2013 381.846 40.1408C381.325 40.0803 380.833 40.0977 380.371 40.193C379.912 40.2889 379.503 40.4586 379.142 40.7022C378.786 40.942 378.492 41.2529 378.26 41.635C378.033 42.0175 377.89 42.4631 377.83 42.9717Z" fill="white"/>
<path d="M464.696 53.07L466.234 53.6143L461.465 67.09L459.927 66.5457L464.696 53.07Z" fill="white"/>
<path d="M518.934 79.3712L515.823 77.4392L516.753 75.9401L524.686 80.8655L523.755 82.3646L520.644 80.4326L516.341 87.3623L514.632 86.3009L518.934 79.3712Z" fill="white"/>
<path d="M556.613 100.95L560.467 104.208C561.049 104.7 561.501 105.187 561.824 105.671C562.149 106.151 562.356 106.624 562.443 107.092C562.53 107.559 562.502 108.015 562.359 108.459C562.219 108.906 561.973 109.338 561.621 109.755C561.383 110.036 561.123 110.276 560.839 110.474C560.558 110.668 560.256 110.812 559.934 110.905C559.614 111.001 559.277 111.043 558.922 111.031C558.569 111.015 558.203 110.941 557.822 110.807L557.421 114.625L555.54 113.035L555.935 109.677L555.891 109.641L553.568 107.669L551.745 109.826L550.208 108.527L556.613 100.95ZM557.047 108.332C557.338 108.578 557.62 108.758 557.894 108.874C558.171 108.992 558.434 109.051 558.684 109.051C558.936 109.054 559.172 108.998 559.39 108.883C559.615 108.768 559.819 108.603 560.002 108.386C560.36 107.963 560.49 107.513 560.393 107.038C560.299 106.56 559.96 106.073 559.375 105.579L557.019 103.587L554.691 106.34L557.047 108.332Z" fill="white"/>
<path d="M590.987 140.909L593.741 132.727L595.244 134.44L593.014 140.457L599.245 139.003L600.747 140.716L592.324 142.413L590.467 144.041L589.14 142.528L590.987 140.909Z" fill="white"/>
<path d="M635.383 183.484L639.811 191.174L638.282 192.054L634.858 186.108L632.608 187.404L635.516 192.454L634.081 193.28L631.172 188.231L627.789 190.179L626.785 188.435L635.383 183.484Z" fill="white"/>
<path d="M658.448 223.838L660.292 228.536C660.57 229.245 660.736 229.889 660.79 230.468C660.849 231.045 660.805 231.56 660.66 232.012C660.515 232.465 660.274 232.852 659.937 233.176C659.602 233.503 659.18 233.766 658.672 233.965C658.329 234.1 657.986 234.187 657.642 234.226C657.302 234.264 656.969 234.247 656.641 234.176C656.314 234.109 655.997 233.985 655.691 233.806C655.388 233.624 655.1 233.385 654.829 233.087L652.663 236.255L651.763 233.963L653.705 231.196L653.684 231.143L652.577 228.304L649.947 229.336L649.212 227.463L658.448 223.838ZM655.323 230.54C655.462 230.895 655.625 231.188 655.811 231.419C655.999 231.655 656.202 231.832 656.422 231.95C656.643 232.073 656.876 232.136 657.123 232.139C657.375 232.144 657.633 232.095 657.897 231.992C658.413 231.789 658.742 231.456 658.882 230.992C659.027 230.526 658.959 229.936 658.679 229.223L657.552 226.351L654.196 227.669L655.323 230.54Z" fill="white"/>
<path d="M676.178 270.081L678.076 278.313L676.357 278.71L674.91 272.438L672.981 272.883L674.261 278.437L672.647 278.81L671.366 273.255L668.676 273.876L670.152 280.277L668.438 280.672L666.51 272.31L676.178 270.081Z" fill="white"/>
<path d="M686.457 316.152L687.141 324.573L685.382 324.716L684.861 318.301L682.887 318.461L683.348 324.142L681.697 324.276L681.236 318.595L678.484 318.818L679.015 325.367L677.263 325.509L676.568 316.955L686.457 316.152Z" fill="white"/>
<path d="M689.64 381.625L689.193 385.235C689.062 386.289 688.835 387.19 688.512 387.939C688.189 388.688 687.784 389.29 687.297 389.746C686.813 390.206 686.254 390.522 685.618 390.695C684.986 390.873 684.295 390.915 683.543 390.822C682.829 390.733 682.183 390.527 681.605 390.204C681.031 389.881 680.553 389.438 680.17 388.875C679.792 388.312 679.526 387.627 679.37 386.819C679.218 386.011 679.208 385.08 679.339 384.026L679.794 380.405L689.64 381.625ZM681.012 384.72C680.938 385.316 680.949 385.848 681.044 386.316C681.144 386.785 681.316 387.186 681.56 387.519C681.804 387.856 682.116 388.125 682.496 388.326C682.877 388.526 683.312 388.657 683.804 388.718C684.287 388.778 684.731 388.756 685.136 388.653C685.545 388.55 685.903 388.364 686.209 388.095C686.519 387.831 686.775 387.483 686.978 387.052C687.181 386.621 687.319 386.107 687.393 385.51L687.654 383.406L681.272 382.615L681.012 384.72Z" fill="white"/>
<path d="M683.094 431.261L680.823 439.399L679.123 438.924L680.854 432.725L678.946 432.192L677.414 437.683L675.818 437.237L677.35 431.747L674.691 431.004L672.924 437.332L671.231 436.86L673.538 428.594L683.094 431.261Z" fill="white"/>
<path d="M671.099 475.155L670.26 476.984L665.468 478.753L667.254 483.539L666.415 485.368L657.397 481.232L658.236 479.403L664.721 482.377L663.068 477.653L667.727 475.823L661.242 472.849L662.081 471.02L671.099 475.155Z" fill="white"/>
<path d="M642.422 524.911C643.039 525.336 643.525 525.838 643.881 526.417C644.237 526.997 644.458 527.616 644.543 528.276C644.629 528.942 644.576 529.63 644.385 530.341C644.191 531.055 643.853 531.761 643.373 532.458C642.895 533.151 642.357 533.716 641.759 534.151C641.161 534.587 640.537 534.882 639.886 535.035C639.237 535.194 638.578 535.21 637.91 535.084C637.242 534.957 636.599 534.682 635.982 534.257C635.362 533.829 634.87 533.324 634.507 532.739C634.148 532.157 633.923 531.532 633.833 530.864C633.741 530.2 633.789 529.508 633.976 528.789C634.167 528.072 634.501 527.367 634.979 526.674C635.459 525.977 636 525.412 636.602 524.978C637.204 524.551 637.834 524.26 638.49 524.106C639.144 523.955 639.807 523.944 640.478 524.073C641.154 524.204 641.801 524.483 642.422 524.911ZM641.28 526.568C640.858 526.277 640.427 526.09 639.986 526.007C639.542 525.928 639.108 525.939 638.682 526.042C638.258 526.151 637.855 526.343 637.474 526.62C637.091 526.901 636.75 527.257 636.453 527.689C636.155 528.121 635.944 528.565 635.821 529.02C635.696 529.478 635.659 529.923 635.711 530.354C635.767 530.788 635.911 531.198 636.143 531.585C636.375 531.971 636.702 532.309 637.124 532.6C637.546 532.89 637.977 533.074 638.417 533.151C638.857 533.228 639.284 533.212 639.699 533.102C640.118 532.995 640.515 532.798 640.892 532.513C641.266 532.231 641.602 531.874 641.899 531.442C642.197 531.01 642.412 530.567 642.545 530.114C642.675 529.664 642.717 529.223 642.671 528.79C642.625 528.363 642.488 527.958 642.26 527.574C642.028 527.194 641.702 526.858 641.28 526.568Z" fill="white"/>
<path d="M592.438 597.986L591.239 599.092L581.543 588.588L582.742 587.482L592.438 597.986Z" fill="white"/>
<path d="M544.818 633.43L547.971 631.567L548.869 633.086L540.829 637.836L539.932 636.316L543.085 634.453L538.936 627.43L540.669 626.407L544.818 633.43Z" fill="white"/>
<path d="M508.44 657.008L503.763 658.905C503.057 659.191 502.415 659.364 501.837 659.425C501.261 659.49 500.745 659.452 500.291 659.312C499.837 659.172 499.447 658.935 499.12 658.602C498.789 658.271 498.521 657.852 498.316 657.346C498.178 657.005 498.087 656.663 498.043 656.319C498.002 655.98 498.015 655.646 498.082 655.317C498.146 654.99 498.266 654.672 498.442 654.363C498.62 654.058 498.856 653.768 499.151 653.493L495.959 651.363L498.241 650.438L501.029 652.348L501.082 652.327L503.908 651.188L502.847 648.57L504.712 647.814L508.44 657.008ZM501.703 653.959C501.35 654.102 501.059 654.268 500.83 654.457C500.596 654.647 500.422 654.853 500.306 655.073C500.186 655.296 500.125 655.53 500.125 655.777C500.122 656.029 500.174 656.287 500.281 656.549C500.489 657.063 500.826 657.388 501.292 657.523C501.759 657.662 502.348 657.588 503.058 657.3L505.917 656.141L504.562 652.8L501.703 653.959Z" fill="white"/>
<path d="M456.276 669.318L462.226 675.572L460.009 676.101L455.73 671.321L454.107 677.51L451.89 678.039L454.322 669.797L453.749 667.395L455.706 666.928L456.276 669.318Z" fill="white"/>
<path d="M399.041 688.765L390.174 689.108L390.106 687.345L396.962 687.08L396.862 684.485L391.039 684.71L390.975 683.055L396.798 682.83L396.648 678.929L398.658 678.851L399.041 688.765Z" fill="white"/>
<path d="M351.084 690.553L346.069 689.99C345.312 689.905 344.665 689.752 344.127 689.53C343.59 689.312 343.155 689.033 342.822 688.693C342.49 688.354 342.26 687.96 342.131 687.511C341.999 687.062 341.963 686.566 342.024 686.023C342.065 685.657 342.148 685.313 342.274 684.991C342.399 684.673 342.569 684.385 342.786 684.129C342.998 683.871 343.255 683.649 343.557 683.461C343.858 683.278 344.204 683.136 344.595 683.035L342.804 679.64L345.251 679.915L346.792 682.924L346.848 682.93L349.876 683.277L350.191 680.469L352.19 680.694L351.084 690.553ZM346.616 684.661C346.237 684.618 345.902 684.625 345.611 684.682C345.315 684.738 345.063 684.836 344.856 684.974C344.645 685.112 344.48 685.29 344.362 685.506C344.239 685.727 344.162 685.978 344.13 686.26C344.069 686.811 344.21 687.257 344.555 687.598C344.9 687.943 345.452 688.158 346.214 688.244L349.279 688.588L349.681 685.005L346.616 684.661Z" fill="white"/>
<path d="M301.109 684.685L292.946 682.506L293.402 680.801L299.62 682.461L300.131 680.548L294.624 679.077L295.051 677.477L300.558 678.947L301.27 676.279L294.923 674.585L295.376 672.886L303.668 675.099L301.109 684.685Z" fill="white"/>
<path d="M254.387 671.871L246.63 668.521L247.33 666.901L253.239 669.453L254.024 667.635L248.791 665.375L249.448 663.854L254.681 666.114L255.775 663.579L249.744 660.974L250.441 659.36L258.32 662.762L254.387 671.871Z" fill="white"/>
<path d="M196.25 644.617L193.27 642.531C192.4 641.922 191.709 641.3 191.199 640.664C190.689 640.027 190.346 639.388 190.172 638.744C189.991 638.101 189.974 637.458 190.119 636.816C190.258 636.175 190.544 635.544 190.978 634.923C191.391 634.334 191.875 633.859 192.432 633.5C192.986 633.144 193.601 632.929 194.278 632.855C194.952 632.784 195.683 632.869 196.47 633.11C197.254 633.355 198.082 633.781 198.952 634.39L201.939 636.488L196.25 644.617ZM197.556 635.544C197.063 635.199 196.588 634.96 196.13 634.825C195.669 634.693 195.234 634.658 194.826 634.718C194.413 634.775 194.03 634.925 193.674 635.167C193.319 635.409 192.999 635.733 192.715 636.139C192.436 636.537 192.248 636.94 192.149 637.346C192.048 637.756 192.045 638.159 192.14 638.556C192.228 638.953 192.415 639.343 192.701 639.724C192.987 640.105 193.377 640.467 193.869 640.812L195.606 642.028L199.293 636.759L197.556 635.544Z" fill="white"/>
<path d="M156.174 616.234L150.029 610.436L151.24 609.153L155.922 613.57L157.281 612.129L153.135 608.218L154.272 607.012L158.418 610.924L160.313 608.916L155.534 604.407L156.741 603.128L162.983 609.018L156.174 616.234Z" fill="white"/>
<path d="M121.42 583.569L120.195 581.973L120.871 576.91L115.805 576.251L114.581 574.655L122.452 568.616L123.677 570.212L118.016 574.555L122.966 575.302L122.406 580.276L128.066 575.933L129.291 577.53L121.42 583.569Z" fill="white"/>
<path d="M91.8332 536.538C91.1708 536.888 90.5003 537.086 89.8218 537.133C89.1433 537.18 88.492 537.088 87.8679 536.858C87.2381 536.626 86.6527 536.26 86.1117 535.761C85.5687 535.258 85.0997 534.632 84.7047 533.884C84.3116 533.139 84.0607 532.4 83.9518 531.668C83.843 530.936 83.8714 530.247 84.037 529.599C84.1969 528.95 84.4877 528.359 84.9095 527.825C85.3312 527.292 85.8733 526.85 86.5357 526.501C87.2019 526.149 87.878 525.948 88.564 525.897C89.2463 525.848 89.9042 525.938 90.5377 526.168C91.1693 526.395 91.7603 526.758 92.3108 527.257C92.8575 527.758 93.3274 528.381 93.7204 529.125C94.1155 529.874 94.3655 530.615 94.4706 531.349C94.57 532.081 94.536 532.774 94.3686 533.427C94.1993 534.076 93.9019 534.669 93.4764 535.204C93.0471 535.742 92.4994 536.186 91.8332 536.538ZM90.894 534.758C91.3469 534.519 91.7123 534.224 91.9904 533.871C92.2666 533.515 92.4577 533.125 92.5638 532.7C92.6642 532.274 92.68 531.828 92.6111 531.362C92.5402 530.892 92.3823 530.425 92.1373 529.961C91.8924 529.497 91.597 529.105 91.2511 528.785C90.9033 528.461 90.5261 528.223 90.1195 528.069C89.7092 527.917 89.2791 527.854 88.8291 527.881C88.3792 527.908 87.9278 528.041 87.475 528.28C87.0221 528.519 86.6595 528.816 86.3871 529.17C86.1148 529.524 85.9311 529.911 85.8362 530.329C85.7375 530.75 85.7274 531.193 85.8058 531.659C85.8822 532.121 86.0429 532.584 86.2878 533.048C86.5327 533.512 86.8254 533.908 87.1657 534.236C87.5041 534.559 87.8757 534.801 88.2805 534.961C88.6796 535.119 89.1023 535.185 89.5484 535.16C89.9927 535.131 90.4412 534.997 90.894 534.758Z" fill="white"/>
<path d="M50.1288 457.935L49.7081 456.359L63.5195 452.672L63.9402 454.248L50.1288 457.935Z" fill="white"/>
</g>
</svg>
