<svg width="1440" height="1083" viewBox="0 0 1440 1083" fill="none" xmlns="http://www.w3.org/2000/svg">
<g opacity="0.3">
<path d="M475.297 109.427L472.006 111.034L471.231 109.448L479.622 105.352L480.396 106.938L477.105 108.544L480.684 115.874L478.875 116.757L475.297 109.427Z" fill="#7E7E7E"/>
<path d="M534.902 78.3839L539.71 76.8521C540.436 76.6209 541.09 76.4971 541.671 76.4808C542.25 76.4604 542.761 76.5375 543.203 76.712C543.645 76.8866 544.016 77.1525 544.317 77.5098C544.621 77.8658 544.856 78.3039 545.022 78.8241C545.134 79.1749 545.198 79.523 545.215 79.8685C545.23 80.21 545.192 80.5421 545.099 80.8647C545.01 81.1861 544.866 81.494 544.667 81.7884C544.467 82.0788 544.209 82.3497 543.893 82.6012L546.913 84.9702L544.567 85.7177L541.933 83.5988L541.878 83.6161L538.973 84.5349L539.831 87.2264L537.914 87.8372L534.902 78.3839ZM541.385 81.9413C541.748 81.8257 542.051 81.6826 542.294 81.5118C542.541 81.3398 542.731 81.1483 542.864 80.9373C543 80.725 543.078 80.4958 543.098 80.2498C543.12 79.9985 543.088 79.7378 543.002 79.4676C542.834 78.9394 542.522 78.59 542.068 78.4193C541.613 78.2446 541.02 78.2735 540.29 78.506L537.351 79.4424L538.445 82.8777L541.385 81.9413Z" fill="#7E7E7E"/>
<path d="M612.922 62.3749L607.472 55.6805L609.722 55.3239L613.621 60.4196L615.716 54.3742L617.967 54.0176L614.907 62.0475L615.294 64.4863L613.306 64.8012L612.922 62.3749Z" fill="#7E7E7E"/>
<path d="M705.942 43.2385L714.809 43.588L714.74 45.3513L707.883 45.081L707.781 47.6752L713.604 47.9047L713.538 49.5601L707.716 49.3307L707.562 53.2314L705.551 53.1522L705.942 43.2385Z" fill="#7E7E7E"/>
<path d="M777.484 46.2575L782.441 47.2061C783.189 47.3493 783.822 47.5523 784.341 47.8153C784.86 48.0741 785.272 48.3856 785.577 48.7499C785.882 49.1142 786.082 49.5251 786.175 49.9824C786.273 50.4406 786.27 50.9377 786.167 51.4739C786.098 51.8355 785.989 52.1721 785.838 52.4838C785.689 52.7913 785.497 53.0647 785.261 53.304C785.03 53.5441 784.757 53.746 784.441 53.9096C784.126 54.0691 783.77 54.184 783.373 54.2546L784.896 57.7775L782.477 57.3145L781.174 54.1956L781.118 54.1849L778.127 53.6059L777.596 56.3802L775.619 56.002L777.484 46.2575ZM781.484 52.4775C781.858 52.5491 782.192 52.5679 782.487 52.534C782.787 52.5008 783.045 52.4231 783.262 52.301C783.484 52.1796 783.662 52.0155 783.796 51.8085C783.935 51.5982 784.032 51.3538 784.085 51.0754C784.189 50.5309 784.083 50.0753 783.765 49.7086C783.448 49.3377 782.914 49.0803 782.161 48.9363L779.131 48.3564L778.454 51.8976L781.484 52.4775Z" fill="#7E7E7E"/>
<path d="M852.262 61.1279L860.242 63.9015L859.663 65.5684L853.583 63.4553L852.933 65.326L858.317 67.1973L857.773 68.7623L852.389 66.8909L851.483 69.4991L857.688 71.6559L857.111 73.3168L849.005 70.4994L852.262 61.1279Z" fill="#7E7E7E"/>
<path d="M919.321 84.8729L926.827 88.7508L926.017 90.3186L920.298 87.3642L919.389 89.1238L924.454 91.7401L923.693 93.212L918.629 90.5957L917.361 93.0488L923.198 96.0644L922.391 97.6265L914.767 93.6874L919.321 84.8729Z" fill="#7E7E7E"/>
<path d="M1005.29 132.785L1008.12 135.074C1008.95 135.742 1009.59 136.412 1010.06 137.082C1010.52 137.752 1010.82 138.415 1010.95 139.069C1011.08 139.723 1011.05 140.365 1010.86 140.996C1010.68 141.626 1010.35 142.235 1009.87 142.824C1009.42 143.383 1008.9 143.822 1008.32 144.142C1007.75 144.458 1007.12 144.63 1006.44 144.656C1005.76 144.679 1005.04 144.543 1004.27 144.248C1003.5 143.949 1002.71 143.465 1001.88 142.797L999.051 140.495L1005.29 132.785ZM1003.36 141.744C1003.82 142.122 1004.28 142.394 1004.73 142.561C1005.18 142.724 1005.61 142.79 1006.02 142.759C1006.44 142.73 1006.83 142.608 1007.2 142.391C1007.57 142.175 1007.92 141.874 1008.23 141.489C1008.53 141.111 1008.75 140.723 1008.88 140.325C1009.01 139.923 1009.04 139.521 1008.97 139.119C1008.91 138.716 1008.75 138.314 1008.49 137.914C1008.23 137.514 1007.87 137.125 1007.4 136.747L1005.76 135.413L1001.71 140.41L1003.36 141.744Z" fill="#7E7E7E"/>
<path d="M1064.4 181.409L1070.09 187.655L1068.78 188.843L1064.45 184.085L1062.98 185.418L1066.82 189.632L1065.6 190.748L1061.76 186.534L1059.72 188.393L1064.14 193.25L1062.84 194.434L1057.06 188.09L1064.4 181.409Z" fill="#7E7E7E"/>
<path d="M1112.48 233.88L1113.59 235.561L1112.55 240.561L1117.55 241.587L1118.66 243.269L1110.36 248.718L1109.26 247.037L1115.22 243.118L1110.34 242.012L1111.26 237.092L1105.3 241.011L1104.19 239.329L1112.48 233.88Z" fill="#7E7E7E"/>
<path d="M1156.1 310.424C1156.79 310.127 1157.47 309.981 1158.15 309.987C1158.83 309.992 1159.47 310.134 1160.08 310.412C1160.69 310.693 1161.24 311.103 1161.74 311.643C1162.25 312.186 1162.67 312.846 1163 313.623C1163.34 314.396 1163.53 315.152 1163.58 315.89C1163.63 316.629 1163.55 317.314 1163.34 317.946C1163.13 318.581 1162.79 319.148 1162.33 319.647C1161.87 320.147 1161.29 320.545 1160.6 320.842C1159.91 321.141 1159.22 321.289 1158.53 321.287C1157.85 321.283 1157.2 321.141 1156.59 320.863C1155.98 320.588 1155.41 320.18 1154.9 319.64C1154.4 319.098 1153.98 318.441 1153.64 317.668C1153.31 316.891 1153.12 316.132 1153.07 315.392C1153.03 314.655 1153.11 313.967 1153.33 313.329C1153.55 312.695 1153.89 312.127 1154.36 311.626C1154.83 311.123 1155.41 310.723 1156.1 310.424ZM1156.9 312.271C1156.43 312.474 1156.04 312.741 1155.74 313.07C1155.43 313.404 1155.21 313.779 1155.07 314.194C1154.94 314.611 1154.89 315.054 1154.92 315.524C1154.96 315.998 1155.08 316.476 1155.29 316.958C1155.5 317.439 1155.76 317.853 1156.08 318.199C1156.4 318.548 1156.76 318.816 1157.15 319.001C1157.55 319.184 1157.97 319.279 1158.42 319.288C1158.88 319.296 1159.34 319.198 1159.81 318.995C1160.28 318.792 1160.66 318.524 1160.96 318.192C1161.26 317.86 1161.47 317.489 1161.6 317.079C1161.73 316.667 1161.77 316.226 1161.73 315.756C1161.69 315.289 1161.57 314.815 1161.36 314.333C1161.15 313.852 1160.89 313.434 1160.58 313.081C1160.26 312.732 1159.91 312.463 1159.52 312.272C1159.13 312.084 1158.72 311.985 1158.27 311.975C1157.83 311.969 1157.37 312.068 1156.9 312.271Z" fill="#7E7E7E"/>
<path d="M1207.33 436.767L1207.62 438.37L1193.57 440.978L1193.27 439.374L1207.33 436.767Z" fill="#7E7E7E"/>
<path d="M1215.79 526.689L1215.9 523.029L1217.67 523.085L1217.37 532.418L1215.6 532.361L1215.72 528.701L1207.57 528.439L1207.63 526.428L1215.79 526.689Z" fill="#7E7E7E"/>
<path d="M1215.18 594.507L1214.29 599.474C1214.15 600.223 1213.96 600.859 1213.7 601.38C1213.45 601.902 1213.14 602.317 1212.78 602.626C1212.42 602.936 1212.01 603.139 1211.55 603.238C1211.09 603.34 1210.6 603.343 1210.06 603.246C1209.7 603.181 1209.36 603.075 1209.05 602.928C1208.74 602.783 1208.46 602.593 1208.22 602.36C1207.98 602.132 1207.77 601.861 1207.61 601.547C1207.44 601.234 1207.32 600.879 1207.25 600.483L1203.74 602.044L1204.18 599.62L1207.28 598.283L1207.29 598.227L1207.84 595.229L1205.06 594.729L1205.42 592.748L1215.18 594.507ZM1209.01 598.574C1208.94 598.949 1208.92 599.284 1208.96 599.578C1209 599.877 1209.08 600.135 1209.2 600.351C1209.33 600.571 1209.49 600.747 1209.7 600.879C1209.91 601.016 1210.16 601.11 1210.44 601.16C1210.98 601.258 1211.44 601.146 1211.8 600.825C1212.17 600.504 1212.42 599.967 1212.55 599.213L1213.1 596.177L1209.55 595.538L1209.01 598.574Z" fill="#7E7E7E"/>
<path d="M1192.97 670.234L1201.43 668.528L1200.69 670.686L1194.37 671.764L1198.74 676.433L1198.01 678.59L1192.33 672.144L1189.99 671.35L1190.64 669.445L1192.97 670.234Z" fill="#7E7E7E"/>
<path d="M1166.51 761.739L1162.06 769.419L1160.53 768.535L1163.97 762.597L1161.72 761.296L1158.8 766.339L1157.37 765.51L1160.29 760.466L1156.91 758.511L1157.92 756.769L1166.51 761.739Z" fill="#7E7E7E"/>
<path d="M1130.9 823.088L1127.75 827.033C1127.27 827.628 1126.8 828.094 1126.33 828.431C1125.86 828.77 1125.39 828.99 1124.92 829.09C1124.46 829.191 1124 829.176 1123.55 829.046C1123.1 828.919 1122.66 828.685 1122.24 828.345C1121.95 828.115 1121.7 827.861 1121.5 827.584C1121.29 827.308 1121.14 827.011 1121.04 826.691C1120.93 826.375 1120.88 826.039 1120.89 825.683C1120.89 825.33 1120.95 824.962 1121.08 824.577L1117.25 824.286L1118.79 822.36L1122.15 822.659L1122.19 822.614L1124.09 820.236L1121.88 818.475L1123.14 816.901L1130.9 823.088ZM1123.53 823.732C1123.29 824.03 1123.12 824.317 1123.01 824.594C1122.9 824.875 1122.85 825.14 1122.86 825.389C1122.86 825.641 1122.92 825.875 1123.05 826.09C1123.17 826.311 1123.34 826.51 1123.56 826.687C1123.99 827.033 1124.45 827.151 1124.92 827.04C1125.39 826.932 1125.87 826.579 1126.35 825.98L1128.27 823.568L1125.45 821.32L1123.53 823.732Z" fill="#7E7E7E"/>
<path d="M1083.4 881.923L1077.22 887.683L1076.02 886.392L1080.72 882.004L1079.37 880.555L1075.2 884.441L1074.07 883.229L1078.24 879.343L1076.36 877.323L1071.56 881.802L1070.36 880.516L1076.63 874.665L1083.4 881.923Z" fill="#7E7E7E"/>
<path d="M1030.43 930.774L1023.48 935.577L1022.48 934.125L1027.78 930.466L1026.65 928.837L1021.96 932.077L1021.02 930.714L1025.71 927.474L1024.14 925.202L1018.73 928.936L1017.73 927.49L1024.79 922.612L1030.43 930.774Z" fill="#7E7E7E"/>
<path d="M946.425 985.117L943.075 986.534C942.097 986.948 941.203 987.202 940.393 987.297C939.583 987.392 938.858 987.342 938.22 987.148C937.58 986.959 937.026 986.633 936.559 986.169C936.089 985.711 935.707 985.133 935.411 984.435C935.131 983.773 934.986 983.11 934.977 982.448C934.97 981.789 935.114 981.154 935.411 980.541C935.71 979.932 936.17 979.358 936.792 978.82C937.415 978.285 938.216 977.81 939.195 977.396L942.559 975.98L946.425 985.117ZM939.431 979.192C938.877 979.426 938.422 979.701 938.064 980.018C937.708 980.339 937.447 980.688 937.281 981.066C937.111 981.446 937.034 981.851 937.05 982.281C937.066 982.71 937.171 983.153 937.364 983.609C937.554 984.057 937.794 984.431 938.086 984.73C938.38 985.033 938.72 985.25 939.106 985.381C939.49 985.517 939.919 985.565 940.394 985.525C940.869 985.485 941.383 985.348 941.936 985.114L943.889 984.287L941.383 978.366L939.431 979.192Z" fill="#7E7E7E"/>
<path d="M875.852 1014.49L867.669 1016.59L867.23 1014.88L873.464 1013.28L872.971 1011.36L867.45 1012.78L867.038 1011.17L872.559 1009.75L871.872 1007.08L865.509 1008.71L865.072 1007.01L873.384 1004.88L875.852 1014.49Z" fill="#7E7E7E"/>
<path d="M808.764 1032.27L806.761 1032.46L802.833 1029.19L799.582 1033.13L797.578 1033.32L796.651 1023.44L798.654 1023.26L799.321 1030.36L802.586 1026.56L806.5 1029.68L805.833 1022.58L807.837 1022.39L808.764 1032.27Z" fill="#7E7E7E"/>
<path d="M720.578 1035.08C720.519 1035.82 720.327 1036.49 720.003 1037.09C719.679 1037.69 719.253 1038.19 718.724 1038.59C718.191 1039 717.568 1039.3 716.857 1039.49C716.141 1039.68 715.362 1039.74 714.518 1039.67C713.679 1039.61 712.921 1039.42 712.244 1039.12C711.568 1038.82 711.001 1038.43 710.543 1037.94C710.08 1037.46 709.737 1036.9 709.512 1036.25C709.287 1035.61 709.205 1034.92 709.265 1034.17C709.325 1033.42 709.517 1032.74 709.841 1032.14C710.165 1031.53 710.594 1031.03 711.128 1030.61C711.658 1030.2 712.28 1029.9 712.997 1029.7C713.713 1029.51 714.49 1029.44 715.33 1029.51C716.173 1029.58 716.933 1029.76 717.609 1030.07C718.281 1030.38 718.848 1030.78 719.309 1031.27C719.767 1031.76 720.108 1032.33 720.332 1032.97C720.556 1033.62 720.638 1034.32 720.578 1035.08ZM718.572 1034.91C718.613 1034.4 718.559 1033.94 718.41 1033.51C718.258 1033.09 718.03 1032.72 717.729 1032.4C717.423 1032.09 717.054 1031.84 716.624 1031.65C716.189 1031.45 715.71 1031.34 715.187 1031.29C714.664 1031.25 714.175 1031.29 713.72 1031.41C713.26 1031.53 712.856 1031.72 712.509 1031.99C712.16 1032.25 711.877 1032.58 711.659 1032.97C711.441 1033.37 711.311 1033.82 711.27 1034.33C711.23 1034.84 711.286 1035.31 711.439 1035.73C711.592 1036.15 711.82 1036.51 712.123 1036.81C712.425 1037.12 712.794 1037.37 713.229 1037.55C713.66 1037.73 714.138 1037.85 714.661 1037.89C715.184 1037.93 715.675 1037.89 716.134 1037.78C716.588 1037.67 716.992 1037.49 717.343 1037.23C717.69 1036.98 717.973 1036.66 718.191 1036.27C718.404 1035.88 718.532 1035.43 718.572 1034.91Z" fill="#7E7E7E"/>
<path d="M586.339 1021.71L584.781 1021.23L589.03 1007.58L590.588 1008.06L586.339 1021.71Z" fill="#7E7E7E"/>
<path d="M503.923 988.291L507.113 990.091L506.246 991.628L498.113 987.04L498.98 985.503L502.17 987.303L506.178 980.199L507.931 981.187L503.923 988.291Z" fill="#7E7E7E"/>
<path d="M444.017 956.75L440.037 953.648C439.436 953.179 438.964 952.71 438.623 952.24C438.278 951.773 438.053 951.308 437.948 950.845C437.842 950.381 437.852 949.925 437.977 949.475C438.099 949.023 438.327 948.581 438.663 948.151C438.889 947.86 439.14 947.611 439.416 947.402C439.689 947.196 439.984 947.04 440.303 946.934C440.618 946.826 440.954 946.771 441.309 946.769C441.662 946.77 442.031 946.83 442.417 946.948L442.666 943.118L444.608 944.632L444.348 948.002L444.393 948.037L446.792 949.915L448.528 947.687L450.116 948.924L444.017 956.75ZM443.29 949.391C442.989 949.156 442.7 948.987 442.422 948.883C442.14 948.776 441.875 948.728 441.626 948.738C441.373 948.745 441.14 948.81 440.926 948.933C440.706 949.057 440.509 949.23 440.335 949.454C439.994 949.891 439.882 950.345 439.998 950.817C440.111 951.291 440.469 951.764 441.073 952.234L443.507 954.131L445.723 951.287L443.29 949.391Z" fill="#7E7E7E"/>
<path d="M386.073 901.154L383.631 909.434L382.064 907.779L384.064 901.683L377.893 903.371L376.327 901.716L384.68 899.701L386.474 898.004L387.857 899.466L386.073 901.154Z" fill="#7E7E7E"/>
<path d="M318.293 836.598L313.563 829.09L315.056 828.149L318.714 833.955L320.91 832.571L317.804 827.641L319.206 826.758L322.312 831.688L325.615 829.607L326.687 831.31L318.293 836.598Z" fill="#7E7E7E"/>
<path d="M279.205 774.648L277.185 770.024C276.88 769.326 276.689 768.688 276.613 768.112C276.533 767.538 276.557 767.022 276.685 766.564C276.813 766.106 277.039 765.71 277.363 765.374C277.686 765.034 278.098 764.755 278.598 764.537C278.935 764.389 279.275 764.29 279.617 764.237C279.955 764.187 280.289 764.191 280.62 764.249C280.948 764.304 281.27 764.416 281.583 764.584C281.893 764.753 282.189 764.982 282.471 765.269L284.516 762.021L285.502 764.278L283.666 767.117L283.689 767.169L284.903 769.964L287.491 768.833L288.297 770.677L279.205 774.648ZM282.074 767.833C281.921 767.484 281.748 767.197 281.553 766.973C281.356 766.745 281.146 766.575 280.923 766.465C280.697 766.351 280.461 766.297 280.215 766.304C279.962 766.308 279.706 766.366 279.447 766.48C278.939 766.702 278.623 767.047 278.5 767.516C278.373 767.987 278.463 768.574 278.77 769.276L280.005 772.103L283.309 770.66L282.074 767.833Z" fill="#7E7E7E"/>
<path d="M248.68 704.146L246.486 695.987L248.19 695.529L249.862 701.744L251.774 701.23L250.294 695.725L251.894 695.295L253.374 700.799L256.041 700.082L254.334 693.738L256.032 693.281L258.261 701.569L248.68 704.146Z" fill="#7E7E7E"/>
<path d="M229.824 632.631L228.846 624.239L230.599 624.035L231.344 630.428L233.311 630.199L232.651 624.537L234.297 624.345L234.957 630.007L237.699 629.688L236.939 623.162L238.685 622.958L239.679 631.483L229.824 632.631Z" fill="#7E7E7E"/>
<path d="M221.285 535.008L221.601 531.385C221.694 530.327 221.888 529.417 222.183 528.657C222.479 527.897 222.862 527.281 223.332 526.808C223.799 526.33 224.346 525.994 224.975 525.798C225.6 525.598 226.29 525.53 227.045 525.596C227.761 525.659 228.414 525.841 229.004 526.143C229.589 526.445 230.083 526.87 230.486 527.419C230.884 527.968 231.175 528.643 231.36 529.445C231.541 530.247 231.585 531.177 231.493 532.235L231.169 535.87L221.285 535.008ZM229.796 531.603C229.848 531.004 229.818 530.472 229.705 530.008C229.589 529.543 229.402 529.149 229.146 528.825C228.89 528.497 228.568 528.24 228.181 528.053C227.794 527.866 227.353 527.751 226.86 527.708C226.375 527.666 225.932 527.704 225.531 527.822C225.126 527.939 224.775 528.138 224.479 528.418C224.179 528.693 223.935 529.05 223.748 529.488C223.562 529.927 223.442 530.445 223.39 531.044L223.205 533.156L229.611 533.715L229.796 531.603Z" fill="#7E7E7E"/>
<path d="M228.08 460.337L230.029 452.116L231.746 452.523L230.261 458.786L232.189 459.243L233.503 453.697L235.115 454.079L233.801 459.625L236.487 460.262L238.003 453.869L239.714 454.275L237.734 462.626L228.08 460.337Z" fill="#7E7E7E"/>
<path d="M244.57 389.466L245.34 387.607L250.063 385.661L248.1 380.945L248.87 379.086L258.036 382.884L257.266 384.743L250.674 382.012L252.502 386.672L247.914 388.674L254.506 391.404L253.736 393.263L244.57 389.466Z" fill="#7E7E7E"/>
<path d="M281.98 312.728C281.346 312.329 280.839 311.847 280.459 311.283C280.079 310.719 279.833 310.109 279.72 309.454C279.607 308.792 279.631 308.102 279.793 307.384C279.957 306.662 280.264 305.943 280.715 305.227C281.163 304.514 281.677 303.928 282.257 303.467C282.836 303.007 283.448 302.687 284.091 302.507C284.733 302.321 285.391 302.277 286.064 302.375C286.737 302.474 287.39 302.722 288.024 303.121C288.662 303.522 289.174 304.007 289.561 304.576C289.945 305.142 290.195 305.757 290.313 306.421C290.432 307.081 290.414 307.774 290.257 308.501C290.096 309.224 289.792 309.943 289.343 310.656C288.893 311.372 288.376 311.959 287.793 312.417C287.208 312.869 286.591 313.186 285.942 313.368C285.295 313.546 284.633 313.584 283.957 313.484C283.277 313.381 282.618 313.129 281.98 312.728ZM283.052 311.024C283.485 311.297 283.924 311.466 284.368 311.53C284.815 311.591 285.249 311.562 285.669 311.441C286.089 311.315 286.483 311.106 286.852 310.813C287.223 310.517 287.549 310.147 287.828 309.702C288.108 309.258 288.299 308.806 288.404 308.347C288.51 307.884 288.528 307.438 288.458 307.009C288.384 306.578 288.223 306.174 287.975 305.798C287.727 305.421 287.386 305.097 286.953 304.824C286.519 304.552 286.081 304.386 285.638 304.327C285.195 304.268 284.768 304.303 284.359 304.43C283.945 304.555 283.556 304.767 283.192 305.068C282.83 305.365 282.509 305.736 282.23 306.18C281.95 306.624 281.754 307.076 281.64 307.534C281.529 307.989 281.506 308.432 281.57 308.862C281.633 309.287 281.787 309.686 282.031 310.06C282.278 310.43 282.618 310.752 283.052 311.024Z" fill="#7E7E7E"/>
<path d="M356.531 199.48L357.686 198.327L367.784 208.445L366.63 209.598L356.531 199.48Z" fill="#7E7E7E"/>
</g>
</svg>
