<svg width="66" height="21" viewBox="0 0 66 21" fill="none" xmlns="http://www.w3.org/2000/svg">
<path fill-rule="evenodd" clip-rule="evenodd" d="M40.8125 15.8174C37.0522 18.5881 31.5828 20.0643 26.8655 20.0643C20.2566 20.0643 14.3314 17.6342 9.81913 13.5917C9.47729 13.2737 9.77355 12.8422 10.2065 13.0921C15.0606 15.9082 21.0542 17.5888 27.2529 17.5888C31.4233 17.5888 36.0267 16.7258 40.2655 14.9316C40.9036 14.6818 41.4278 15.3631 40.8125 15.8174Z" fill="#FF9900"/>
<path fill-rule="evenodd" clip-rule="evenodd" d="M42.3849 14.0232C41.9063 13.41 39.1944 13.728 37.9866 13.8869C37.622 13.9324 37.5536 13.6144 37.8954 13.3873C40.0604 11.8657 43.5927 12.3199 44.0029 12.8195C44.4131 13.3192 43.889 16.862 41.8608 18.5426C41.5417 18.7924 41.2454 18.6561 41.3822 18.3155C41.838 17.18 42.8635 14.6591 42.3849 14.0232Z" fill="#FF9900"/>
<path fill-rule="evenodd" clip-rule="evenodd" d="M38.055 2.7134V1.23722C38.055 1.01011 38.2145 0.873847 38.4196 0.873847H45.0285C45.2336 0.873847 45.4159 1.03282 45.4159 1.23722V2.48629C45.4159 2.69069 45.2336 2.96322 44.9146 3.41743L41.4962 8.27747C42.7724 8.25476 44.1169 8.43644 45.2564 9.07234C45.5071 9.2086 45.5755 9.43571 45.5982 9.6401V11.2071C45.5982 11.4342 45.3704 11.684 45.1197 11.5478C43.0914 10.4804 40.3795 10.3668 38.1462 11.5705C37.9183 11.684 37.6676 11.4569 37.6676 11.2298V9.73094C37.6676 9.50384 37.6676 9.09505 37.9183 8.73168L41.8836 3.07677H38.4424C38.2373 3.07677 38.055 2.91779 38.055 2.7134ZM13.9668 11.8657H11.9614C11.779 11.843 11.6195 11.7068 11.5967 11.5251V1.25993C11.5967 1.05553 11.7791 0.896559 11.9842 0.896559H13.8529C14.058 0.896559 14.1947 1.05553 14.2175 1.23722V2.57713H14.2631C14.7416 1.28264 15.676 0.669454 16.9066 0.669454C18.16 0.669454 18.9577 1.28264 19.5046 2.57713C19.9832 1.28264 21.0998 0.669454 22.2849 0.669454C23.1281 0.669454 24.0396 1.01011 24.6094 1.80498C25.2475 2.66798 25.1107 3.91706 25.1107 5.02987V11.5251C25.1107 11.7295 24.9284 11.8884 24.7233 11.8884H22.7407C22.5356 11.8657 22.376 11.7068 22.376 11.5251V6.07455C22.376 5.64305 22.4216 4.55295 22.3305 4.14416C22.1709 3.46284 21.7379 3.25845 21.1454 3.25845C20.6668 3.25845 20.1427 3.5764 19.9376 4.09874C19.7325 4.62108 19.7553 5.48408 19.7553 6.07455V11.5251C19.7553 11.7295 19.573 11.8884 19.3679 11.8884H17.3624C17.1573 11.8657 16.9978 11.7068 16.9978 11.5251V6.07455C16.9978 4.93902 17.1801 3.23574 15.7672 3.23574C14.3314 3.23574 14.377 4.87089 14.377 6.07455V11.5251C14.3542 11.7068 14.1947 11.8657 13.9668 11.8657ZM51.1132 0.669454C54.0986 0.669454 55.7167 3.21303 55.7167 6.46063C55.7167 9.59468 53.9391 12.0928 51.1132 12.0928C48.1962 12.0928 46.601 9.54926 46.601 6.36979C46.5782 3.16761 48.1962 0.669454 51.1132 0.669454ZM51.1132 2.78153C49.6319 2.78153 49.5408 4.80277 49.5408 6.05185C49.5408 7.30092 49.518 9.98076 51.0904 9.98076C52.6401 9.98076 52.7313 7.82326 52.7313 6.50605C52.7313 5.64306 52.6857 4.59837 52.435 3.7808C52.2071 3.05406 51.7513 2.78153 51.1132 2.78153ZM59.568 11.8657H57.5626C57.3575 11.843 57.198 11.684 57.198 11.5024V1.2145C57.2207 1.03282 57.3803 0.873847 57.5854 0.873847H59.4541C59.6364 0.873847 59.7731 1.01011 59.8187 1.16909V2.73611H59.8643C60.434 1.32806 61.2089 0.669454 62.599 0.669454C63.4878 0.669454 64.3766 0.987398 64.9463 1.87311C65.4704 2.69069 65.4704 4.07603 65.4704 5.07529V11.5478C65.4476 11.7295 65.2881 11.8657 65.083 11.8657H63.0776C62.8953 11.843 62.7357 11.7068 62.7129 11.5478V5.961C62.7129 4.82547 62.8497 3.19032 61.4595 3.19032C60.981 3.19032 60.5252 3.50827 60.2973 4.0079C60.0238 4.64379 59.9782 5.25697 59.9782 5.961V11.5024C59.9554 11.7068 59.7731 11.8657 59.568 11.8657ZM32.7907 6.96027C32.7907 7.73242 32.8135 8.39103 32.4261 9.09505C32.107 9.66281 31.6057 10.0035 31.0359 10.0035C30.2611 10.0035 29.8053 9.413 29.8053 8.55C29.8053 6.84671 31.3322 6.52876 32.7907 6.52876V6.96027ZM34.8189 11.843C34.6822 11.9566 34.4999 11.9793 34.3404 11.8884C33.6795 11.3434 33.5427 11.0709 33.1781 10.5485C32.0842 11.6613 31.2866 12.002 29.8737 12.002C28.1873 12.002 26.8655 10.9573 26.8655 8.89066C26.8655 7.2555 27.7543 6.16539 29.0077 5.62034C30.1016 5.14342 31.6285 5.05258 32.7907 4.91632V4.6665C32.7907 4.18958 32.8363 3.62182 32.54 3.21303C32.2893 2.84966 31.8336 2.69069 31.4234 2.69069C30.6485 2.69069 29.9648 3.07677 29.8053 3.89435C29.7597 4.07603 29.6458 4.25771 29.4635 4.25771L27.5264 4.05332C27.3669 4.0079 27.1846 3.89435 27.2301 3.64453C27.6859 1.28264 29.8053 0.578613 31.7196 0.578613C32.6995 0.578613 33.9757 0.828427 34.7506 1.57787C35.7305 2.48629 35.6394 3.71266 35.6394 5.02987V8.14121C35.6394 9.07234 36.0268 9.48113 36.3914 10.0035C36.5281 10.1852 36.5509 10.4123 36.3914 10.5258C35.9584 10.8665 35.2291 11.5024 34.8189 11.843ZM6.46917 6.96027C6.46917 7.73242 6.49195 8.39103 6.10454 9.09505C5.78549 9.66281 5.28412 10.0035 4.71439 10.0035C3.93956 10.0035 3.48378 9.413 3.48378 8.55C3.48378 6.84671 5.01066 6.52876 6.46917 6.52876V6.96027ZM8.47461 11.843C8.33788 11.9566 8.15557 11.9793 7.99604 11.8884C7.33515 11.3434 7.19842 11.0709 6.83379 10.5485C5.73991 11.6613 4.94229 12.002 3.52935 12.002C1.84295 12.002 0.521179 10.9573 0.521179 8.89066C0.521179 7.2555 1.40996 6.16539 2.66336 5.62034C3.75725 5.14342 5.28412 5.05258 6.44637 4.91632V4.6665C6.44637 4.18958 6.49195 3.62182 6.19569 3.21303C5.94501 2.84966 5.48923 2.69069 5.07902 2.69069C4.30419 2.69069 3.62051 3.07677 3.46099 3.89435C3.41541 4.07603 3.30146 4.25771 3.11915 4.25771L1.18207 4.05332C1.02254 4.0079 0.84023 3.89435 0.885808 3.64453C1.34159 1.28264 3.46099 0.578613 5.37528 0.578613C6.35522 0.578613 7.63141 0.828427 8.40625 1.57787C9.38618 2.48629 9.29503 3.71266 9.29503 5.02987V8.14121C9.29503 9.07234 9.68244 9.48113 10.0471 10.0035C10.1838 10.1852 10.2066 10.4123 10.0471 10.5258C9.61408 10.8665 8.88482 11.5024 8.47461 11.843Z" fill="white"/>
</svg>
