<svg width="66" height="21" viewBox="0 0 66 21" fill="none" xmlns="http://www.w3.org/2000/svg">
<path fill-rule="evenodd" clip-rule="evenodd" d="M40.8125 15.8174C37.0522 18.5881 31.5828 20.0643 26.8655 20.0643C20.2566 20.0643 14.3314 17.6343 9.81913 13.5917C9.47729 13.2738 9.77355 12.8423 10.2065 13.0921C15.0606 15.9082 21.0542 17.5888 27.2529 17.5888C31.4233 17.5888 36.0267 16.7258 40.2655 14.9317C40.9036 14.6819 41.4278 15.3632 40.8125 15.8174Z" fill="#7E7E7E"/>
<path fill-rule="evenodd" clip-rule="evenodd" d="M42.3849 14.0232C41.9063 13.41 39.1944 13.728 37.9866 13.8869C37.622 13.9324 37.5536 13.6144 37.8954 13.3873C40.0604 11.8657 43.5927 12.3199 44.0029 12.8195C44.4131 13.3192 43.889 16.862 41.8608 18.5426C41.5417 18.7924 41.2454 18.6561 41.3822 18.3155C41.838 17.18 42.8635 14.6591 42.3849 14.0232Z" fill="#7E7E7E"/>
<path fill-rule="evenodd" clip-rule="evenodd" d="M38.055 2.71343V1.23725C38.055 1.01014 38.2145 0.873878 38.4196 0.873878H45.0285C45.2336 0.873878 45.4159 1.03285 45.4159 1.23725V2.48632C45.4159 2.69072 45.2336 2.96325 44.9146 3.41746L41.4962 8.2775C42.7724 8.25479 44.1169 8.43648 45.2564 9.07237C45.5071 9.20863 45.5755 9.43574 45.5982 9.64013V11.2072C45.5982 11.4343 45.3704 11.6841 45.1197 11.5478C43.0914 10.4804 40.3795 10.3669 38.1462 11.5705C37.9183 11.6841 37.6676 11.457 37.6676 11.2299V9.73097C37.6676 9.50387 37.6676 9.09508 37.9183 8.73171L41.8836 3.0768H38.4424C38.2373 3.0768 38.055 2.91782 38.055 2.71343ZM13.9668 11.8658H11.9614C11.779 11.843 11.6195 11.7068 11.5967 11.5251V1.25996C11.5967 1.05556 11.7791 0.896589 11.9842 0.896589H13.8529C14.058 0.896589 14.1947 1.05556 14.2175 1.23725V2.57717H14.2631C14.7416 1.28267 15.676 0.669484 16.9066 0.669484C18.16 0.669484 18.9577 1.28267 19.5046 2.57717C19.9832 1.28267 21.0998 0.669484 22.2849 0.669484C23.1281 0.669484 24.0396 1.01014 24.6094 1.80501C25.2475 2.66801 25.1107 3.91709 25.1107 5.0299V11.5251C25.1107 11.7295 24.9284 11.8885 24.7233 11.8885H22.7407C22.5356 11.8658 22.376 11.7068 22.376 11.5251V6.07458C22.376 5.64308 22.4216 4.55298 22.3305 4.14419C22.1709 3.46287 21.7379 3.25848 21.1454 3.25848C20.6668 3.25848 20.1427 3.57643 19.9376 4.09877C19.7325 4.62111 19.7553 5.48411 19.7553 6.07458V11.5251C19.7553 11.7295 19.573 11.8885 19.3679 11.8885H17.3624C17.1573 11.8658 16.9978 11.7068 16.9978 11.5251V6.07458C16.9978 4.93906 17.1801 3.23577 15.7672 3.23577C14.3314 3.23577 14.377 4.87092 14.377 6.07458V11.5251C14.3542 11.7068 14.1947 11.8658 13.9668 11.8658ZM51.1132 0.669484C54.0986 0.669484 55.7167 3.21306 55.7167 6.46066C55.7167 9.59471 53.9391 12.0929 51.1132 12.0929C48.1962 12.0929 46.601 9.54929 46.601 6.36982C46.5782 3.16764 48.1962 0.669484 51.1132 0.669484ZM51.1132 2.78156C49.6319 2.78156 49.5408 4.8028 49.5408 6.05188C49.5408 7.30095 49.518 9.98079 51.0904 9.98079C52.6401 9.98079 52.7313 7.82329 52.7313 6.50609C52.7313 5.64309 52.6857 4.5984 52.435 3.78083C52.2071 3.05409 51.7513 2.78156 51.1132 2.78156ZM59.568 11.8658H57.5626C57.3575 11.843 57.198 11.6841 57.198 11.5024V1.21453C57.2207 1.03285 57.3803 0.873878 57.5854 0.873878H59.4541C59.6364 0.873878 59.7731 1.01014 59.8187 1.16912V2.73614H59.8643C60.434 1.32809 61.2089 0.669484 62.599 0.669484C63.4878 0.669484 64.3766 0.987429 64.9463 1.87314C65.4704 2.69072 65.4704 4.07606 65.4704 5.07532V11.5478C65.4476 11.7295 65.2881 11.8658 65.083 11.8658H63.0776C62.8953 11.843 62.7357 11.7068 62.7129 11.5478V5.96103C62.7129 4.8255 62.8497 3.19035 61.4595 3.19035C60.981 3.19035 60.5252 3.5083 60.2973 4.00793C60.0238 4.64382 59.9782 5.257 59.9782 5.96103V11.5024C59.9554 11.7068 59.7731 11.8658 59.568 11.8658ZM32.7907 6.9603C32.7907 7.73245 32.8135 8.39106 32.4261 9.09508C32.107 9.66284 31.6057 10.0035 31.0359 10.0035C30.2611 10.0035 29.8053 9.41303 29.8053 8.55003C29.8053 6.84674 31.3322 6.52879 32.7907 6.52879V6.9603ZM34.8189 11.8431C34.6822 11.9566 34.4999 11.9793 34.3404 11.8885C33.6795 11.3434 33.5427 11.0709 33.1781 10.5486C32.0842 11.6614 31.2866 12.002 29.8737 12.002C28.1873 12.002 26.8655 10.9573 26.8655 8.89069C26.8655 7.25553 27.7543 6.16542 29.0077 5.62037C30.1016 5.14345 31.6285 5.05261 32.7907 4.91635V4.66653C32.7907 4.18961 32.8363 3.62185 32.54 3.21306C32.2893 2.8497 31.8336 2.69072 31.4234 2.69072C30.6485 2.69072 29.9648 3.0768 29.8053 3.89438C29.7597 4.07606 29.6458 4.25774 29.4635 4.25774L27.5264 4.05335C27.3669 4.00793 27.1846 3.89438 27.2301 3.64456C27.6859 1.28267 29.8053 0.578644 31.7196 0.578644C32.6995 0.578644 33.9757 0.828458 34.7506 1.5779C35.7305 2.48632 35.6394 3.71269 35.6394 5.0299V8.14124C35.6394 9.07237 36.0268 9.48116 36.3914 10.0035C36.5281 10.1852 36.5509 10.4123 36.3914 10.5258C35.9584 10.8665 35.2291 11.5024 34.8189 11.8431ZM6.46917 6.9603C6.46917 7.73245 6.49195 8.39106 6.10454 9.09508C5.78549 9.66284 5.28412 10.0035 4.71439 10.0035C3.93956 10.0035 3.48378 9.41303 3.48378 8.55003C3.48378 6.84674 5.01066 6.52879 6.46917 6.52879V6.9603ZM8.47461 11.8431C8.33788 11.9566 8.15557 11.9793 7.99604 11.8885C7.33515 11.3434 7.19842 11.0709 6.83379 10.5486C5.73991 11.6614 4.94229 12.002 3.52935 12.002C1.84295 12.002 0.521179 10.9573 0.521179 8.89069C0.521179 7.25553 1.40996 6.16542 2.66336 5.62037C3.75725 5.14345 5.28412 5.05261 6.44637 4.91635V4.66653C6.44637 4.18961 6.49195 3.62185 6.19569 3.21306C5.94501 2.8497 5.48923 2.69072 5.07902 2.69072C4.30419 2.69072 3.62051 3.0768 3.46099 3.89438C3.41541 4.07606 3.30146 4.25774 3.11915 4.25774L1.18207 4.05335C1.02254 4.00793 0.84023 3.89438 0.885808 3.64456C1.34159 1.28267 3.46099 0.578644 5.37528 0.578644C6.35522 0.578644 7.63141 0.828458 8.40625 1.5779C9.38618 2.48632 9.29503 3.71269 9.29503 5.0299V8.14124C9.29503 9.07237 9.68244 9.48116 10.0471 10.0035C10.1838 10.1852 10.2066 10.4123 10.0471 10.5258C9.61408 10.8665 8.88482 11.5024 8.47461 11.8431Z" fill="#7E7E7E"/>
</svg>
