<svg width="128" height="27" viewBox="0 0 128 27" fill="none" xmlns="http://www.w3.org/2000/svg">
<g clip-path="url(#clip0)">
<path d="M15.2593 5.30656L7.89013 10.1022L15.2593 14.8978L7.89013 19.6935L0.520996 14.8579L7.89013 10.0622L0.520996 5.30656L7.89013 0.510925L15.2593 5.30656ZM7.85093 21.2121L15.2201 16.4164L22.5892 21.2121L15.2201 26.0077L7.85093 21.2121ZM15.2593 14.8579L22.6284 10.0622L15.2593 5.30656L22.5892 0.510925L29.9583 5.30656L22.5892 10.1022L29.9583 14.8978L22.5892 19.6935L15.2593 14.8579Z" fill="#7E7E7E"/>
<path d="M35.7205 5.30752H41.6785C45.4806 5.30752 48.6164 7.54548 48.6164 12.6608V13.7398C48.6164 18.8951 45.6766 21.213 41.7961 21.213H35.7205V5.30752ZM39.0522 8.1849V18.2957H41.6001C43.756 18.2957 45.2063 16.857 45.2063 13.6599V12.8207C45.2063 9.62359 43.6776 8.1849 41.4825 8.1849H39.0522ZM50.3803 8.34476H53.0458L53.4769 11.342C53.9865 9.30388 55.28 8.22486 57.6319 8.22486H58.455V11.6617H57.0831C54.3785 11.6617 53.7121 12.6209 53.7121 15.3384V21.253H50.4195V8.34476H50.3803ZM59.1214 15.0586V14.699C59.1214 10.3829 61.826 8.02505 65.5106 8.02505C69.2735 8.02505 71.8998 10.3829 71.8998 14.699V15.0586C71.8998 19.2948 69.3519 21.5727 65.5106 21.5727C61.434 21.5327 59.1214 19.2948 59.1214 15.0586ZM68.5288 15.0187V14.699C68.5288 12.3012 67.3529 10.8625 65.4714 10.8625C63.6291 10.8625 62.414 12.1813 62.414 14.699V15.0187C62.414 17.3366 63.5899 18.6554 65.4714 18.6554C67.3529 18.6154 68.5288 17.3366 68.5288 15.0187ZM73.6245 8.34476H76.3683L76.6819 10.7825C77.3482 9.14403 78.7593 8.02505 80.8368 8.02505C84.051 8.02505 86.1677 10.3829 86.1677 14.7389V15.0986C86.1677 19.3347 83.8158 21.5727 80.8368 21.5727C78.8377 21.5727 77.4658 20.6535 76.7995 19.1749V25.689H73.5853L73.6245 8.34476ZM82.8359 15.0187V14.7389C82.8359 12.1813 81.5424 10.9024 79.8177 10.9024C77.9754 10.9024 76.7603 12.3411 76.7603 14.7389V14.9787C76.7603 17.2566 77.9362 18.6953 79.7785 18.6953C81.66 18.6554 82.8359 17.4165 82.8359 15.0187ZM91.0282 18.8552L90.7538 21.213H87.9316V4.02869H91.1458V10.6227C91.8513 8.94421 93.2624 8.02505 95.2615 8.02505C98.2797 8.06501 100.514 10.1831 100.514 14.4592V14.8588C100.514 19.1349 98.3973 21.5727 95.1831 21.5727C93.0665 21.5327 91.6945 20.5337 91.0282 18.8552ZM97.143 14.8588V14.5391C97.143 12.1813 95.8887 10.8625 94.1248 10.8625C92.3217 10.8625 91.0674 12.3411 91.0674 14.5791V14.8588C91.0674 17.2566 92.2825 18.6554 94.0856 18.6554C96.0063 18.6554 97.143 17.4165 97.143 14.8588ZM101.925 15.0586V14.699C101.925 10.3829 104.63 8.02505 108.314 8.02505C112.077 8.02505 114.703 10.3829 114.703 14.699V15.0586C114.703 19.2948 112.116 21.5727 108.314 21.5727C104.238 21.5327 101.925 19.2948 101.925 15.0586ZM111.372 15.0187V14.699C111.372 12.3012 110.196 10.8625 108.314 10.8625C106.472 10.8625 105.257 12.1813 105.257 14.699V15.0187C105.257 17.3366 106.433 18.6554 108.314 18.6554C110.196 18.6154 111.372 17.3366 111.372 15.0187ZM119.015 14.5391L114.586 8.34476H118.388L120.936 12.2212L123.523 8.34476H127.286L122.778 14.4992L127.521 21.213H123.797L120.897 16.9369L118.074 21.213H114.194L119.015 14.5391Z" fill="#7E7E7E"/>
</g>
<defs>
<clipPath id="clip0">
<rect width="127" height="26" fill="white" transform="translate(0.520996 0.5)"/>
</clipPath>
</defs>
</svg>
