<svg width="66" height="18" viewBox="0 0 66 18" fill="none" xmlns="http://www.w3.org/2000/svg">
<g clip-path="url(#clip0)">
<path d="M9.07556 16.8358C8.08272 17.0117 7.07242 17.0644 6.02731 17.2048L2.83959 7.78802V17.609C1.84675 17.7143 0.940995 17.8549 0.000366211 17.9954V0.00502014H2.6481L6.27114 10.2126V0.00502014H9.07556V16.8358ZM14.5625 6.59331C15.6426 6.59331 17.2973 6.54059 18.2902 6.54059V9.35153C17.0534 9.35153 15.6077 9.35153 14.5625 9.40425V13.5857C16.2 13.4803 17.8373 13.3396 19.492 13.2869V15.9923L11.7754 16.6074V0.00502014H19.492V2.81603H14.5625V6.59331ZM29.8562 2.81609H26.9647V15.7467C26.0241 15.7467 25.0835 15.7467 24.1778 15.7817V2.81609H21.2863V0.00502014H29.8563L29.8562 2.81609ZM34.3851 6.4001H38.1999V9.21104H34.3851V15.5886H31.6501V0.00502014H39.4366V2.81603H34.3851V6.4001ZM43.9655 13.1289C45.5506 13.1639 47.153 13.2871 48.7034 13.3748V16.1507C46.2125 15.9925 43.7216 15.8346 41.1785 15.7817V0.00502014H43.9655V13.1289ZM51.0549 16.344C51.9433 16.3968 52.8839 16.4495 53.7897 16.5547V0.00502014H51.0549V16.344ZM66.0004 0.00502014L62.4643 8.56103L66.0004 17.9954C64.9551 17.8549 63.91 17.6616 62.8648 17.4859L60.8618 12.2857L58.824 17.0644C57.8135 16.8885 56.838 16.8358 55.8279 16.6953L59.4162 8.45552L56.1762 0.00502014H59.1721L61.0011 4.73103L62.9521 0.00502014H66.0004Z" fill="#7E7E7E"/>
</g>
<defs>
<clipPath id="clip0">
<rect width="66" height="18" fill="white" transform="translate(0.000366211)"/>
</clipPath>
</defs>
</svg>
