<svg width="66" height="18" viewBox="0 0 66 18" fill="none" xmlns="http://www.w3.org/2000/svg">
<g clip-path="url(#clip0)">
<path d="M9.07544 16.8358C8.0826 17.0116 7.0723 17.0644 6.02719 17.2048L2.83947 7.78801V17.6089C1.84663 17.7143 0.940873 17.8549 0.000244141 17.9954V0.00500488H2.64798L6.27102 10.2126V0.00500488H9.07544V16.8358ZM14.5624 6.59329C15.6424 6.59329 17.2972 6.54057 18.29 6.54057V9.35151C17.0533 9.35151 15.6076 9.35151 14.5624 9.40423V13.5857C16.1998 13.4803 17.8372 13.3396 19.4919 13.2869V15.9923L11.7753 16.6074V0.00500488H19.4919V2.81601H14.5624V6.59329ZM29.8561 2.81608H26.9646V15.7467C26.024 15.7467 25.0833 15.7467 24.1777 15.7817V2.81608H21.2862V0.00500488H29.8562L29.8561 2.81608ZM34.385 6.40009H38.1997V9.21103H34.385V15.5886H31.65V0.00500488H39.4365V2.81601H34.385V6.40009ZM43.9653 13.1289C45.5505 13.1639 47.1529 13.2871 48.7033 13.3748V16.1507C46.2124 15.9925 43.7215 15.8345 41.1784 15.7817V0.00500488H43.9653V13.1289ZM51.0548 16.344C51.9431 16.3967 52.8838 16.4495 53.7895 16.5547V0.00500488H51.0548V16.344ZM66.0002 0.00500488L62.4642 8.56102L66.0002 17.9954C64.955 17.8549 63.9099 17.6616 62.8647 17.4859L60.8617 12.2856L58.8238 17.0644C57.8133 16.8885 56.8379 16.8358 55.8278 16.6953L59.416 8.45551L56.176 0.00500488H59.172L61.0009 4.73101L62.9519 0.00500488H66.0002Z" fill="#D81F26"/>
</g>
<defs>
<clipPath id="clip0">
<rect width="66" height="18" fill="white" transform="translate(0.000244141)"/>
</clipPath>
</defs>
</svg>
