<svg width="104" height="27" viewBox="0 0 104 27" fill="none" xmlns="http://www.w3.org/2000/svg">
<g clip-path="url(#clip0)">
<path fill-rule="evenodd" clip-rule="evenodd" d="M33.2717 21.2899L34.5696 18.3101C35.9716 19.3459 37.8394 19.8843 39.6823 19.8843C41.0426 19.8843 41.9037 19.3664 41.9037 18.5814C41.8829 16.3866 33.7543 18.1046 33.6919 12.6013C33.6711 9.80649 36.1837 7.65284 39.7447 7.65284C41.8621 7.65284 43.9754 8.1707 45.4855 9.35028L44.2708 12.3917C42.8896 11.5204 41.1716 10.8998 39.5367 10.8998C38.426 10.8998 37.6938 11.4176 37.6938 12.0793C37.7146 14.233 45.9057 13.0534 45.9889 18.3101C45.9889 21.1666 43.5386 23.1764 40.0193 23.1764C37.44 23.1723 35.073 22.5722 33.2717 21.2899ZM83.1127 17.2333C82.4637 18.3512 81.249 19.1157 79.8429 19.1157C77.7671 19.1157 76.0948 17.4594 76.0948 15.4126C76.0948 13.3658 77.7713 11.7094 79.8429 11.7094C81.2449 11.7094 82.4637 12.4739 83.1127 13.5918L86.6945 11.6272C85.3549 9.26808 82.7757 7.65284 79.8429 7.65284C75.5041 7.65284 71.9847 11.1299 71.9847 15.4167C71.9847 19.7034 75.5041 23.1805 79.8429 23.1805C82.7965 23.1805 85.3549 21.5858 86.6945 19.2061L83.1127 17.2333ZM47.7901 1.21243H52.2746V22.8846H47.7901V1.21243ZM88.4541 1.21243V22.8846H92.9386V16.3825L98.2593 22.8846H104L97.2317 15.1618L103.497 7.95698H98.0055L92.9345 13.9371V1.21243H88.4541Z" fill="#7E7E7E"/>
<path d="M65.5991 17.2744C64.9501 18.3307 63.6106 19.1157 62.1005 19.1157C60.0247 19.1157 58.3524 17.4594 58.3524 15.4126C58.3524 13.3658 60.0288 11.7094 62.1005 11.7094C63.6106 11.7094 64.9501 12.5355 65.5991 13.6124V17.2744ZM65.5991 7.96109V9.72018C64.8669 8.4995 63.0448 7.64873 61.1354 7.64873C57.1959 7.64873 54.0967 11.0847 54.0967 15.392C54.0967 19.6993 57.1959 23.1764 61.1354 23.1764C63.0407 23.1764 64.8628 22.3297 65.5991 21.1049V22.864H70.0836V7.96109H65.5991Z" fill="#7E7E7E"/>
<path fill-rule="evenodd" clip-rule="evenodd" d="M5.55306 17.2539C5.55306 18.7663 4.31754 19.987 2.78666 19.987C1.25578 19.987 0.0202637 18.7622 0.0202637 17.2539C0.0202637 15.7455 1.25578 14.5207 2.78666 14.5207H5.55306V17.2539ZM6.93418 17.2539C6.93418 15.7414 8.1697 14.5207 9.70058 14.5207C11.2315 14.5207 12.467 15.7414 12.467 17.2539V24.0847C12.467 25.5972 11.2315 26.8179 9.70058 26.8179C8.1697 26.8179 6.93418 25.5972 6.93418 24.0847V17.2539Z" fill="#7E7E7E"/>
<path fill-rule="evenodd" clip-rule="evenodd" d="M9.70112 6.2842C8.17024 6.2842 6.93472 5.06352 6.93472 3.55104C6.93472 2.03855 8.17024 0.817871 9.70112 0.817871C11.232 0.817871 12.4675 2.03855 12.4675 3.55104V6.2842H9.70112ZM9.70112 7.66928C11.232 7.66928 12.4675 8.88995 12.4675 10.4024C12.4675 11.9149 11.232 13.1356 9.70112 13.1356H2.7664C1.23552 13.1356 0 11.9108 0 10.4024C0 8.89406 1.23552 7.66928 2.7664 7.66928H9.70112Z" fill="#7E7E7E"/>
<path fill-rule="evenodd" clip-rule="evenodd" d="M20.7833 10.4024C20.7833 8.88995 22.0188 7.66928 23.5497 7.66928C25.0806 7.66928 26.3161 8.88995 26.3161 10.4024C26.3161 11.9149 25.0806 13.1356 23.5497 13.1356H20.7833V10.4024ZM19.4022 10.4024C19.4022 11.9149 18.1667 13.1356 16.6358 13.1356C15.1049 13.1356 13.8694 11.9149 13.8694 10.4024V3.55104C13.8694 2.03855 15.1049 0.817871 16.6358 0.817871C18.1667 0.817871 19.4022 2.03855 19.4022 3.55104V10.4024Z" fill="#7E7E7E"/>
<path fill-rule="evenodd" clip-rule="evenodd" d="M16.6358 21.3515C18.1667 21.3515 19.4022 22.5722 19.4022 24.0847C19.4022 25.5972 18.1667 26.8179 16.6358 26.8179C15.1049 26.8179 13.8694 25.5972 13.8694 24.0847V21.3515H16.6358ZM16.6358 19.987C15.1049 19.987 13.8694 18.7663 13.8694 17.2539C13.8694 15.7414 15.1049 14.5207 16.6358 14.5207H23.5705C25.1014 14.5207 26.3369 15.7414 26.3369 17.2539C26.3369 18.7663 25.1014 19.987 23.5705 19.987H16.6358Z" fill="#7E7E7E"/>
</g>
<defs>
<clipPath id="clip0">
<rect width="104" height="26" fill="white" transform="translate(0 0.817871)"/>
</clipPath>
</defs>
</svg>
