<svg width="108" height="33" viewBox="0 0 108 33" fill="none" xmlns="http://www.w3.org/2000/svg">
<g clip-path="url(#clip0)">
<path d="M16.8852 0.5C8.04884 0.5 0.885254 7.66339 0.885254 16.4997C0.885254 25.337 8.04884 32.5 16.8852 32.5C25.7219 32.5 32.8851 25.337 32.8851 16.4997C32.8851 7.66396 25.7222 0.500764 16.885 0.500764L16.8852 0.5ZM24.2226 23.5762C23.9353 24.0475 23.3212 24.1952 22.8514 23.908C19.0942 21.6117 14.3651 21.093 8.79568 22.3652C8.259 22.4883 7.72403 22.1518 7.60176 21.6153C7.47891 21.0786 7.81383 20.5437 8.35185 20.4214C14.4467 19.028 19.6746 19.6277 23.8919 22.2047C24.3619 22.4933 24.5109 23.1066 24.2224 23.5766L24.2226 23.5762ZM26.181 19.2202C25.8191 19.8073 25.0514 19.9915 24.4651 19.631C20.1653 16.9879 13.6087 16.2223 8.52171 17.7664C7.86198 17.9657 7.16519 17.5939 6.96495 16.9353C6.76625 16.2756 7.13825 15.5801 7.79683 15.3795C13.6075 13.6164 20.8311 14.4705 25.77 17.5055C26.3566 17.8666 26.5419 18.6346 26.1808 19.2204L26.181 19.2202ZM26.3491 14.6837C21.1916 11.6208 12.6845 11.3392 7.76109 12.8335C6.97049 13.0732 6.13441 12.6269 5.89482 11.8363C5.65523 11.0453 6.10117 10.2098 6.89234 9.96948C12.5441 8.25377 21.9394 8.58525 27.8764 12.1097C28.5875 12.5318 28.8208 13.4502 28.3993 14.1604C27.979 14.8715 27.0581 15.1059 26.3493 14.6837H26.3491ZM44.4157 15.2706C41.6532 14.6118 41.1614 14.1495 41.1614 13.1779C41.1614 12.2601 42.0255 11.6424 43.3106 11.6424C44.5563 11.6424 45.7915 12.1115 47.0865 13.0771C47.1257 13.1063 47.1748 13.1179 47.2231 13.1103C47.2715 13.1031 47.3143 13.0765 47.3425 13.0366L48.6914 11.1351C48.7468 11.0568 48.7317 10.9489 48.657 10.889C47.1157 9.65232 45.3802 9.05105 43.3515 9.05105C40.3687 9.05105 38.2852 10.8411 38.2852 13.4023C38.2852 16.1487 40.0825 17.1212 43.1883 17.8719C45.8318 18.4808 46.278 18.9909 46.278 19.9029C46.278 20.9134 45.3758 21.5416 43.9239 21.5416C42.3114 21.5416 40.9961 20.9984 39.5248 19.7242C39.4883 19.6927 39.4382 19.6784 39.392 19.681C39.3433 19.6851 39.2987 19.7076 39.2678 19.7449L37.7554 21.5448C37.6919 21.6195 37.7 21.7311 37.7733 21.7957C39.4852 23.324 41.5907 24.1312 43.8628 24.1312C47.077 24.1312 49.154 22.375 49.154 19.6568C49.1597 17.3622 47.786 16.0916 44.4214 15.2731L44.4157 15.2706ZM56.4257 12.5461C55.0325 12.5461 53.8898 13.0948 52.9475 14.2192V12.9536C52.9475 12.8537 52.8664 12.7723 52.7667 12.7723H50.2931C50.1931 12.7723 50.1123 12.8537 50.1123 12.9536V27.016C50.1123 27.1159 50.1931 27.1973 50.2931 27.1973H52.7667C52.8664 27.1973 52.9475 27.1159 52.9475 27.016V22.5771C53.89 23.6348 55.0329 24.1516 56.4257 24.1516C59.0144 24.1516 61.6349 22.1589 61.6349 18.3495C61.6388 14.5392 59.0174 12.5459 56.4286 12.5459L56.4257 12.5461ZM58.7585 18.3495C58.7585 20.2894 57.5636 21.643 55.8527 21.643C54.1613 21.643 52.8854 20.2279 52.8854 18.3495C52.8854 16.4714 54.1613 15.0561 55.8527 15.0561C57.5359 15.0559 58.7587 16.4407 58.7587 18.3493L58.7585 18.3495ZM68.3516 12.5461C65.0178 12.5461 62.4061 15.1132 62.4061 18.391C62.4061 21.6331 64.9999 24.1732 68.3108 24.1732C71.6564 24.1732 74.2762 21.6147 74.2762 18.3495C74.2762 15.0956 71.674 12.5465 68.3514 12.5465L68.3516 12.5461ZM68.3516 21.6623C66.5784 21.6623 65.2416 20.2376 65.2416 18.3486C65.2416 16.4515 66.5322 15.075 68.3108 15.075C70.0954 15.075 71.4413 16.4997 71.4413 18.39C71.4413 20.2867 70.1421 21.6623 68.3518 21.6623H68.3516ZM81.3953 12.7723H78.6732V9.98935C78.6732 9.88962 78.5926 9.80823 78.4927 9.80823H76.0194C75.9193 9.80823 75.8381 9.88962 75.8381 9.98935V12.7723H74.6488C74.5492 12.7723 74.4686 12.8537 74.4686 12.9536V15.0796C74.4686 15.1793 74.5492 15.2609 74.6488 15.2609H75.8381V20.7617C75.8381 22.9846 76.9445 24.1117 79.1266 24.1117C80.0139 24.1117 80.7501 23.9285 81.4438 23.5351C81.5002 23.5036 81.5351 23.4428 81.5351 23.3782V21.3538C81.5351 21.2913 81.5026 21.2323 81.4492 21.1996C81.3953 21.1658 81.3282 21.1641 81.273 21.1914C80.7965 21.4312 80.3358 21.5418 79.8209 21.5418C79.0273 21.5418 78.6732 21.1814 78.6732 20.3738V15.2618H81.3953C81.4952 15.2618 81.5756 15.1805 81.5756 15.0805V12.9548C81.5795 12.8549 81.4992 12.7735 81.398 12.7735L81.3953 12.7723ZM90.8795 12.7832V12.4414C90.8795 11.4359 91.265 10.9874 92.1298 10.9874C92.6455 10.9874 93.0597 11.0898 93.5236 11.2446C93.5807 11.2626 93.6403 11.2536 93.6867 11.2194C93.7345 11.1852 93.7614 11.1304 93.7614 11.0723V8.98781C93.7614 8.90813 93.7102 8.83764 93.6334 8.81413C93.1433 8.66835 92.5163 8.51875 91.5774 8.51875C89.2927 8.51875 88.085 9.80535 88.085 12.2381V12.7616H86.8967C86.7969 12.7616 86.7151 12.843 86.7151 12.9427V15.0796C86.7151 15.1793 86.7969 15.2609 86.8967 15.2609H88.085V23.7456C88.085 23.8455 88.1657 23.9269 88.2654 23.9269H90.7391C90.839 23.9269 90.9204 23.8455 90.9204 23.7456V15.2615H93.2299L96.7678 23.7441C96.3661 24.6354 95.9712 24.8127 95.4321 24.8127C94.9963 24.8127 94.5373 24.6826 94.0681 24.4258C94.0239 24.4015 93.9716 24.3975 93.924 24.4122C93.8768 24.4289 93.8371 24.464 93.817 24.5099L92.9787 26.3492C92.9387 26.4361 92.9729 26.5382 93.0566 26.5833C93.9318 27.0573 94.7219 27.2596 95.6984 27.2596C97.5249 27.2596 98.5345 26.4088 99.4244 24.1199L103.716 13.0308C103.737 12.975 103.731 12.912 103.697 12.8625C103.663 12.8134 103.608 12.7838 103.548 12.7838H100.973C100.896 12.7838 100.827 12.8329 100.801 12.9053L98.1635 20.4403L95.2741 12.9003C95.2477 12.8302 95.1801 12.7838 95.1052 12.7838H90.8789L90.8795 12.7832ZM85.3808 12.7723H82.9071C82.8072 12.7723 82.7258 12.8537 82.7258 12.9536V23.7456C82.7258 23.8456 82.8072 23.9269 82.9071 23.9269H85.3808C85.4805 23.9269 85.5621 23.8456 85.5621 23.7456V12.9544C85.5621 12.9306 85.5575 12.9069 85.5484 12.8849C85.5393 12.8629 85.5259 12.8428 85.509 12.826C85.4922 12.8091 85.4721 12.7958 85.4501 12.7867C85.428 12.7776 85.4044 12.773 85.3806 12.7731L85.3808 12.7723ZM84.158 7.85847C83.1781 7.85847 82.3829 8.65174 82.3829 9.63169C82.3829 10.6122 83.1783 11.4065 84.158 11.4065C85.1376 11.4065 85.932 10.6122 85.932 9.63169C85.932 8.65193 85.1372 7.85847 84.159 7.85847H84.158ZM105.828 16.2422C104.849 16.2422 104.087 15.4559 104.087 14.5012C104.087 13.5465 104.859 12.7513 105.837 12.7513C106.816 12.7513 107.578 13.5373 107.578 14.4913C107.578 15.446 106.806 16.2422 105.828 16.2422H105.828ZM105.838 12.9244C104.946 12.9244 104.271 13.6332 104.271 14.5012C104.271 15.3688 104.941 16.0681 105.829 16.0681C106.72 16.0681 107.395 15.3599 107.395 14.4913C107.395 13.6237 106.725 12.9244 105.838 12.9244H105.838ZM106.223 14.6703L106.716 15.3597H106.301L105.857 14.7272H105.476V15.3597H105.129V13.5324H105.944C106.368 13.5324 106.647 13.7496 106.647 14.1153C106.649 14.4149 106.475 14.5979 106.225 14.6703H106.223V14.6703ZM105.929 13.8459H105.476V14.4239H105.929C106.155 14.4239 106.291 14.3132 106.291 14.1346C106.291 13.9466 106.155 13.8459 105.929 13.8459H105.929V13.8459Z" fill="#7E7E7E"/>
</g>
<defs>
<clipPath id="clip0">
<rect width="106.693" height="32" fill="white" transform="translate(0.885254 0.499985)"/>
</clipPath>
</defs>
</svg>
