<svg width="67" height="29" viewBox="0 0 67 29" fill="none" xmlns="http://www.w3.org/2000/svg">
<g clip-path="url(#clip0)">
<path d="M4.70858 11.8899C4.70858 11.1644 5.30412 10.8852 6.29067 10.8852C7.705 10.8852 9.49162 11.3132 10.9061 12.0761V7.70334C9.36142 7.08935 7.83534 6.84744 6.29067 6.84744C2.5125 6.84744 0 8.81986 0 12.1134C0 17.2488 7.07216 16.4302 7.07216 18.6445C7.07216 19.5003 6.32784 19.7795 5.28554 19.7795C3.74088 19.7795 1.76804 19.1468 0.204664 18.2909V22.7194C1.93554 23.4637 3.685 23.7799 5.28554 23.7799C9.15662 23.7799 11.818 21.8635 11.818 18.5328C11.7995 12.9879 4.70858 13.974 4.70858 11.8899ZM17.2897 3.12608L12.7486 4.09357L12.73 18.9979C12.73 21.7519 14.7959 23.7799 17.5503 23.7799C19.0764 23.7799 20.193 23.5008 20.8072 23.1659V19.3887C20.2118 19.6306 17.2711 20.4865 17.2711 17.7326V11.1271H20.8072V7.16379H17.2711L17.2897 3.12608ZM26.5953 8.54066L26.2975 7.16379H22.2775V23.445H26.9303V12.411C28.0282 10.9783 29.8895 11.2388 30.4664 11.4434V7.16379C29.8709 6.94046 27.6934 6.53109 26.5953 8.54066ZM31.6016 7.16379H36.273V23.445H31.6016V7.16379ZM31.6016 5.74964L36.273 4.74485V0.967621L31.6016 1.95383V5.74951V5.74964ZM45.988 6.84744C44.1641 6.84744 42.9916 7.70334 42.3403 8.29889L42.0982 7.14522H38.0039V28.841L42.6566 27.8549L42.6753 22.5891C43.3453 23.0729 44.3316 23.7613 45.9695 23.7613C49.3009 23.7613 52.3345 21.0819 52.3345 15.1835C52.3159 9.78735 49.245 6.84744 45.988 6.84744ZM44.8714 19.6677C43.7734 19.6677 43.1218 19.2771 42.6753 18.7933L42.6566 11.8899C43.1405 11.3504 43.8105 10.9783 44.8714 10.9783C46.565 10.9783 47.7375 12.8762 47.7375 15.3137C47.7375 17.8071 46.5836 19.6677 44.8714 19.6677ZM67 15.3695C67 10.6061 64.6922 6.84744 60.2814 6.84744C55.8518 6.84744 53.1718 10.6062 53.1718 15.3324C53.1718 20.933 56.3359 23.7613 60.8768 23.7613C63.0916 23.7613 64.7666 23.2589 66.0322 22.5519V18.8304C64.7668 19.4631 63.315 19.8539 61.4725 19.8539C59.6672 19.8539 58.0666 19.2212 57.862 17.0256H66.9628C66.9628 16.7836 67 15.8161 67 15.3695ZM57.8061 13.6019C57.8061 11.4993 59.0903 10.6247 60.2628 10.6247C61.398 10.6247 62.6078 11.4993 62.6078 13.6019H57.8061Z" fill="#7E7E7E"/>
</g>
<defs>
<clipPath id="clip0">
<rect width="67" height="28" fill="white" transform="translate(0 0.966309)"/>
</clipPath>
</defs>
</svg>
