<svg width="67" height="29" viewBox="0 0 67 29" fill="none" xmlns="http://www.w3.org/2000/svg">
<g clip-path="url(#clip0)">
<g clip-path="url(#clip1)">
<path d="M4.70858 11.8899C4.70858 11.1643 5.30412 10.8851 6.29067 10.8851C7.705 10.8851 9.49162 11.3132 10.9061 12.0761V7.70331C9.36142 7.08932 7.83534 6.84741 6.29067 6.84741C2.5125 6.84741 0 8.81983 0 12.1134C0 17.2488 7.07216 16.4302 7.07216 18.6445C7.07216 19.5002 6.32784 19.7794 5.28554 19.7794C3.74088 19.7794 1.76804 19.1467 0.204664 18.2908V22.7193C1.93554 23.4636 3.685 23.7799 5.28554 23.7799C9.15662 23.7799 11.818 21.8634 11.818 18.5327C11.7995 12.9879 4.70858 13.9739 4.70858 11.8899ZM17.2897 3.12605L12.7486 4.09354L12.73 18.9979C12.73 21.7519 14.7959 23.7799 17.5503 23.7799C19.0764 23.7799 20.193 23.5008 20.8072 23.1659V19.3886C20.2118 19.6306 17.2711 20.4865 17.2711 17.7326V11.127H20.8072V7.16376H17.2711L17.2897 3.12605ZM26.5953 8.54063L26.2975 7.16376H22.2775V23.4449H26.9303V12.411C28.0282 10.9783 29.8895 11.2388 30.4664 11.4434V7.16376C29.8709 6.94043 27.6934 6.53106 26.5953 8.54063ZM31.6016 7.16376H36.273V23.4449H31.6016V7.16376ZM31.6016 5.74961L36.273 4.74482V0.96759L31.6016 1.9538V5.74948V5.74961ZM45.988 6.84741C44.1641 6.84741 42.9916 7.70331 42.3403 8.29886L42.0982 7.14518H38.0039V28.8409L42.6566 27.8549L42.6753 22.589C43.3453 23.0729 44.3316 23.7613 45.9695 23.7613C49.3009 23.7613 52.3345 21.0819 52.3345 15.1835C52.3159 9.78732 49.245 6.84741 45.988 6.84741ZM44.8714 19.6677C43.7734 19.6677 43.1218 19.277 42.6753 18.7932L42.6566 11.8899C43.1405 11.3504 43.8105 10.9783 44.8714 10.9783C46.565 10.9783 47.7375 12.8761 47.7375 15.3136C47.7375 17.807 46.5836 19.6677 44.8714 19.6677ZM67 15.3695C67 10.6061 64.6922 6.84741 60.2814 6.84741C55.8518 6.84741 53.1718 10.6062 53.1718 15.3323C53.1718 20.933 56.3359 23.7613 60.8768 23.7613C63.0916 23.7613 64.7666 23.2589 66.0322 22.5519V18.8304C64.7668 19.4631 63.315 19.8539 61.4725 19.8539C59.6672 19.8539 58.0666 19.2212 57.862 17.0256H66.9628C66.9628 16.7835 67 15.816 67 15.3695ZM57.8061 13.6018C57.8061 11.4993 59.0903 10.6246 60.2628 10.6246C61.398 10.6246 62.6078 11.4993 62.6078 13.6018H57.8061Z" fill="#6772E5"/>
</g>
</g>
<defs>
<clipPath id="clip0">
<rect width="67" height="28" fill="white" transform="translate(0 0.966309)"/>
</clipPath>
<clipPath id="clip1">
<rect width="67" height="28" fill="white" transform="translate(0 0.966309)"/>
</clipPath>
</defs>
</svg>
