<svg width="24" height="25" viewBox="0 0 24 25" fill="none" xmlns="http://www.w3.org/2000/svg">
<path fill-rule="evenodd" clip-rule="evenodd" d="M13.6348 21.6135V13.6522H16.3582L16.7668 10.5487H13.6348V8.56749C13.6348 7.66922 13.8881 7.05706 15.2029 7.05706L16.877 7.05638V4.28045C16.5875 4.24354 15.5937 4.15894 14.437 4.15894C12.0216 4.15894 10.368 5.60501 10.368 8.26012V10.5487H7.63635V13.6522H10.368V21.6135H13.6348Z" fill="#7E7E7E"/>
<mask id="mask0" style="mask-type:alpha" maskUnits="userSpaceOnUse" x="7" y="4" width="10" height="18">
<path fill-rule="evenodd" clip-rule="evenodd" d="M13.6348 21.6135V13.6522H16.3582L16.7668 10.5487H13.6348V8.56749C13.6348 7.66922 13.8881 7.05706 15.2029 7.05706L16.877 7.05638V4.28045C16.5875 4.24354 15.5937 4.15894 14.437 4.15894C12.0216 4.15894 10.368 5.60501 10.368 8.26012V10.5487H7.63635V13.6522H10.368V21.6135H13.6348Z" fill="white"/>
</mask>
<g mask="url(#mask0)">
</g>
</svg>
