<svg width="25" height="25" viewBox="0 0 25 25" fill="none" xmlns="http://www.w3.org/2000/svg">
<path fill-rule="evenodd" clip-rule="evenodd" d="M13.7485 20.9057V12.9445H16.4718L16.8804 9.8409H13.7485V7.85973C13.7485 6.96145 14.0017 6.34929 15.3165 6.34929L16.9906 6.34862V3.57268C16.7011 3.53578 15.7073 3.45117 14.5506 3.45117C12.1352 3.45117 10.4816 4.89725 10.4816 7.55235V9.8409H7.75V12.9445H10.4816V20.9057H13.7485Z" fill="#FFEC3E"/>
<mask id="mask0" style="mask-type:alpha" maskUnits="userSpaceOnUse" x="7" y="3" width="10" height="18">
<path fill-rule="evenodd" clip-rule="evenodd" d="M13.7485 20.9057V12.9445H16.4718L16.8804 9.8409H13.7485V7.85973C13.7485 6.96145 14.0017 6.34929 15.3165 6.34929L16.9906 6.34862V3.57268C16.7011 3.53578 15.7073 3.45117 14.5506 3.45117C12.1352 3.45117 10.4816 4.89725 10.4816 7.55235V9.8409H7.75V12.9445H10.4816V20.9057H13.7485Z" fill="white"/>
</mask>
<g mask="url(#mask0)">
</g>
</svg>
