<svg width="24" height="25" viewBox="0 0 24 25" fill="none" xmlns="http://www.w3.org/2000/svg">
<path d="M12 3.88623C7.0275 3.88623 3 8.01834 3 13.1146C3 17.1927 5.5785 20.651 9.15375 21.8703C9.60375 21.9572 9.76875 21.6715 9.76875 21.4266C9.76875 21.2075 9.76125 20.6268 9.7575 19.8575C7.254 20.4139 6.726 18.6194 6.726 18.6194C6.3165 17.5543 5.72475 17.2694 5.72475 17.2694C4.9095 16.6973 5.78775 16.7091 5.78775 16.7091C6.6915 16.7733 7.16625 17.6599 7.16625 17.6599C7.96875 19.071 9.273 18.6632 9.7875 18.4277C9.8685 17.8305 10.1003 17.4244 10.3575 17.1935C8.35875 16.9626 6.258 16.1691 6.258 12.6333C6.258 11.6261 6.60675 10.8028 7.18425 10.1572C7.083 9.92397 6.77925 8.98563 7.263 7.7147C7.263 7.7147 8.01675 7.46739 9.738 8.66085C10.458 8.45581 11.223 8.35408 11.988 8.34938C12.753 8.35408 13.518 8.45581 14.238 8.66085C15.948 7.46739 16.7017 7.7147 16.7017 7.7147C17.1855 8.98563 16.8818 9.92397 16.7917 10.1572C17.3655 10.8028 17.7142 11.6261 17.7142 12.6333C17.7142 16.1785 15.6105 16.9587 13.608 17.1857C13.923 17.4627 14.2155 18.0285 14.2155 18.8933C14.2155 20.1282 14.2043 21.1206 14.2043 21.4203C14.2043 21.6621 14.3617 21.9509 14.823 21.8586C18.4237 20.6471 21 17.1865 21 13.1146C21 8.01834 16.9703 3.88623 12 3.88623Z" fill="#7E7E7E"/>
</svg>
