<svg width="25" height="25" viewBox="0 0 25 25" fill="none" xmlns="http://www.w3.org/2000/svg">
<path d="M12.1138 3.17847C7.14127 3.17847 3.11377 7.31058 3.11377 12.4069C3.11377 16.485 5.69227 19.9433 9.26752 21.1625C9.71752 21.2494 9.88252 20.9638 9.88252 20.7188C9.88252 20.4997 9.87502 19.919 9.87127 19.1497C7.36777 19.7061 6.83977 17.9116 6.83977 17.9116C6.43027 16.8465 5.83852 16.5617 5.83852 16.5617C5.02327 15.9896 5.90152 16.0013 5.90152 16.0013C6.80527 16.0655 7.28002 16.9522 7.28002 16.9522C8.08252 18.3632 9.38677 17.9555 9.90127 17.7199C9.98227 17.1228 10.214 16.7166 10.4713 16.4857C8.47252 16.2549 6.37177 15.4613 6.37177 11.9256C6.37177 10.9184 6.72052 10.0951 7.29802 9.44942C7.19677 9.2162 6.89302 8.27787 7.37677 7.00693C7.37677 7.00693 8.13052 6.75963 9.85177 7.95309C10.5718 7.74805 11.3368 7.64631 12.1018 7.64162C12.8668 7.64631 13.6318 7.74805 14.3518 7.95309C16.0618 6.75963 16.8155 7.00693 16.8155 7.00693C17.2993 8.27787 16.9955 9.2162 16.9055 9.44942C17.4793 10.0951 17.828 10.9184 17.828 11.9256C17.828 15.4707 15.7243 16.251 13.7218 16.4779C14.0368 16.755 14.3293 17.3208 14.3293 18.1855C14.3293 19.4205 14.318 20.4128 14.318 20.7126C14.318 20.9544 14.4755 21.2432 14.9368 21.1508C18.5375 19.9393 21.1138 16.4787 21.1138 12.4069C21.1138 7.31058 17.084 3.17847 12.1138 3.17847Z" fill="#FFEC3E"/>
</svg>
