<svg width="25" height="25" viewBox="0 0 25 25" fill="none" xmlns="http://www.w3.org/2000/svg">
<path fill-rule="evenodd" clip-rule="evenodd" d="M7.71422 2.36023H16.5127C19.5009 2.36023 21.9319 4.79123 21.9318 7.77916V16.5777C21.9318 19.5656 19.5009 21.9966 16.5127 21.9966H7.71422C4.72629 21.9966 2.29541 19.5657 2.29541 16.5777V7.77916C2.29541 4.79123 4.72629 2.36023 7.71422 2.36023ZM16.5128 20.2544C18.5402 20.2544 20.1897 18.605 20.1897 16.5777H20.1895V7.77916C20.1895 5.75189 18.5401 4.10246 16.5127 4.10246H7.71422C5.68696 4.10246 4.03764 5.75189 4.03764 7.77916V16.5777C4.03764 18.605 5.68696 20.2545 7.71422 20.2544H16.5128ZM6.97073 12.1785C6.97073 9.34265 9.27778 7.03555 12.1136 7.03555C14.9494 7.03555 17.2564 9.34265 17.2564 12.1785C17.2564 15.0143 14.9494 17.3213 12.1136 17.3213C9.27778 17.3213 6.97073 15.0143 6.97073 12.1785ZM8.74157 12.1784C8.74157 14.0377 10.2543 15.5503 12.1136 15.5503C13.9729 15.5503 15.4856 14.0377 15.4856 12.1784C15.4856 10.319 13.973 8.80631 12.1136 8.80631C10.2542 8.80631 8.74157 10.319 8.74157 12.1784Z" fill="#FFEC3E"/>
<mask id="mask0" style="mask-type:alpha" maskUnits="userSpaceOnUse" x="2" y="2" width="20" height="20">
<path fill-rule="evenodd" clip-rule="evenodd" d="M7.71422 2.36023H16.5127C19.5009 2.36023 21.9319 4.79123 21.9318 7.77916V16.5777C21.9318 19.5656 19.5009 21.9966 16.5127 21.9966H7.71422C4.72629 21.9966 2.29541 19.5657 2.29541 16.5777V7.77916C2.29541 4.79123 4.72629 2.36023 7.71422 2.36023ZM16.5128 20.2544C18.5402 20.2544 20.1897 18.605 20.1897 16.5777H20.1895V7.77916C20.1895 5.75189 18.5401 4.10246 16.5127 4.10246H7.71422C5.68696 4.10246 4.03764 5.75189 4.03764 7.77916V16.5777C4.03764 18.605 5.68696 20.2545 7.71422 20.2544H16.5128ZM6.97073 12.1785C6.97073 9.34265 9.27778 7.03555 12.1136 7.03555C14.9494 7.03555 17.2564 9.34265 17.2564 12.1785C17.2564 15.0143 14.9494 17.3213 12.1136 17.3213C9.27778 17.3213 6.97073 15.0143 6.97073 12.1785ZM8.74157 12.1784C8.74157 14.0377 10.2543 15.5503 12.1136 15.5503C13.9729 15.5503 15.4856 14.0377 15.4856 12.1784C15.4856 10.319 13.973 8.80631 12.1136 8.80631C10.2542 8.80631 8.74157 10.319 8.74157 12.1784Z" fill="white"/>
</mask>
<g mask="url(#mask0)">
</g>
</svg>
