<svg width="24" height="25" viewBox="0 0 24 25" fill="none" xmlns="http://www.w3.org/2000/svg">
<path fill-rule="evenodd" clip-rule="evenodd" d="M7.60063 3.06799H16.3991C19.3873 3.06799 21.8183 5.49899 21.8182 8.48692V17.2854C21.8182 20.2734 19.3873 22.7044 16.3991 22.7044H7.60063C4.6127 22.7044 2.18182 20.2735 2.18182 17.2854V8.48692C2.18182 5.49899 4.6127 3.06799 7.60063 3.06799ZM16.3993 20.9621C18.4266 20.9621 20.0761 19.3128 20.0761 17.2854H20.076V8.48692C20.076 6.45966 18.4265 4.81023 16.3991 4.81023H7.60063C5.57337 4.81023 3.92406 6.45966 3.92406 8.48692V17.2854C3.92406 19.3128 5.57337 20.9622 7.60063 20.9621H16.3993ZM6.85715 12.8863C6.85715 10.0504 9.16419 7.74332 12 7.74332C14.8358 7.74332 17.1429 10.0504 17.1429 12.8863C17.1429 15.7221 14.8358 18.029 12 18.029C9.16419 18.029 6.85715 15.7221 6.85715 12.8863ZM8.62799 12.8862C8.62799 14.7455 10.1407 16.258 12 16.258C13.8593 16.258 15.372 14.7455 15.372 12.8862C15.372 11.0268 13.8594 9.51408 12 9.51408C10.1406 9.51408 8.62799 11.0268 8.62799 12.8862Z" fill="#7E7E7E"/>
<mask id="mask0" style="mask-type:alpha" maskUnits="userSpaceOnUse" x="2" y="3" width="20" height="20">
<path fill-rule="evenodd" clip-rule="evenodd" d="M7.60063 3.06799H16.3991C19.3873 3.06799 21.8183 5.49899 21.8182 8.48692V17.2854C21.8182 20.2734 19.3873 22.7044 16.3991 22.7044H7.60063C4.6127 22.7044 2.18182 20.2735 2.18182 17.2854V8.48692C2.18182 5.49899 4.6127 3.06799 7.60063 3.06799ZM16.3993 20.9621C18.4266 20.9621 20.0761 19.3128 20.0761 17.2854H20.076V8.48692C20.076 6.45966 18.4265 4.81023 16.3991 4.81023H7.60063C5.57337 4.81023 3.92406 6.45966 3.92406 8.48692V17.2854C3.92406 19.3128 5.57337 20.9622 7.60063 20.9621H16.3993ZM6.85715 12.8863C6.85715 10.0504 9.16419 7.74332 12 7.74332C14.8358 7.74332 17.1429 10.0504 17.1429 12.8863C17.1429 15.7221 14.8358 18.029 12 18.029C9.16419 18.029 6.85715 15.7221 6.85715 12.8863ZM8.62799 12.8862C8.62799 14.7455 10.1407 16.258 12 16.258C13.8593 16.258 15.372 14.7455 15.372 12.8862C15.372 11.0268 13.8594 9.51408 12 9.51408C10.1406 9.51408 8.62799 11.0268 8.62799 12.8862Z" fill="white"/>
</mask>
<g mask="url(#mask0)">
</g>
</svg>
