<svg width="24" height="25" viewBox="0 0 24 25" fill="none" xmlns="http://www.w3.org/2000/svg">
<path d="M19.2 3.88623H4.8C3.81 3.88623 3 4.69623 3 5.68623V20.0862C3 21.0762 3.81 21.8862 4.8 21.8862H19.2C20.19 21.8862 21 21.0762 21 20.0862V5.68623C21 4.69623 20.19 3.88623 19.2 3.88623ZM8.4 19.1862H5.7V11.0862H8.4V19.1862ZM7.05 9.55623C6.15 9.55623 5.43 8.83623 5.43 7.93623C5.43 7.03623 6.15 6.31623 7.05 6.31623C7.95 6.31623 8.67 7.03623 8.67 7.93623C8.67 8.83623 7.95 9.55623 7.05 9.55623ZM18.3 19.1862H15.6V14.4162C15.6 13.6963 14.97 13.0662 14.25 13.0662C13.53 13.0662 12.9 13.6963 12.9 14.4162V19.1862H10.2V11.0862H12.9V12.1662C13.35 11.4462 14.34 10.9062 15.15 10.9062C16.86 10.9062 18.3 12.3462 18.3 14.0562V19.1862Z" fill="#7E7E7E"/>
</svg>
