<svg width="25" height="25" viewBox="0 0 25 25" fill="none" xmlns="http://www.w3.org/2000/svg">
<path d="M19.3138 3.17847H4.91377C3.92377 3.17847 3.11377 3.98847 3.11377 4.97847V19.3785C3.11377 20.3685 3.92377 21.1785 4.91377 21.1785H19.3138C20.3038 21.1785 21.1138 20.3685 21.1138 19.3785V4.97847C21.1138 3.98847 20.3038 3.17847 19.3138 3.17847ZM8.51377 18.4785H5.81377V10.3785H8.51377V18.4785ZM7.16377 8.84847C6.26377 8.84847 5.54377 8.12847 5.54377 7.22847C5.54377 6.32847 6.26377 5.60847 7.16377 5.60847C8.06377 5.60847 8.78377 6.32847 8.78377 7.22847C8.78377 8.12847 8.06377 8.84847 7.16377 8.84847ZM18.4138 18.4785H15.7138V13.7085C15.7138 12.9885 15.0838 12.3585 14.3638 12.3585C13.6438 12.3585 13.0138 12.9885 13.0138 13.7085V18.4785H10.3138V10.3785H13.0138V11.4585C13.4638 10.7385 14.4538 10.1985 15.2638 10.1985C16.9738 10.1985 18.4138 11.6385 18.4138 13.3485V18.4785Z" fill="#FFEC3E"/>
</svg>
