<svg width="25" height="25" viewBox="0 0 25 25" fill="none" xmlns="http://www.w3.org/2000/svg">
<path fill-rule="evenodd" clip-rule="evenodd" d="M21.9321 6.32445C21.2496 6.6269 20.5172 6.83202 19.7477 6.9236C20.5334 6.45308 21.1348 5.70678 21.4199 4.82024C20.6829 5.25596 19.8693 5.57236 19.0025 5.74387C18.3083 5.00336 17.321 4.54211 16.2258 4.54211C14.1248 4.54211 12.4212 6.24566 12.4212 8.34554C12.4212 8.64336 12.4548 8.93424 12.5197 9.21239C9.35836 9.0536 6.55505 7.53896 4.67884 5.23742C4.35087 5.79833 4.16429 6.4519 4.16429 7.14957C4.16429 8.46954 4.83645 9.63421 5.85626 10.3156C5.23278 10.2948 4.64639 10.1232 4.13302 9.83814V9.88566C4.13302 11.7283 5.44487 13.2661 7.18432 13.6161C6.86563 13.7018 6.52957 13.7494 6.1819 13.7494C5.93623 13.7494 5.69866 13.725 5.46572 13.6787C5.95011 15.191 7.35469 16.2908 9.01884 16.3209C7.71742 17.3407 6.07645 17.9468 4.29411 17.9468C3.98702 17.9468 3.68454 17.9283 3.38672 17.8947C5.07057 18.9759 7.06963 19.6063 9.21817 19.6063C16.2166 19.6063 20.0421 13.8096 20.0421 8.78245L20.0293 8.28993C20.7767 7.75681 21.4234 7.08699 21.9321 6.32445Z" fill="#FFEC3E"/>
<mask id="mask0" style="mask-type:alpha" maskUnits="userSpaceOnUse" x="3" y="4" width="19" height="16">
<path fill-rule="evenodd" clip-rule="evenodd" d="M21.9321 6.32445C21.2496 6.6269 20.5172 6.83202 19.7477 6.9236C20.5334 6.45308 21.1348 5.70678 21.4199 4.82024C20.6829 5.25596 19.8693 5.57236 19.0025 5.74387C18.3083 5.00336 17.321 4.54211 16.2258 4.54211C14.1248 4.54211 12.4212 6.24566 12.4212 8.34554C12.4212 8.64336 12.4548 8.93424 12.5197 9.21239C9.35836 9.0536 6.55505 7.53896 4.67884 5.23742C4.35087 5.79833 4.16429 6.4519 4.16429 7.14957C4.16429 8.46954 4.83645 9.63421 5.85626 10.3156C5.23278 10.2948 4.64639 10.1232 4.13302 9.83814V9.88566C4.13302 11.7283 5.44487 13.2661 7.18432 13.6161C6.86563 13.7018 6.52957 13.7494 6.1819 13.7494C5.93623 13.7494 5.69866 13.725 5.46572 13.6787C5.95011 15.191 7.35469 16.2908 9.01884 16.3209C7.71742 17.3407 6.07645 17.9468 4.29411 17.9468C3.98702 17.9468 3.68454 17.9283 3.38672 17.8947C5.07057 18.9759 7.06963 19.6063 9.21817 19.6063C16.2166 19.6063 20.0421 13.8096 20.0421 8.78245L20.0293 8.28993C20.7767 7.75681 21.4234 7.08699 21.9321 6.32445Z" fill="white"/>
</mask>
<g mask="url(#mask0)">
</g>
</svg>
