<svg width="24" height="25" viewBox="0 0 24 25" fill="none" xmlns="http://www.w3.org/2000/svg">
<path fill-rule="evenodd" clip-rule="evenodd" d="M21.8182 7.03221C21.1356 7.33467 20.4032 7.53979 19.6337 7.63136C20.4194 7.16085 21.0209 6.41454 21.3059 5.528C20.5689 5.96373 19.7553 6.28012 18.8885 6.45164C18.1943 5.71112 17.207 5.24988 16.1118 5.24988C14.0108 5.24988 12.3073 6.95342 12.3073 9.0533C12.3073 9.35112 12.3409 9.642 12.4058 9.92015C9.24437 9.76136 6.44107 8.24673 4.56486 5.94518C4.23689 6.50609 4.05031 7.15967 4.05031 7.85733C4.05031 9.1773 4.72246 10.342 5.74228 11.0234C5.1188 11.0025 4.5324 10.831 4.01904 10.5459V10.5934C4.01904 12.436 5.33089 13.9738 7.07034 14.3238C6.75164 14.4096 6.41558 14.4571 6.06792 14.4571C5.82225 14.4571 5.58468 14.4328 5.35174 14.3864C5.83613 15.8988 7.24071 16.9985 8.90486 17.0287C7.60343 18.0485 5.96246 18.6546 4.18013 18.6546C3.87304 18.6546 3.57055 18.636 3.27274 18.6024C4.95658 19.6837 6.95564 20.3141 9.10419 20.3141C16.1026 20.3141 19.9281 14.5174 19.9281 9.49021L19.9153 8.9977C20.6628 8.46457 21.3094 7.79476 21.8182 7.03221Z" fill="#7E7E7E"/>
<mask id="mask0" style="mask-type:alpha" maskUnits="userSpaceOnUse" x="3" y="5" width="19" height="16">
<path fill-rule="evenodd" clip-rule="evenodd" d="M21.8182 7.03221C21.1356 7.33467 20.4032 7.53979 19.6337 7.63136C20.4194 7.16085 21.0209 6.41454 21.3059 5.528C20.5689 5.96373 19.7553 6.28012 18.8885 6.45164C18.1943 5.71112 17.207 5.24988 16.1118 5.24988C14.0108 5.24988 12.3073 6.95342 12.3073 9.0533C12.3073 9.35112 12.3409 9.642 12.4058 9.92015C9.24437 9.76136 6.44107 8.24673 4.56486 5.94518C4.23689 6.50609 4.05031 7.15967 4.05031 7.85733C4.05031 9.1773 4.72246 10.342 5.74228 11.0234C5.1188 11.0025 4.5324 10.831 4.01904 10.5459V10.5934C4.01904 12.436 5.33089 13.9738 7.07034 14.3238C6.75164 14.4096 6.41558 14.4571 6.06792 14.4571C5.82225 14.4571 5.58468 14.4328 5.35174 14.3864C5.83613 15.8988 7.24071 16.9985 8.90486 17.0287C7.60343 18.0485 5.96246 18.6546 4.18013 18.6546C3.87304 18.6546 3.57055 18.636 3.27274 18.6024C4.95658 19.6837 6.95564 20.3141 9.10419 20.3141C16.1026 20.3141 19.9281 14.5174 19.9281 9.49021L19.9153 8.9977C20.6628 8.46457 21.3094 7.79476 21.8182 7.03221Z" fill="white"/>
</mask>
<g mask="url(#mask0)">
</g>
</svg>
