<svg width="121" height="25" viewBox="0 0 121 25" fill="none" xmlns="http://www.w3.org/2000/svg">
<g clip-path="url(#clip0)">
<path d="M14.042 5.32481L7.021 9.75155L14.042 14.1783L7.021 18.605L1.52588e-05 14.1414L7.021 9.71466L1.52588e-05 5.32481L7.021 0.898071L14.042 5.32481ZM6.98366 20.0068L14.0046 15.5801L21.0256 20.0068L14.0046 24.4336L6.98366 20.0068ZM14.042 14.1414L21.063 9.71466L14.042 5.32481L21.0256 0.898071L28.0466 5.32481L21.0256 9.75155L28.0466 14.1783L21.0256 18.605L14.042 14.1414Z" fill="#4D4D4D"/>
<path d="M33.5363 5.32365H39.2128C42.8354 5.32365 45.823 7.38946 45.823 12.1113V13.1073C45.823 17.8661 43.0221 20.0057 39.3249 20.0057H33.5363V5.32365ZM36.7107 7.97969V17.3127H39.1382C41.1922 17.3127 42.574 15.9847 42.574 13.0336V12.2589C42.574 9.30772 41.1175 7.97969 39.0261 7.97969H36.7107ZM47.5036 8.12725H50.0431L50.4539 10.894C50.9394 9.0126 52.1718 8.01658 54.4125 8.01658H55.1968V11.1891H53.8897C51.3128 11.1891 50.678 12.0744 50.678 14.5829V20.0426H47.5409V8.12725H47.5036ZM55.8317 14.3247V13.9927C55.8317 10.0086 58.4085 7.83214 61.919 7.83214C65.5042 7.83214 68.0064 10.0086 68.0064 13.9927V14.3247C68.0064 18.235 65.5789 20.3377 61.919 20.3377C58.0351 20.3008 55.8317 18.235 55.8317 14.3247ZM64.7946 14.2878V13.9927C64.7946 11.7793 63.6743 10.4513 61.8817 10.4513C60.1264 10.4513 58.9687 11.6686 58.9687 13.9927V14.2878C58.9687 16.4274 60.0891 17.6447 61.8817 17.6447C63.6743 17.6079 64.7946 16.4274 64.7946 14.2878ZM69.6496 8.12725H72.2638L72.5625 10.3775C73.1974 8.86504 74.5419 7.83214 76.5212 7.83214C79.5835 7.83214 81.6002 10.0086 81.6002 14.0296V14.3616C81.6002 18.2719 79.3594 20.3377 76.5212 20.3377C74.6165 20.3377 73.3094 19.4892 72.6746 18.1243V24.1373H69.6122L69.6496 8.12725ZM78.4258 14.2878V14.0296C78.4258 11.6686 77.1934 10.4882 75.5502 10.4882C73.7949 10.4882 72.6372 11.8162 72.6372 14.0296V14.2509C72.6372 16.3536 73.7576 17.6816 75.5128 17.6816C77.3054 17.6447 78.4258 16.5012 78.4258 14.2878ZM86.231 17.8292L85.9696 20.0057H83.2807V4.14319H86.3431V10.23C87.0153 8.68059 88.3598 7.83214 90.2644 7.83214C93.14 7.86903 95.2687 9.82417 95.2687 13.7713V14.1402C95.2687 18.0874 93.252 20.3377 90.1897 20.3377C88.173 20.3008 86.8659 19.3785 86.231 17.8292ZM92.057 14.1402V13.8451C92.057 11.6686 90.8619 10.4513 89.1814 10.4513C87.4635 10.4513 86.2684 11.8162 86.2684 13.882V14.1402C86.2684 16.3536 87.4261 17.6447 89.144 17.6447C90.9739 17.6447 92.057 16.5012 92.057 14.1402ZM96.6132 14.3247V13.9927C96.6132 10.0086 99.19 7.83214 102.7 7.83214C106.286 7.83214 108.788 10.0086 108.788 13.9927V14.3247C108.788 18.235 106.323 20.3377 102.7 20.3377C98.8165 20.3008 96.6132 18.235 96.6132 14.3247ZM105.613 14.2878V13.9927C105.613 11.7793 104.493 10.4513 102.7 10.4513C100.945 10.4513 99.7875 11.6686 99.7875 13.9927V14.2878C99.7875 16.4274 100.908 17.6447 102.7 17.6447C104.493 17.6079 105.613 16.4274 105.613 14.2878ZM112.896 13.8451L108.676 8.12725H112.298L114.726 11.7055L117.191 8.12725H120.776L116.481 13.8082L121 20.0057H117.452L114.688 16.0585L112 20.0057H108.302L112.896 13.8451Z" fill="#4D4D4D"/>
</g>
<defs>
<clipPath id="clip0">
<rect width="121" height="24" fill="white" transform="translate(0 0.885986)"/>
</clipPath>
</defs>
</svg>
