<svg width="86" height="24" viewBox="0 0 86 24" fill="none" xmlns="http://www.w3.org/2000/svg">
<g clip-path="url(#clip0)">
<path d="M11.8253 22.399C10.5316 22.6237 9.2151 22.691 7.8533 22.8704L3.6996 10.8379V23.3869C2.4059 23.5215 1.22567 23.7011 0 23.8807V0.892944H3.45008L8.17101 13.936V0.892944H11.8253V22.399ZM18.9749 9.31131C20.3823 9.31131 22.5385 9.24395 23.8322 9.24395V12.8357C22.2206 12.8357 20.3368 12.8357 18.9749 12.9031V18.246C21.1085 18.1114 23.2421 17.9316 25.3982 17.8642V21.3212L15.3433 22.1071V0.892944H25.3982V4.48478H18.9749V9.31131ZM38.9031 4.48487H35.1354V21.0073C33.9097 21.0073 32.684 21.0073 31.504 21.0521V4.48487H27.7363V0.892944H38.9032L38.9031 4.48487ZM44.8043 9.06444H49.7751V12.6562H44.8043V20.8053H41.2406V0.892944H51.3866V4.48478H44.8043V9.06444ZM57.2878 17.6623C59.3534 17.7071 61.4414 17.8645 63.4615 17.9765V21.5235C60.2159 21.3214 56.9701 21.1196 53.6564 21.0521V0.892944H57.2878V17.6623ZM66.5256 21.7705C67.6832 21.8379 68.9088 21.9053 70.0891 22.0398V0.892944H66.5256V21.7705ZM86 0.892944L81.3924 11.8256L86 23.8807C84.638 23.7011 83.2762 23.4541 81.9143 23.2296L79.3043 16.5849L76.6489 22.691C75.3322 22.4663 74.0612 22.399 72.745 22.2194L77.4206 11.6908L73.1988 0.892944H77.1025L79.4857 6.93173L82.028 0.892944H86Z" fill="#4D4D4D"/>
</g>
<defs>
<clipPath id="clip0">
<rect width="86" height="23" fill="white" transform="translate(0 0.885986)"/>
</clipPath>
</defs>
</svg>
