<svg width="96" height="25" viewBox="0 0 96 25" fill="none" xmlns="http://www.w3.org/2000/svg">
<g clip-path="url(#clip0)">
<path fill-rule="evenodd" clip-rule="evenodd" d="M30.7123 19.7833L31.9104 17.0327C33.2045 17.9888 34.9286 18.4858 36.6297 18.4858C37.8854 18.4858 38.6803 18.0078 38.6803 17.2831C38.6611 15.2572 31.1577 16.843 31.1001 11.7631C31.0809 9.18322 33.4003 7.19523 36.6873 7.19523C38.6419 7.19523 40.5926 7.67326 41.9866 8.7621L40.8653 11.5696C39.5904 10.7653 38.0045 10.1924 36.4953 10.1924C35.4701 10.1924 34.7942 10.6704 34.7942 11.2812C34.8134 13.2692 42.3744 12.1804 42.4512 17.0327C42.4512 19.6695 40.1894 21.5247 36.9408 21.5247C34.56 21.5209 32.375 20.967 30.7123 19.7833ZM76.7194 16.0387C76.1203 17.0707 74.999 17.7763 73.7011 17.7763C71.785 17.7763 70.2413 16.2474 70.2413 14.3581C70.2413 12.4687 71.7888 10.9398 73.7011 10.9398C74.9952 10.9398 76.1203 11.6454 76.7194 12.6774L80.0256 10.8639C78.7891 8.68622 76.4083 7.19523 73.7011 7.19523C69.696 7.19523 66.4474 10.4048 66.4474 14.3618C66.4474 18.3189 69.696 21.5285 73.7011 21.5285C76.4275 21.5285 78.7891 20.0564 80.0256 17.8598L76.7194 16.0387ZM44.1139 1.25024H48.2534V21.2553H44.1139V1.25024ZM81.6499 1.25024V21.2553H85.7894V15.2534L90.7008 21.2553H96L89.7523 14.1266L95.5354 7.47598H90.4665L85.7856 12.9961V1.25024H81.6499Z" fill="#4D4D4D"/>
<path d="M60.5531 16.0765C59.9541 17.0515 58.7176 17.7762 57.3237 17.7762C55.4075 17.7762 53.8638 16.2472 53.8638 14.3579C53.8638 12.4686 55.4114 10.9396 57.3237 10.9396C58.7176 10.9396 59.9541 11.7022 60.5531 12.6962V16.0765ZM60.5531 7.47962V9.10339C59.8773 7.97661 58.1953 7.19128 56.4328 7.19128C52.7963 7.19128 49.9355 10.363 49.9355 14.3389C49.9355 18.3149 52.7963 21.5245 56.4328 21.5245C58.1915 21.5245 59.8734 20.743 60.5531 19.6124V21.2362H64.6926V7.47962H60.5531Z" fill="#4D4D4D"/>
<path fill-rule="evenodd" clip-rule="evenodd" d="M5.12663 16.0576C5.12663 17.4537 3.98615 18.5805 2.57303 18.5805C1.15991 18.5805 0.0194321 17.4499 0.0194321 16.0576C0.0194321 14.6652 1.15991 13.5347 2.57303 13.5347H5.12663V16.0576ZM6.40151 16.0576C6.40151 14.6614 7.54199 13.5347 8.95511 13.5347C10.3682 13.5347 11.5087 14.6614 11.5087 16.0576V22.363C11.5087 23.7591 10.3682 24.8859 8.95511 24.8859C7.54199 24.8859 6.40151 23.7591 6.40151 22.363V16.0576Z" fill="#4D4D4D"/>
<path fill-rule="evenodd" clip-rule="evenodd" d="M8.95488 5.93183C7.54176 5.93183 6.40128 4.80505 6.40128 3.40891C6.40128 2.01276 7.54176 0.885986 8.95488 0.885986C10.368 0.885986 11.5085 2.01276 11.5085 3.40891V5.93183H8.95488ZM8.95488 7.21036C10.368 7.21036 11.5085 8.33714 11.5085 9.73328C11.5085 11.1294 10.368 12.2562 8.95488 12.2562H2.5536C1.14048 12.2562 0 11.1256 0 9.73328C0 8.34093 1.14048 7.21036 2.5536 7.21036H8.95488Z" fill="#4D4D4D"/>
<path fill-rule="evenodd" clip-rule="evenodd" d="M19.1847 9.73328C19.1847 8.33714 20.3252 7.21036 21.7383 7.21036C23.1514 7.21036 24.2919 8.33714 24.2919 9.73328C24.2919 11.1294 23.1514 12.2562 21.7383 12.2562H19.1847V9.73328ZM17.9098 9.73328C17.9098 11.1294 16.7693 12.2562 15.3562 12.2562C13.9431 12.2562 12.8026 11.1294 12.8026 9.73328V3.40891C12.8026 2.01276 13.9431 0.885986 15.3562 0.885986C16.7693 0.885986 17.9098 2.01276 17.9098 3.40891V9.73328Z" fill="#4D4D4D"/>
<path fill-rule="evenodd" clip-rule="evenodd" d="M15.3562 19.8401C16.7693 19.8401 17.9098 20.9669 17.9098 22.363C17.9098 23.7591 16.7693 24.8859 15.3562 24.8859C13.9431 24.8859 12.8026 23.7591 12.8026 22.363V19.8401H15.3562ZM15.3562 18.5805C13.9431 18.5805 12.8026 17.4537 12.8026 16.0576C12.8026 14.6614 13.9431 13.5347 15.3562 13.5347H21.7575C23.1706 13.5347 24.3111 14.6614 24.3111 16.0576C24.3111 17.4537 23.1706 18.5805 21.7575 18.5805H15.3562Z" fill="#4D4D4D"/>
</g>
<defs>
<clipPath id="clip0">
<rect width="96" height="24" fill="white" transform="translate(0 0.885986)"/>
</clipPath>
</defs>
</svg>
