<svg width="81" height="25" viewBox="0 0 81 25" fill="none" xmlns="http://www.w3.org/2000/svg">
<g clip-path="url(#clip0)">
<path d="M12.147 0.885986C5.43853 0.885986 0 6.25853 0 12.8858C0 19.5137 5.43853 24.886 12.147 24.886C18.8557 24.886 24.2939 19.5137 24.2939 12.8858C24.2939 6.25896 18.856 0.886559 12.1468 0.886559L12.147 0.885986ZM17.7175 18.1931C17.4993 18.5466 17.0331 18.6574 16.6765 18.442C13.824 16.7198 10.2337 16.3307 6.00552 17.2849C5.59807 17.3772 5.19193 17.1249 5.09911 16.7225C5.00584 16.32 5.2601 15.9187 5.66857 15.827C10.2957 14.782 14.2647 15.2318 17.4664 17.1645C17.8232 17.3809 17.9364 17.8409 17.7173 18.1934L17.7175 18.1931ZM19.2043 14.9261C18.9295 15.3665 18.3467 15.5046 17.9016 15.2342C14.6372 13.2519 9.65949 12.6777 5.79752 13.8358C5.29666 13.9853 4.76766 13.7064 4.61565 13.2125C4.4648 12.7177 4.74721 12.1961 5.2472 12.0456C9.65862 10.7233 15.1427 11.3638 18.8922 13.6401C19.3376 13.9109 19.4782 14.4869 19.2041 14.9263L19.2043 14.9261ZM19.3319 11.5238C15.4164 9.22659 8.95787 9.01538 5.22006 10.1361C4.61985 10.3159 3.98511 9.98118 3.80321 9.38822C3.62132 8.79499 3.95987 8.16836 4.56052 7.98809C8.85126 6.70131 15.9841 6.94992 20.4914 9.59328C21.0313 9.90982 21.2084 10.5986 20.8884 11.1313C20.5693 11.6646 19.8702 11.8404 19.332 11.5238H19.3319ZM33.0479 11.964C30.9506 11.4699 30.5772 11.1231 30.5772 10.3944C30.5772 9.70606 31.2333 9.24279 32.2089 9.24279C33.1546 9.24279 34.0924 9.59458 35.0755 10.3188C35.1053 10.3407 35.1425 10.3494 35.1792 10.3437C35.2159 10.3383 35.2484 10.3184 35.2699 10.2884L36.294 8.86234C36.336 8.80359 36.3246 8.72263 36.2679 8.67777C35.0977 7.75023 33.7801 7.29928 32.24 7.29928C29.9754 7.29928 28.3936 8.6418 28.3936 10.5627C28.3936 12.6225 29.7581 13.3519 32.1161 13.9149C34.123 14.3716 34.4617 14.7542 34.4617 15.4381C34.4617 16.196 33.7768 16.6672 32.6745 16.6672C31.4503 16.6672 30.4518 16.2598 29.3347 15.3042C29.307 15.2805 29.269 15.2698 29.2339 15.2718C29.1969 15.2748 29.1631 15.2917 29.1396 15.3196L27.9914 16.6696C27.9433 16.7256 27.9494 16.8093 28.0051 16.8578C29.3047 18.004 30.9032 18.6094 32.6281 18.6094C35.0683 18.6094 36.6451 17.2922 36.6451 15.2536C36.6495 13.5326 35.6066 12.5797 33.0522 11.9658L33.0479 11.964ZM42.1658 9.92057C41.1081 9.92057 40.2405 10.3321 39.5251 11.1754V10.2262C39.5251 10.1513 39.4636 10.0902 39.3879 10.0902H37.5099C37.4341 10.0902 37.3727 10.1513 37.3727 10.2262V20.773C37.3727 20.8479 37.4341 20.909 37.5099 20.909H39.3879C39.4636 20.909 39.5251 20.8479 39.5251 20.773V17.4438C40.2406 18.2371 41.1083 18.6247 42.1658 18.6247C44.131 18.6247 46.1206 17.1302 46.1206 14.2731C46.1235 11.4154 44.1334 9.92043 42.1679 9.92043L42.1658 9.92057ZM43.9368 14.2731C43.9368 15.728 43.0297 16.7433 41.7307 16.7433C40.4466 16.7433 39.478 15.6819 39.478 14.2731C39.478 12.8646 40.4466 11.803 41.7307 11.803C43.0086 11.8029 43.937 12.8415 43.937 14.273L43.9368 14.2731ZM51.2198 9.92057C48.6888 9.92057 46.706 11.8459 46.706 14.3042C46.706 16.7358 48.6752 18.6409 51.1888 18.6409C53.7288 18.6409 55.7177 16.722 55.7177 14.2731C55.7177 11.8327 53.7421 9.92085 51.2197 9.92085L51.2198 9.92057ZM51.2198 16.7577C49.8736 16.7577 48.8587 15.6892 48.8587 14.2724C48.8587 12.8496 49.8385 11.8172 51.1888 11.8172C52.5437 11.8172 53.5654 12.8858 53.5654 14.3035C53.5654 15.726 52.5791 16.7577 51.2199 16.7577H51.2198ZM61.1224 10.0902H59.0559V8.003C59.0559 7.9282 58.9947 7.86716 58.9188 7.86716H57.0411C56.9651 7.86716 56.9035 7.9282 56.9035 8.003V10.0902H56.0005C55.925 10.0902 55.8637 10.1513 55.8637 10.2262V11.8207C55.8637 11.8955 55.925 11.9566 56.0005 11.9566H56.9035V16.0822C56.9035 17.7495 57.7435 18.5948 59.4001 18.5948C60.0737 18.5948 60.6326 18.4573 61.1593 18.1623C61.202 18.1387 61.2286 18.0931 61.2286 18.0447V16.5263C61.2286 16.4795 61.2039 16.4352 61.1633 16.4107C61.1224 16.3853 61.0715 16.384 61.0296 16.4045C60.6678 16.5844 60.3181 16.6673 59.9272 16.6673C59.3246 16.6673 59.0559 16.3971 59.0559 15.7914V11.9574H61.1224C61.1983 11.9574 61.2593 11.8963 61.2593 11.8214V10.2271C61.2622 10.1521 61.2013 10.0911 61.1244 10.0911L61.1224 10.0902ZM68.3227 10.0984V9.84204C68.3227 9.08788 68.6154 8.75157 69.2719 8.75157C69.6634 8.75157 69.9779 8.82837 70.3301 8.94444C70.3735 8.95792 70.4187 8.95118 70.4539 8.92553C70.4902 8.89987 70.5107 8.85875 70.5107 8.81519V7.25184C70.5107 7.19209 70.4718 7.13921 70.4135 7.12158C70.0414 7.01225 69.5654 6.90005 68.8526 6.90005C67.1181 6.90005 66.2012 7.865 66.2012 9.68957V10.0822H65.299C65.2233 10.0822 65.1612 10.1432 65.1612 10.218V11.8207C65.1612 11.8955 65.2233 11.9566 65.299 11.9566H66.2012V18.3202C66.2012 18.3951 66.2624 18.4562 66.3382 18.4562H68.2161C68.292 18.4562 68.3538 18.3951 68.3538 18.3202V11.9571H70.1071L72.793 18.3191C72.4881 18.9875 72.1883 19.1205 71.779 19.1205C71.4481 19.1205 71.0997 19.0229 70.7435 18.8303C70.71 18.8121 70.6702 18.8091 70.6341 18.8202C70.5983 18.8326 70.5681 18.859 70.5529 18.8934L69.9164 20.2729C69.8861 20.3381 69.912 20.4146 69.9756 20.4484C70.64 20.8039 71.2399 20.9557 71.9812 20.9557C73.3679 20.9557 74.1343 20.3176 74.81 18.6009L78.0679 10.2841C78.0843 10.2423 78.0794 10.195 78.0534 10.1579C78.0276 10.121 77.986 10.0988 77.9404 10.0988H75.9855C75.9269 10.0988 75.8745 10.1356 75.8553 10.19L73.8526 15.8412L71.659 10.1862C71.639 10.1336 71.5877 10.0988 71.5308 10.0988H68.3223L68.3227 10.0984ZM64.1482 10.0902H62.2702C62.1943 10.0902 62.1325 10.1513 62.1325 10.2262V18.3202C62.1325 18.3952 62.1943 18.4562 62.2702 18.4562H64.1482C64.2239 18.4562 64.2858 18.3952 64.2858 18.3202V10.2268C64.2859 10.2089 64.2823 10.1912 64.2754 10.1747C64.2685 10.1581 64.2583 10.1431 64.2455 10.1305C64.2327 10.1178 64.2175 10.1078 64.2008 10.101C64.184 10.0942 64.1661 10.0907 64.148 10.0908L64.1482 10.0902ZM63.2198 6.40484C62.4759 6.40484 61.8722 6.99979 61.8722 7.73475C61.8722 8.47014 62.476 9.06583 63.2198 9.06583C63.9635 9.06583 64.5666 8.47014 64.5666 7.73475C64.5666 6.99994 63.9632 6.40484 63.2206 6.40484H63.2198ZM79.6715 12.6926C78.9282 12.6926 78.3499 12.1029 78.3499 11.3869C78.3499 10.6709 78.9358 10.0745 79.6784 10.0745C80.4217 10.0745 81 10.664 81 11.3794C81 12.0955 80.414 12.6926 79.6713 12.6926H79.6715ZM79.6787 10.2043C79.0018 10.2043 78.4896 10.7359 78.4896 11.3869C78.4896 12.0376 78.9981 12.5621 79.6719 12.5621C80.3487 12.5621 80.8615 12.0309 80.8615 11.3794C80.8615 10.7288 80.3523 10.2043 79.6793 10.2043H79.6787ZM79.9717 11.5137L80.3456 12.0307H80.0303L79.6938 11.5564H79.4045V12.0307H79.1406V10.6603H79.7593C80.0816 10.6603 80.2935 10.8232 80.2935 11.0975C80.2949 11.3221 80.1629 11.4594 79.9729 11.5137H79.9717V11.5137ZM79.7484 10.8954H79.4043V11.3289H79.7484C79.9201 11.3289 80.0226 11.2459 80.0226 11.1119C80.0226 10.9709 79.9197 10.8954 79.7485 10.8954H79.7484V10.8954Z" fill="#4D4D4D"/>
</g>
<defs>
<clipPath id="clip0">
<rect width="81" height="24" fill="white" transform="translate(0 0.885986)"/>
</clipPath>
</defs>
</svg>
