<svg width="58" height="25" viewBox="0 0 58 25" fill="none" xmlns="http://www.w3.org/2000/svg">
<g clip-path="url(#clip0)">
<path d="M4.07609 10.2504C4.07609 9.62848 4.59163 9.38918 5.44566 9.38918C6.67 9.38918 8.21663 9.7561 9.44109 10.41V6.6619C8.10391 6.13562 6.78283 5.92828 5.44566 5.92828C2.175 5.92828 0 7.61892 0 10.442C0 14.8437 6.12217 14.1421 6.12217 16.04C6.12217 16.7736 5.47783 17.0129 4.57554 17.0129C3.23837 17.0129 1.53054 16.4706 0.177172 15.7369V19.5328C1.67554 20.1708 3.19 20.4418 4.57554 20.4418C7.92663 20.4418 10.2305 18.7992 10.2305 15.9443C10.2145 11.1915 4.07609 12.0367 4.07609 10.2504ZM14.9672 2.73853L11.0361 3.56782L11.02 16.3429C11.02 18.7035 12.8084 20.4418 15.1928 20.4418C16.5139 20.4418 17.4805 20.2026 18.0122 19.9155V16.6779C17.4967 16.8853 14.9511 17.6189 14.9511 15.2584V9.59653H18.0122V6.19943H14.9511L14.9672 2.73853ZM23.0228 7.37961L22.765 6.19943H19.285V20.1547H23.3128V10.6971C24.2633 9.46902 25.8745 9.69229 26.3739 9.86768V6.19943C25.8584 6.00801 23.9734 5.65712 23.0228 7.37961ZM27.3566 6.19943H31.4005V20.1547H27.3566V6.19943ZM27.3566 4.9873L31.4005 4.12606V0.888428L27.3566 1.73375V4.98719V4.9873ZM39.8105 5.92828C38.2316 5.92828 37.2166 6.6619 36.6528 7.17237L36.4433 6.18351H32.8989V24.7799L36.9266 23.9347L36.9428 19.4211C37.5228 19.8358 38.3766 20.4259 39.7945 20.4259C42.6784 20.4259 45.3045 18.1292 45.3045 13.0735C45.2884 8.4482 42.63 5.92828 39.8105 5.92828ZM38.8439 16.9171C37.8934 16.9171 37.3293 16.5822 36.9428 16.1675L36.9266 10.2504C37.3455 9.78795 37.9255 9.46902 38.8439 9.46902C40.31 9.46902 41.325 11.0957 41.325 13.185C41.325 15.3222 40.3261 16.9171 38.8439 16.9171ZM58 13.2329C58 9.14998 56.0022 5.92828 52.1839 5.92828C48.3493 5.92828 46.0293 9.15009 46.0293 13.2011C46.0293 18.0016 48.7684 20.4259 52.6993 20.4259C54.6166 20.4259 56.0666 19.9953 57.1622 19.3893V16.1994C56.0667 16.7417 54.81 17.0767 53.215 17.0767C51.6522 17.0767 50.2666 16.5344 50.0895 14.6524H57.9678C57.9678 14.4449 58 13.6157 58 13.2329ZM50.0411 11.7178C50.0411 9.91557 51.1528 9.1659 52.1678 9.1659C53.1505 9.1659 54.1978 9.91557 54.1978 11.7178H50.0411Z" fill="#4D4D4D"/>
</g>
<defs>
<clipPath id="clip0">
<rect width="58" height="24" fill="white" transform="translate(0 0.885986)"/>
</clipPath>
</defs>
</svg>
